<?xml version="1.0" encoding="UTF-8"?>
<svg id="a" data-name="Layer 1" xmlns="http://www.w3.org/2000/svg" viewBox="0 0 1000 1000">
  <circle cx="500" cy="500" r="500" style="fill: #fff; stroke-width: 0px;"/>
  <g>
    <path d="M718.71,556.15c-.41,0-.82-.01-1.23-.01-37.72,0-68.79,31.02-69.24,69.16-.46,38.52,30.6,70.28,69.24,70.8h.96c38.4,0,69.03-30.56,69.72-69.58.68-38.1-30.48-69.67-69.46-70.37ZM737.27,606.96c5.14,5.15,7.96,12.04,7.95,19.41-.03,14.68-12.18,26.69-27.2,26.75-7.03,0-14.02-3.01-19.17-8.27-5.05-5.15-7.76-11.7-7.63-18.45.3-15.7,11.69-27.15,27.07-27.23l.14-7.07h0v7.07c7.13,0,13.82,2.77,18.84,7.79Z" style="fill: #006aae; stroke-width: 0px;"/>
    <path d="M281.46,556.14c-18.56,0-36.02,7.25-49.15,20.4-13.24,13.26-20.51,30.92-20.48,49.73.06,38.5,31.36,69.82,69.77,69.82h.27c38.58-.15,69.91-31.6,69.85-70.11-.06-38.48-31.55-69.82-70.25-69.85ZM282.21,599.12c6.7,0,13.45,2.94,18.52,8.05,5.16,5.2,8.08,12.13,8.03,19.03-.12,14.73-12.11,26.8-26.73,26.91h-.21c-15.06,0-26.93-11.84-27.01-26.95-.08-14.85,11.75-26.72,26.93-27.03h.48Z" style="fill: #006aae; stroke-width: 0px;"/>
    <path d="M281.58,304.03c-18.72,0-36.27,7.25-49.41,20.42-13.14,13.17-20.37,30.73-20.35,49.47.04,38.58,31.28,69.97,69.65,69.97h.08c39.11-.04,69.93-30.81,70.17-70.04.11-18.45-7.04-35.86-20.14-49.05-13.3-13.39-31.05-20.77-50-20.77ZM254.88,376.11c-.65-7.05,1.46-13.89,5.94-19.26,4.66-5.59,11.38-9.04,18.93-9.72.75-.07,1.51-.1,2.26-.1,12.37,0,25.7,9.57,26.59,25.6.39,7.02-2.19,14.14-7.08,19.54-4.73,5.22-11.19,8.27-18.22,8.58l-.34.02c-.72.07-1.46.1-2.18.1h0c-13.25,0-24.63-10.88-25.9-24.76Z" style="fill: #006aae; stroke-width: 0px;"/>
    <path d="M717.32,443.89h.91c19.11-.26,36.86-7.69,49.96-20.92,13.14-13.27,20.23-30.96,19.97-49.83-.53-38.75-31.34-69.11-70.16-69.11h-.9c-38.31.47-69.2,31.96-68.87,70.2.33,38.41,31.32,69.66,69.08,69.66ZM720.85,347.14c6.97.64,13.61,4.2,18.22,9.76,4.51,5.44,6.65,12.1,6.02,18.75-1.35,14.37-12.59,25.21-26.13,25.21-.76,0-1.52-.03-2.28-.1l-.24-.02c-7.23-.4-13.82-3.59-18.54-8.96-4.65-5.29-7.04-12.19-6.54-18.91,1.12-15.22,12.11-25.86,26.73-25.86.91,0,1.84.04,2.76.13Z" style="fill: #006aae; stroke-width: 0px;"/>
    <path d="M500.2,672.68c-.44,0-.89,0-1.33.01-38.58.71-69.44,32.18-68.78,70.15.68,39.02,31.21,69.59,69.52,69.59h.94c19.11-.25,36.81-7.81,49.84-21.28,12.93-13.38,19.84-31.15,19.44-50.03-.8-38.38-31.39-68.44-69.63-68.44ZM473.04,742.52c-.01-7.16,2.78-13.91,7.85-19,5.08-5.09,11.82-7.9,18.98-7.9l.02-7.08h0v7.08c15,0,26.87,11.76,27.01,26.77.07,7.16-2.71,13.95-7.81,19.1-5.09,5.14-11.82,7.97-18.95,7.97h-.19c-15.06-.11-26.88-11.94-26.91-26.94Z" style="fill: #006aae; stroke-width: 0px;"/>
    <path d="M500.04,187.57c-38.47,0-69.85,31.26-69.96,69.68-.05,18.88,7.15,36.54,20.27,49.72,13.12,13.17,30.72,20.43,49.58,20.45h.08c18.79,0,36.36-7.23,49.46-20.37,13.16-13.19,20.39-30.88,20.36-49.8-.08-38.42-31.38-69.68-69.8-69.68ZM473.05,257.21c.41-14.7,12.22-26.66,26.33-26.66.26,0,.52,0,.78.01,15.15.47,27.14,12.78,26.74,27.46-.41,14.84-12.13,26.46-26.68,26.46-.32,0-.64,0-.97-.02-14.85-.53-26.6-12.75-26.2-27.25Z" style="fill: #006aae; stroke-width: 0px;"/>
    <path d="M739.64,485.29c-.24-12.1-8.65-20.8-20.45-21.18-.28,0-.55-.01-.83-.01-12.09,0-21.15,8.57-21.54,20.38-.34,10.35-.34,20.82,0,31.14.39,11.83,9.45,20.41,21.52,20.41.29,0,.59,0,.89-.01,11.6-.4,20.19-9.36,20.41-21.29.06-3.39.05-6.8.03-10.09,0-1.48-.01-2.95-.01-4.43s0-3.05.02-4.58c.02-3.37.03-6.86-.04-10.33Z" style="fill: #006aae; stroke-width: 0px;"/>
    <path d="M260.35,515.15c.24,11.81,9,20.59,20.82,20.87h.57c11.79,0,20.97-8.6,21.35-20.01.36-10.49.36-21.23,0-31.91-.38-11.59-9.39-20-21.41-20h-.49c-12.01.24-20.59,8.8-20.85,20.82-.08,3.49-.06,7-.04,10.39,0,1.51.02,3.03.02,4.54s0,3.13-.02,4.7c-.02,3.46-.04,7.04.04,10.6Z" style="fill: #006aae; stroke-width: 0px;"/>
    <path d="M403.41,282.16c-3.18,0-6.18.72-8.93,2.15-8.68,4.5-17.77,9.7-28.61,16.38-7.47,4.6-10.93,15.4-7.88,24.59,2.68,8.07,10.57,14.01,19.63,14.77l1.44.12,1.38-.46c.67-.22,1.36-.41,2.05-.61,2-.56,4.27-1.19,6.53-2.44,8.67-4.78,17.24-9.7,25.46-14.61,9.65-5.77,13.15-18.64,7.8-28.68-3.63-6.81-11.04-11.21-18.89-11.21Z" style="fill: #006aae; stroke-width: 0px;"/>
    <path d="M415.79,679.12c-8.28-5.03-18.59-11.29-28.94-16.63-2.64-1.36-5.54-2.05-8.61-2.05-7.55,0-14.83,4.21-18.56,10.72-5.54,9.7-2.71,22.61,6.18,28.17,7.79,4.88,18.13,11.18,29.09,16.63,2.78,1.38,5.74,2.08,8.78,2.08,5.34,0,10.65-2.26,14.57-6.21,4.21-4.24,6.51-9.96,6.47-16.08v-.24c-.3-7.24-3.49-13.06-8.99-16.4Z" style="fill: #006aae; stroke-width: 0px;"/>
    <path d="M621.89,660.61c-4,0-8.04,1.09-11.68,3.14-7.41,4.2-15.25,8.7-23.97,13.77-6.65,3.87-10.87,10.38-11.03,16.98v.21c.08,13.15,9.2,23.07,21.21,23.07,3.73,0,7.56-1,11.05-2.9,6.15-3.34,12.25-6.9,18.14-10.35,1.99-1.16,3.98-2.33,5.98-3.49,10.81-6.27,14.66-19.35,8.75-29.79-3.78-6.67-10.68-10.66-18.46-10.66Z" style="fill: #006aae; stroke-width: 0px;"/>
    <path d="M586.71,322.83c7.49,4.39,15.5,9.06,23.75,13.59,2.24,1.23,4.51,1.94,6.51,2.57.73.23,1.47.46,2.19.71l1.46.52,1.55-.14c9.85-.87,17.71-7.06,20.03-15.76,2.7-10.15-1.25-19.75-10.32-25.07-8.3-4.86-16.03-9.33-23.66-13.68-3.67-2.09-7.77-3.2-11.85-3.2-7.74,0-14.61,3.86-18.35,10.33-6.07,10.48-2.25,23.71,8.69,30.12Z" style="fill: #006aae; stroke-width: 0px;"/>
  </g>
</svg>