<svg xmlns="http://www.w3.org/2000/svg" width="20" height="27" viewBox="0 0 20 27" fill="#81858F">
<path d="M17 0.5H3C2.33696 0.5 1.70107 0.763392 1.23223 1.23223C0.763392 1.70107 0.5 2.33696 0.5 3V25C0.49991 25.2678 0.571517 25.5307 0.707383 25.7615C0.843249 25.9923 1.03842 26.1825 1.27263 26.3123C1.50684 26.4422 1.77154 26.507 2.03925 26.5C2.30696 26.493 2.56791 26.4144 2.795 26.2725L9.99875 21.7725L17.205 26.2725C17.4321 26.4144 17.693 26.493 17.9608 26.5C18.2285 26.507 18.4932 26.4422 18.7274 26.3123C18.9616 26.1825 19.1568 25.9923 19.2926 25.7615C19.4285 25.5307 19.5001 25.2678 19.5 25V3C19.5 2.33696 19.2366 1.70107 18.7678 1.23223C18.2989 0.763392 17.663 0.5 17 0.5ZM16.5 22.2938L10.7938 18.7275C10.5554 18.5785 10.2799 18.4995 9.99875 18.4995C9.71762 18.4995 9.44215 18.5785 9.20375 18.7275L3.5 22.2938V3.5H16.5V22.2938Z" />
</svg>