<?xml version="1.0" encoding="UTF-8"?>
<svg xmlns="http://www.w3.org/2000/svg" viewBox="0 0 658.33 423.34">
  <g style="isolation: isolate;">
    <g id="OBJECTS">
      <g>
        <g>
          <g>
            <path d="M64.3,362.17c-.81-.2-1.61-.41-2.42-.63" style="fill: none; stroke: #a9c6ea; stroke-miterlimit: 10;"/>
            <path d="M58.53,360.56c-15.05-4.71-29.62-13.34-39.7-25.31-35.49-42.16,6.1-96.2,47.48-113.22,20.18-8.3,38.36-18.21,44.29-41.22,5.67-22.01-9.86-45.01-13.87-66.02-8.07-42.28,29.95-74.99,70.06-74.99,36.97,0,53.62,14.09,90.31,38.67,27.73,18.58,79.81,29.47,119.82,25.55,47.65-4.68,65.61-25.55,103.59-42.54,26.14-11.69,62.57-14.19,87.02,3.14,26.12,18.51,16.19,54.76,19.17,81.83.75,6.81,2.52,13.46,5.91,19.45,21.4,37.76,65.23,39.7,65.23,95.61,0,40.34-64.36,56.32-99.12,61.57" style="fill: none; stroke: #a9c6ea; stroke-dasharray: 0 0 5 3.5; stroke-miterlimit: 10;"/>
            <path d="M556.98,323.35c-.84.12-1.67.24-2.47.35" style="fill: none; stroke: #a9c6ea; stroke-miterlimit: 10;"/>
          </g>
          <line x1="54.3" y1="151.43" x2="68.57" y2="151.43" style="fill: none; stroke: #a9c6ea; stroke-miterlimit: 10;"/>
          <line x1="68.57" y1="159.36" x2="82.83" y2="159.36" style="fill: none; stroke: #a9c6ea; stroke-miterlimit: 10;"/>
          <line x1="489.56" y1="89.12" x2="503.82" y2="89.12" style="fill: none; stroke: #a9c6ea; stroke-miterlimit: 10;"/>
          <line x1="480.5" y1="97.06" x2="494.77" y2="97.06" style="fill: none; stroke: #a9c6ea; stroke-miterlimit: 10;"/>
          <line x1="502.24" y1="93.27" x2="521.62" y2="93.27" style="fill: none; stroke: #a9c6ea; stroke-miterlimit: 10;"/>
          <line x1="626.63" y1="258.19" x2="636.89" y2="258.19" style="fill: none; stroke: #a9c6ea; stroke-miterlimit: 10;"/>
          <line x1="617.32" y1="250.35" x2="631.58" y2="250.35" style="fill: none; stroke: #a9c6ea; stroke-miterlimit: 10;"/>
          <line x1="155.04" y1="50.62" x2="169.3" y2="50.62" style="fill: none; stroke: #a9c6ea; stroke-miterlimit: 10;"/>
          <line x1="131.8" y1="222.5" x2="155.26" y2="222.5" style="fill: none; stroke: #a9c6ea; stroke-miterlimit: 10;"/>
          <line x1="160.21" y1="222.5" x2="172.39" y2="222.5" style="fill: none; stroke: #a9c6ea; stroke-miterlimit: 10;"/>
          <path d="M434.21,192.59c0,2.54-2.06,4.6-4.6,4.6s-4.6-2.06-4.6-4.6,2.06-4.6,4.6-4.6,4.6,2.06,4.6,4.6Z" style="fill: none; stroke: #a9c6ea; stroke-miterlimit: 10;"/>
          <path d="M615.13,160.73c0,2.54-2.06,4.6-4.6,4.6s-4.6-2.06-4.6-4.6,2.06-4.6,4.6-4.6,4.6,2.06,4.6,4.6Z" style="fill: none; stroke: #a9c6ea; stroke-miterlimit: 10;"/>
          <path d="M444.23,61.49c0,2.54-2.06,4.6-4.6,4.6s-4.6-2.06-4.6-4.6,2.06-4.6,4.6-4.6,4.6,2.06,4.6,4.6Z" style="fill: none; stroke: #a9c6ea; stroke-miterlimit: 10;"/>
          <path d="M534.18,68.38c0,1.26-1.03,2.29-2.29,2.29s-2.29-1.03-2.29-2.29,1.03-2.29,2.29-2.29,2.29,1.03,2.29,2.29Z" style="fill: none; stroke: #a9c6ea; stroke-miterlimit: 10;"/>
          <path d="M394.16,240.45c0,1.26-1.03,2.29-2.29,2.29s-2.29-1.03-2.29-2.29,1.03-2.29,2.29-2.29,2.29,1.03,2.29,2.29Z" style="fill: none; stroke: #a9c6ea; stroke-miterlimit: 10;"/>
          <path d="M128.04,76.19c0,1.26-1.03,2.29-2.29,2.29s-2.29-1.03-2.29-2.29,1.03-2.29,2.29-2.29,2.29,1.03,2.29,2.29Z" style="fill: none; stroke: #a9c6ea; stroke-miterlimit: 10;"/>
          <path d="M24.54,219.29c0,1.26-1.03,2.29-2.29,2.29s-2.29-1.03-2.29-2.29,1.03-2.29,2.29-2.29,2.29,1.03,2.29,2.29Z" style="fill: none; stroke: #a9c6ea; stroke-miterlimit: 10;"/>
          <path d="M137.34,172.38c0,1.26-1.03,2.29-2.29,2.29s-2.29-1.03-2.29-2.29,1.03-2.29,2.29-2.29,2.29,1.03,2.29,2.29Z" style="fill: none; stroke: #a9c6ea; stroke-miterlimit: 10;"/>
          <g>
            <line x1="66.68" y1="101.31" x2="66.68" y2="106.73" style="fill: none; stroke: #a9c6ea; stroke-miterlimit: 10;"/>
            <line x1="69.39" y1="104.02" x2="63.97" y2="104.02" style="fill: none; stroke: #a9c6ea; stroke-miterlimit: 10;"/>
          </g>
          <g>
            <line x1="383.75" y1="29.01" x2="383.75" y2="34.43" style="fill: none; stroke: #a9c6ea; stroke-miterlimit: 10;"/>
            <line x1="386.46" y1="31.72" x2="381.04" y2="31.72" style="fill: none; stroke: #a9c6ea; stroke-miterlimit: 10;"/>
          </g>
          <g>
            <line x1="554.34" y1="112.83" x2="554.34" y2="118.25" style="fill: none; stroke: #a9c6ea; stroke-miterlimit: 10;"/>
            <line x1="557.05" y1="115.54" x2="551.63" y2="115.54" style="fill: none; stroke: #a9c6ea; stroke-miterlimit: 10;"/>
          </g>
          <g>
            <line x1="642.95" y1="185.27" x2="642.95" y2="190.69" style="fill: none; stroke: #a9c6ea; stroke-miterlimit: 10;"/>
            <line x1="645.66" y1="187.98" x2="640.24" y2="187.98" style="fill: none; stroke: #a9c6ea; stroke-miterlimit: 10;"/>
          </g>
          <g>
            <line x1="617.32" y1="280.41" x2="617.32" y2="285.83" style="fill: none; stroke: #a9c6ea; stroke-miterlimit: 10;"/>
            <line x1="620.03" y1="283.12" x2="614.61" y2="283.12" style="fill: none; stroke: #a9c6ea; stroke-miterlimit: 10;"/>
          </g>
          <path d="M462.18,220.35c1.73-3.05,3.15-6.34,4.17-9.85,1.02-3.51,1.59-7.05,1.76-10.55l-9.63-1.33c.08-3.25-.29-6.45-1.06-9.53l9.12-3.41c-1.9-6.91-5.42-13.3-10.23-18.62l-7.76,5.88c-2.19-2.3-4.69-4.33-7.48-6l4.04-8.85c-3.05-1.73-6.34-3.15-9.85-4.17-3.51-1.02-7.05-1.59-10.55-1.76l-1.33,9.63c-3.25-.08-6.45.29-9.53,1.06l-3.41-9.12c-6.91,1.9-13.3,5.42-18.62,10.23l5.88,7.76c-2.3,2.19-4.33,4.69-6,7.48l-8.85-4.04c-1.73,3.05-3.15,6.34-4.17,9.85-1.02,3.51-1.59,7.05-1.76,10.55l9.63,1.33c-.08,3.25.29,6.45,1.06,9.53l-9.12,3.41c1.9,6.91,5.42,13.3,10.23,18.62l7.76-5.87c2.19,2.3,4.69,4.33,7.48,6l-4.04,8.85c3.05,1.73,6.34,3.15,9.85,4.17,3.51,1.02,7.05,1.59,10.55,1.76l1.33-9.63c3.25.08,6.45-.29,9.53-1.06l3.41,9.12c6.91-1.9,13.3-5.42,18.62-10.23l-5.87-7.76c2.3-2.19,4.33-4.69,6-7.48l8.85,4.04ZM416.08,219.88c-12.22-3.55-19.24-16.33-15.69-28.55,3.55-12.22,16.33-19.24,28.55-15.69,12.22,3.55,19.24,16.33,15.69,28.55s-16.33,19.24-28.55,15.69ZM417.77,214.07c-9.01-2.62-14.19-12.04-11.57-21.05,2.62-9.01,12.04-14.19,21.05-11.57,9.01,2.62,14.19,12.04,11.57,21.05s-12.04,14.19-21.05,11.57Z" style="fill: #e4ecf9; stroke-width: 0px;"/>
          <path d="M471.93,126.48c-.15-1.72-.5-3.46-1.07-5.17-.57-1.71-1.33-3.31-2.24-4.78l-4.29,2.16c-.88-1.34-1.93-2.54-3.1-3.58l2.75-3.94c-2.71-2.28-5.93-3.89-9.38-4.7l-1.51,4.56c-1.53-.32-3.12-.44-4.72-.34l-.84-4.73c-1.72.15-3.46.5-5.17,1.07-1.71.57-3.31,1.33-4.78,2.24l2.16,4.29c-1.34.88-2.54,1.93-3.58,3.1l-3.94-2.75c-2.28,2.71-3.89,5.93-4.7,9.38l4.56,1.51c-.32,1.53-.44,3.12-.34,4.72l-4.73.84c.15,1.72.5,3.46,1.07,5.17s1.33,3.31,2.24,4.78l4.29-2.16c.88,1.34,1.93,2.54,3.1,3.58l-2.75,3.94c2.71,2.28,5.93,3.89,9.38,4.7l1.51-4.56c1.53.32,3.12.44,4.72.34l.84,4.73c1.72-.15,3.46-.5,5.17-1.07s3.31-1.33,4.78-2.24l-2.16-4.29c1.34-.88,2.54-1.93,3.58-3.1l3.94,2.75c2.28-2.71,3.89-5.93,4.7-9.38l-4.56-1.51c.32-1.53.44-3.12.34-4.72l4.73-.84ZM452.5,137.51c-5.02,1.67-10.44-1.04-12.11-6.06-1.67-5.02,1.04-10.44,6.06-12.11,5.02-1.67,10.44,1.04,12.11,6.06,1.67,5.02-1.04,10.44-6.06,12.11Z" style="fill: #e4ecf9; stroke-width: 0px;"/>
          <path d="M235.74,94.08c-.23-2.64-.76-5.29-1.63-7.91-.87-2.62-2.04-5.07-3.43-7.32l-6.56,3.3c-1.35-2.06-2.95-3.89-4.75-5.47l4.21-6.03c-4.15-3.48-9.08-5.95-14.35-7.19l-2.31,6.99c-2.35-.49-4.78-.68-7.23-.52l-1.29-7.24c-2.64.23-5.29.76-7.91,1.63-2.62.87-5.07,2.04-7.32,3.43l3.3,6.56c-2.06,1.35-3.89,2.95-5.47,4.75l-6.03-4.21c-3.48,4.15-5.95,9.08-7.19,14.35l6.99,2.31c-.49,2.35-.68,4.78-.52,7.23l-7.24,1.29c.23,2.64.76,5.29,1.63,7.91.87,2.62,2.04,5.07,3.43,7.32l6.56-3.3c1.35,2.06,2.95,3.89,4.75,5.47l-4.21,6.03c4.15,3.48,9.08,5.95,14.35,7.19l2.31-6.99c2.35.49,4.78.68,7.23.52l1.29,7.24c2.64-.23,5.29-.76,7.91-1.63,2.62-.87,5.07-2.04,7.32-3.43l-3.3-6.56c2.06-1.35,3.89-2.95,5.47-4.75l6.03,4.21c3.48-4.15,5.95-9.08,7.19-14.35l-6.99-2.31c.49-2.35.68-4.78.52-7.23l7.24-1.29ZM206,110.96c-7.68,2.55-15.97-1.6-18.53-9.28s1.6-15.97,9.28-18.53c7.68-2.55,15.97,1.6,18.53,9.28,2.55,7.68-1.6,15.97-9.28,18.53Z" style="fill: #e4ecf9; stroke-width: 0px;"/>
          <path d="M169.99,148.74c.98-1.73,1.78-3.59,2.36-5.58.58-1.99.9-3.99,1-5.98l-5.46-.76c.05-1.84-.16-3.65-.6-5.4l5.17-1.93c-1.08-3.92-3.07-7.54-5.8-10.55l-4.4,3.33c-1.24-1.3-2.66-2.45-4.24-3.4l2.29-5.01c-1.73-.98-3.59-1.78-5.58-2.36-1.99-.58-3.99-.9-5.98-1l-.76,5.46c-1.84-.05-3.65.16-5.4.6l-1.93-5.17c-3.92,1.08-7.54,3.07-10.55,5.8l3.33,4.4c-1.3,1.24-2.45,2.66-3.4,4.24l-5.01-2.29c-.98,1.73-1.78,3.59-2.36,5.58-.58,1.99-.9,3.99-1,5.98l5.46.76c-.04,1.84.16,3.65.6,5.4l-5.17,1.93c1.08,3.92,3.07,7.54,5.8,10.55l4.4-3.33c1.24,1.3,2.66,2.45,4.24,3.4l-2.29,5.01c1.73.98,3.59,1.78,5.58,2.36,1.99.58,3.99.9,5.98,1l.76-5.46c1.84.05,3.65-.16,5.4-.6l1.93,5.17c3.92-1.08,7.54-3.07,10.55-5.8l-3.33-4.4c1.3-1.24,2.45-2.66,3.4-4.24l5.01,2.29ZM143.87,148.48c-6.92-2.01-10.9-9.25-8.89-16.17,2.01-6.92,9.25-10.9,16.17-8.89,6.92,2.01,10.9,9.25,8.89,16.17-2.01,6.92-9.25,10.9-16.17,8.89ZM144.83,145.19c-5.1-1.48-8.04-6.82-6.56-11.93,1.48-5.1,6.82-8.04,11.93-6.56,5.1,1.48,8.04,6.82,6.56,11.93-1.48,5.1-6.82,8.04-11.93,6.56Z" style="fill: #e4ecf9; stroke-width: 0px;"/>
        </g>
        <g>
          <g>
            <path d="M295.81,422.94c3.04-6.28,18.92-33.79,35.66-42.87,2.13-1.15,4.37-2.22,6.78-2.45s5.04.54,6.5,2.47c1.33,1.76,1.48,4.17,1.09,6.34-3.04,17.2-22.63,23.79-32.2,36.51" style="fill: #d7e3f4; stroke-width: 0px;"/>
            <path d="M295.81,422.84s15.75-31.09,31.13-49.61c7.28-8.77,12.28-25.01,4.63-29.88-11.08-7.04-21.96,8.64-26.95,16.43-7.54,11.78-13.09,24.81-17.37,38.09-.62,1.92-6.27,24.97-6.38,24.97h14.94Z" style="fill: #d7e3f4; stroke-width: 0px;"/>
            <path d="M325.93,352.26c-14.52,18.36-26.57,45.55-34.58,70.59" style="fill: none; stroke: #fff; stroke-miterlimit: 10;"/>
            <path d="M262.79,422.84s-1.83-47.84-23-69.96c-5.72-5.98-15.1-12.19-22.79-13.89-9.97-2.2-9.7,9.52-7.9,17.12,2.34,9.85,10.39,15.99,16.19,23.32,10.68,13.5,17.05,22.4,24.85,43.4" style="fill: #b2cded; stroke-width: 0px;"/>
            <path d="M269.15,422.84c5.71-10.46,3.7-55.16.84-69.17-1.99-9.73-6.08-19.23-11.67-27-5.06-7.04-20.2-22.57-29.11-16.26-5.15,3.65,2.65,16.79,4.71,20.74,6.68,12.79,11.97,26.47,16.1,40.54,4.79,16.28,8.4,33.38,9.7,50.5.02.22.03.43.05.65" style="fill: #d7e3f4; stroke-width: 0px;"/>
            <path d="M270.19,422.84c-1.88-25.03-.68-63.45,10.61-85.15,12.8-24.61,29.48-35.97,31.9-26.38,7.02,27.82-21.16,102.63-29.09,111.53" style="fill: #b2cded; stroke-width: 0px;"/>
            <path d="M214.2,346.98c22.78,15.88,38.5,45.95,41.43,75.86" style="fill: none; stroke: #fff; stroke-miterlimit: 10;"/>
            <path d="M237.51,318.4c11.19,9.99,16.88,25.63,20.32,40.76,4.74,20.85,7.02,42.21,7.77,63.68" style="fill: none; stroke: #fff; stroke-miterlimit: 10;"/>
            <path d="M305.51,321.83c-13.78,31.65-25.4,65.85-27.34,101.01" style="fill: none; stroke: #fff; stroke-miterlimit: 10;"/>
            <path d="M338.02,383.63s-20.13,13.37-34.19,39.22" style="fill: none; stroke: #fff; stroke-miterlimit: 10;"/>
          </g>
          <g>
            <path d="M544.05,422.76c2.99-39.54-.34-78.32,14.72-115.79,4.27-10.63,14.02-27.41,27.49-27.98,20.81-.89,8.07,40.92,4.3,56.56-2.42,10.06-6.04,20.07-9.79,29.68-6.66,17.06-16.67,40.9-24.24,57.52" style="fill: #b2cded; stroke-width: 0px;"/>
            <path d="M533.25,422.76c-6.55-16.76-12.96-33.58-19.44-50.37-5.75-14.89-12.43-29.45-17.08-44.75-3.53-11.64-12.67-38.33.7-46.53,23.81-14.61,42.85,41.91,45.36,61.98,3.31,26.46,2.6,53.07,2.99,79.66" style="fill: #d7e3f4; stroke-width: 0px;"/>
            <path d="M514.33,422.76s-13.92-17.78-20.19-26.11c-14.02-18.62-31.31-38.85-28.73-59.78.59-4.82,2.36-10.18,7.2-13.03,2.96-1.74,6.64-2.23,10-1.91,11.39,1.09,21.6,17.63,26.73,26.11,10.04,16.61,25.58,74.72,25.58,74.72" style="fill: #b2cded; stroke-width: 0px;"/>
            <path d="M503.68,292.83c16.99,34.35,33.57,97.97,33.97,129.93" style="fill: none; stroke: #fff; stroke-miterlimit: 10;"/>
            <path d="M477.27,332.29c14.95,28.71,45.34,90.47,45.34,90.47" style="fill: none; stroke: #fff; stroke-miterlimit: 10;"/>
            <path d="M585.39,288.09c-12.2,27.2-28.91,86.16-35.64,134.76" style="fill: none; stroke: #fff; stroke-miterlimit: 10;"/>
            <path d="M557.12,422.76s6.95-30.99,11.77-48.58c5.24-19.13,22.36-48.4,40.36-56.72,4.14-1.91,9.14-3.23,13.15-1.04,2.45,1.34,4.12,3.82,5.02,6.46,3.06,8.95-11.93,37.2-17.08,45.13-10.09,15.53-24.55,40.2-36.01,54.75" style="fill: #d7e3f4; stroke-width: 0px;"/>
            <path d="M619.05,323.69c-21.28,18.48-49.75,77.4-57.71,99.07" style="fill: none; stroke: #fff; stroke-miterlimit: 10;"/>
          </g>
          <g>
            <path d="M95.26,403.48c-2.73-14.45-7.2-43.11-10.59-60.69-1.64-8.51-6.39-18.9-9.4-26.98-5.5-14.73-18.79-40.33-35.27-38.96-20.45,1.7-3.92,38.46,1.28,52.34,3.35,8.92,7.86,17.65,12.47,26.01,8.17,14.82,20.28,35.46,29.3,49.78" style="fill: #b2cded; stroke-width: 0px;"/>
            <path d="M107.07,387.89c-4.99-13.05-3.64-29.65-3.62-43.46.03-24.86,8.66-59.81,24.85-76.12,6.67-6.72,17.72-14.2,24.89-3.92,6.79,9.74-1.06,36.2-3.54,47.57-4.85,22.26-28.05,63.5-34.76,85.06" style="fill: #b2cded; stroke-width: 0px;"/>
            <path d="M141.29,275.74c-11.5,29.84-26.97,84.27-30.91,116.01" style="fill: none; stroke: #fff; stroke-miterlimit: 10;"/>
            <path d="M41.73,285.09c14.58,23.45,35.94,73.67,47.25,117.39" style="fill: none; stroke: #fff; stroke-miterlimit: 10;"/>
            <path d="M95.85,371.89c6.13-10.04,13.41-42.62,15.07-54.26,2.33-16.37,2.58-33.67-1.47-49.8-2.74-10.88-15.25-43.44-30.96-28.76-7.38,6.9-6.2,44.47-5.32,54.53,1.72,19.7,11.92,54.97,15.43,74.43" style="fill: #d7e3f4; stroke-width: 0px;"/>
            <path d="M87.18,247.46c10.78,28.09,8.05,97.9,4.68,122.31" style="fill: none; stroke: #fff; stroke-miterlimit: 10;"/>
          </g>
        </g>
        <line y1="422.84" x2="627.83" y2="422.84" style="fill: none; stroke: #648acc; stroke-miterlimit: 10;"/>
        <g>
          <g>
            <path d="M253.39,140.17c3.07-3.03,10.52-13.26,11.36-13.01.85.25-1.73,3.89-.99,3.96.73.08,5.07-5.24,5.85-4.77,1.05.65-3.68,5.86-3.68,5.86,0,0,5.47-5.45,6.22-4.63.53.59-3.45,4.94-4.76,6.79,1.68-1.83,4.75-4.47,5.29-3.85.54.61-2.11,3.63-4.02,6.06,1.33-1.4,3.89-3.82,4.42-3.27.52.55-5.88,10.3-11.75,17.42" style="fill: #f886bc; stroke-width: 0px;"/>
            <path d="M214.32,177.54c26.11-22.31,43.63-42.7,43.63-42.7l9.8,6.55s-16.46,25.51-38,47.47" style="fill: #f886bc; stroke-width: 0px;"/>
            <path d="M206.52,184.99c5.39-6.77,14.3-13.32,14.3-13.32l15.81,12.79-13.88,16.28" style="fill: #bf2c4c; stroke-width: 0px;"/>
          </g>
          <g>
            <g>
              <path d="M233.77,300.98l-8.37,110.25,9.91,6.31s-27.22,1.42-28.11.53c-.89-.89,1.12-7,1.12-7l-4.55-110.34,30,.26Z" style="fill: #f886bc; stroke-width: 0px;"/>
              <path d="M211.53,417.98l-4.05-3.99.57-2.09,6.23,6.09h3s10.57-5.21,10.57-5.21l11.47,7.18c1.33.83.73,2.88-.83,2.87l-15.42-.06-4.92-3.42h-1.4s-.01,3.4-.01,3.4l-10.04-.04.02-4.76,4.82.02Z" style="fill: #28364c; stroke-width: 0px;"/>
            </g>
            <g>
              <path d="M211.78,300.39l-24.69,110.84,9.91,6.31s-27.22,1.42-28.11.53c-.89-.89,1.12-7,1.12-7l7.22-110.67h34.56Z" style="fill: #f886bc; stroke-width: 0px;"/>
              <path d="M173.22,417.98l-4.05-3.99.57-2.09,6.23,6.09h3s10.57-5.21,10.57-5.21l11.47,7.18c1.33.83.73,2.88-.83,2.87l-15.42-.06-4.92-3.42h-1.4s-.01,3.4-.01,3.4l-10.04-.04.02-4.76,4.82.02Z" style="fill: #28364c; stroke-width: 0px;"/>
            </g>
            <path d="M185.82,243.22c-13.58,23.91-13.56,68.38-13.56,68.38h62.97s-.87-39.07-7.9-61.08l-41.51-7.31Z" style="fill: #101d54; stroke-width: 0px;"/>
            <line x1="206.86" y1="245.37" x2="208.43" y2="311.6" style="fill: none; stroke: #273b7a; stroke-miterlimit: 10; stroke-width: .75px;"/>
            <path d="M220.8,248.15s-3.18,8.07-13.93,10.86" style="fill: none; stroke: #273b7a; stroke-miterlimit: 10; stroke-width: .75px;"/>
          </g>
          <g>
            <path d="M276.48,219.97c4.14,1.2,16.7,2.73,16.89,3.59.19.86-4.23.38-3.94,1.06.29.68,7.05,1.87,7.01,2.79-.05,1.24-6.91-.36-6.91-.36,0,0,7.42,2.12,7.07,3.18-.25.75-5.99-.61-8.25-.85,2.41.58,6.22,1.97,5.94,2.75-.28.77-4.2-.08-7.25-.56,1.87.48,5.23,1.54,5.01,2.26-.22.72-9.92-.66-18.99-2.32" style="fill: #f886bc; stroke-width: 0px;"/>
            <path d="M202.4,178.6s1.04,2.66,6.69,2.66c3.95,0,5.44-2.07,5.44-2.07,0,0,1.45,1.3,17.01,21.72,3.29,4.32,2.58,13.65-2.92,21.71-1.3,8.1-1.79,17.53-1.28,27.9h-45.02s-.79-32.35,2.33-49.99c1.84-10.44,9.67-18.73,17.76-21.93Z" style="fill: #e03b5a; stroke-width: 0px;"/>
            <path d="M232.14,192.59c30,23.54,50.8,28.65,50.8,28.65l-2.45,11.53s-36.03-4.57-59.7-24.46" style="fill: #f886bc; stroke-width: 0px;"/>
            <path d="M214.72,179.97c7.7,1.29,19.51,12.62,19.51,12.62l-12.54,18.4s-5.32-3.68-12.54-9.88" style="fill: #e03b5a; fill-rule: evenodd; stroke-width: 0px;"/>
            <path d="M221.69,210.31c-9.39-5.72-13.61-9.91-13.61-9.91" style="fill: none; stroke: #a31d4a; stroke-miterlimit: 10; stroke-width: .75px;"/>
          </g>
          <g>
            <path d="M218.08,158.66c3.13,5.17,4.42,10.35.04,13s-11.44,3.97-15.92-3.39c-3.14-5.17-2.11-11.52,2.27-14.17,4.39-2.65,10.48-.61,13.61,4.56Z" style="fill: #f886bc; fill-rule: evenodd; stroke-width: 0px;"/>
            <path d="M214.43,159.99c.14.53.56,1.14,1.08,1.12.15,0,.26-.1.3-.23.3-.89-1.68-1.99-1.38-.89Z" style="fill: #0b0b3a; stroke-width: 0px;"/>
            <path d="M212.36,159.54c.81-1.14,1.88-1.61,2.97-1.74" style="fill: none; stroke: #0b0b3a; stroke-linecap: round; stroke-miterlimit: 10; stroke-width: .5px;"/>
            <path d="M219.27,164.56l-2.9,1.45s1.02,2.5,2.59,2.04c1.31-.39.31-3.49.31-3.49Z" style="fill: #fff; stroke-width: 0px;"/>
            <path d="M214.72,179.97s-2.51,1.37-5.63,1.29c-4.53-.11-6.69-1.92-6.69-1.92l2.99-12.76,10.98.8-1.65,12.6Z" style="fill: #f886bc; fill-rule: evenodd; stroke-width: 0px;"/>
            <path d="M217.02,158.9s3.75,2.51,3.88,3.18c.13.67-1.45,1.63-1.45,1.63" style="fill: #f886bc; fill-rule: evenodd; stroke-width: 0px;"/>
            <path d="M206.52,150.54c-.4.2-1.8-.17-2.31-.17-.71,0-1.43.05-2.13.18-4.18.76-7.3,4.22-9.27,7.78-1.29,2.34-2.38,4.94-4.73,6.42-5.17,3.26-11.96,2.09-17.76,4.05-5.9,1.99-10.41,7.97-8.83,14.35.52,2.09,1.62,3.99,2.26,6.05,1.38,4.38.73,9.49,3.37,13.25.71,1.01,1.62,1.86,2.6,2.61,4.4,3.34,10.39,4.5,15.72,3.02,5.33-1.47,9.88-5.54,11.93-10.67,2.34-5.83,1.61-12.79,5.02-18.06,1.59-2.47,3.98-4.35,5.56-6.82,1.45-2.26,2.21-6.51,2.38-9.23.04-.63-1.09-5.85-.75-5.85,2.71,0,6.18-1.69,7.78-3.29-2.04-4.48-7.25-5.44-10.84-3.61Z" style="fill: #0b0b3a; stroke-width: 0px;"/>
            <path d="M209.45,163.97s-1.57-1.09-2.61.45c-1.34,2,1.88,4.52,3.43,4.64,1.55.12,1.51-1.57,1.51-1.57" style="fill: #f886bc; stroke-width: 0px;"/>
          </g>
        </g>
        <g>
          <g>
            <rect x="448.68" y="132.28" width="97.91" height="130.75" style="fill: #d9e4f4; stroke: #648acc; stroke-miterlimit: 10;"/>
            <rect x="463.3" y="132.28" width="97.91" height="130.75" style="fill: #fff; stroke: #648acc; stroke-miterlimit: 10;"/>
            <rect x="476.71" y="142.45" width="71.89" height="17.09" rx="3.6" ry="3.6" style="fill: #d7e3f4; opacity: .45; stroke-width: 0px;"/>
            <rect x="476.71" y="204.19" width="41.38" height="48.05" rx="3.59" ry="3.59" style="fill: #d7e3f4; opacity: .45; stroke-width: 0px;"/>
            <g>
              <path d="M482.07,176.55h-2.18c-1.76,0-3.18-1.87-3.18-4.17s1.42-4.17,3.18-4.17h2.18v8.34Z" style="fill: #b2cded; stroke-width: 0px;"/>
              <path d="M485.25,172.38c0,2.3-1.42,4.17-3.18,4.17s-3.18-1.87-3.18-4.17,1.42-4.17,3.18-4.17,3.18,1.87,3.18,4.17Z" style="fill: #d7e3f4; stroke-width: 0px;"/>
            </g>
            <g>
              <path d="M503.19,176.55h-2.18c-1.76,0-3.18-1.87-3.18-4.17s1.42-4.17,3.18-4.17h2.18v8.34Z" style="fill: #b2cded; stroke-width: 0px;"/>
              <path d="M506.37,172.38c0,2.3-1.42,4.17-3.18,4.17s-3.18-1.87-3.18-4.17,1.42-4.17,3.18-4.17,3.18,1.87,3.18,4.17Z" style="fill: #d7e3f4; stroke-width: 0px;"/>
            </g>
            <g>
              <path d="M524.3,176.55h-2.18c-1.76,0-3.18-1.87-3.18-4.17s1.42-4.17,3.18-4.17h2.18v8.34Z" style="fill: #b2cded; stroke-width: 0px;"/>
              <path d="M527.49,172.38c0,2.3-1.42,4.17-3.18,4.17s-3.18-1.87-3.18-4.17,1.42-4.17,3.18-4.17,3.18,1.87,3.18,4.17Z" style="fill: #d7e3f4; stroke-width: 0px;"/>
            </g>
            <g>
              <path d="M545.42,176.55h-2.18c-1.76,0-3.18-1.87-3.18-4.17s1.42-4.17,3.18-4.17h2.18v8.34Z" style="fill: #b2cded; stroke-width: 0px;"/>
              <path d="M548.6,172.38c0,2.3-1.42,4.17-3.18,4.17s-3.18-1.87-3.18-4.17,1.42-4.17,3.18-4.17,3.18,1.87,3.18,4.17Z" style="fill: #d7e3f4; stroke-width: 0px;"/>
            </g>
            <g>
              <path d="M482.07,196.76h-2.18c-1.76,0-3.18-1.87-3.18-4.17s1.42-4.17,3.18-4.17h2.18v8.34Z" style="fill: #b2cded; stroke-width: 0px;"/>
              <path d="M485.25,192.59c0,2.3-1.42,4.17-3.18,4.17s-3.18-1.87-3.18-4.17,1.42-4.17,3.18-4.17,3.18,1.87,3.18,4.17Z" style="fill: #d7e3f4; stroke-width: 0px;"/>
            </g>
            <g>
              <path d="M503.19,196.76h-2.18c-1.76,0-3.18-1.87-3.18-4.17s1.42-4.17,3.18-4.17h2.18v8.34Z" style="fill: #b2cded; stroke-width: 0px;"/>
              <path d="M506.37,192.59c0,2.3-1.42,4.17-3.18,4.17s-3.18-1.87-3.18-4.17,1.42-4.17,3.18-4.17,3.18,1.87,3.18,4.17Z" style="fill: #d7e3f4; stroke-width: 0px;"/>
            </g>
            <g>
              <path d="M524.3,196.76h-2.18c-1.76,0-3.18-1.87-3.18-4.17s1.42-4.17,3.18-4.17h2.18v8.34Z" style="fill: #b2cded; stroke-width: 0px;"/>
              <path d="M527.49,192.59c0,2.3-1.42,4.17-3.18,4.17s-3.18-1.87-3.18-4.17,1.42-4.17,3.18-4.17,3.18,1.87,3.18,4.17Z" style="fill: #d7e3f4; stroke-width: 0px;"/>
            </g>
            <g>
              <path d="M545.42,196.76h-2.18c-1.76,0-3.18-1.87-3.18-4.17s1.42-4.17,3.18-4.17h2.18v8.34Z" style="fill: #b2cded; stroke-width: 0px;"/>
              <path d="M548.6,192.59c0,2.3-1.42,4.17-3.18,4.17s-3.18-1.87-3.18-4.17,1.42-4.17,3.18-4.17,3.18,1.87,3.18,4.17Z" style="fill: #d7e3f4; stroke-width: 0px;"/>
            </g>
          </g>
          <g>
            <polygon points="76.88 422.84 243.04 422.84 243.04 295.52 118.69 295.52 76.88 344.41 76.88 422.84" style="fill: #fff; stroke: #648acc; stroke-miterlimit: 10;"/>
            <polygon points="195.87 422.84 257.1 422.84 257.1 295.52 236.84 295.52 195.87 344.41 195.87 422.84" style="fill: #d9e4f4; stroke: #648acc; stroke-miterlimit: 10;"/>
            <rect x="76.88" y="344.41" width="118.99" height="78.43" transform="translate(272.76 767.25) rotate(180)" style="fill: #d9e4f4; stroke: #648acc; stroke-miterlimit: 10;"/>
            <g>
              <path d="M206.52,309.79c1.14,1.04,3.47.34,5.21-1.57,1.74-1.91,2.22-4.3,1.08-5.34-.77-.71-2.36-2.16-2.36-2.16l-6.28,6.91s1.22,1.12,2.36,2.16Z" style="fill: #b2cded; stroke-width: 0px;"/>
              <path d="M204.31,307.77c1.14,1.04,3.47.34,5.2-1.57,1.74-1.91,2.22-4.3,1.08-5.34-1.14-1.04-3.47-.34-5.2,1.57-1.74,1.91-2.22,4.3-1.08,5.34Z" style="fill: #d7e3f4; stroke-width: 0px;"/>
            </g>
            <g>
              <path d="M188,309.79c1.14,1.04,3.47.34,5.21-1.57,1.74-1.91,2.22-4.3,1.08-5.34-.77-.71-2.36-2.16-2.36-2.16l-6.28,6.91s1.22,1.12,2.36,2.16Z" style="fill: #b2cded; stroke-width: 0px;"/>
              <path d="M185.79,307.77c1.14,1.04,3.47.34,5.2-1.57,1.74-1.91,2.22-4.3,1.08-5.34-1.14-1.04-3.47-.34-5.2,1.57-1.74,1.91-2.22,4.3-1.08,5.34Z" style="fill: #d7e3f4; stroke-width: 0px;"/>
            </g>
            <g>
              <path d="M149.87,309.79c1.14,1.04,3.47.34,5.21-1.57,1.74-1.91,2.22-4.3,1.08-5.34-.77-.71-2.36-2.16-2.36-2.16l-6.28,6.91s1.22,1.12,2.36,2.16Z" style="fill: #b2cded; stroke-width: 0px;"/>
              <path d="M147.66,307.77c1.14,1.04,3.47.34,5.2-1.57,1.74-1.91,2.22-4.3,1.08-5.34-1.14-1.04-3.47-.34-5.2,1.57-1.74,1.91-2.22,4.3-1.08,5.34Z" style="fill: #d7e3f4; stroke-width: 0px;"/>
            </g>
            <g>
              <path d="M130.23,309.79c1.14,1.04,3.47.34,5.21-1.57,1.74-1.91,2.22-4.3,1.08-5.34-.77-.71-2.36-2.16-2.36-2.16l-6.28,6.91s1.22,1.12,2.36,2.16Z" style="fill: #b2cded; stroke-width: 0px;"/>
              <path d="M128.02,307.77c1.14,1.04,3.47.34,5.2-1.57,1.74-1.91,2.22-4.3,1.08-5.34-1.14-1.04-3.47-.34-5.2,1.57-1.74,1.91-2.22,4.3-1.08,5.34Z" style="fill: #d7e3f4; stroke-width: 0px;"/>
            </g>
            <polygon points="194.46 335.5 201.06 326.95 100.52 326.95 92.96 335.5 194.46 335.5" style="fill: #d7e3f4; opacity: .45; stroke-width: 0px;"/>
          </g>
          <path d="M305.65,276.02v106.33c0,5.14-4.17,9.31-9.31,9.31h-59.15c-5.14,0-9.31-4.17-9.31-9.31v-3.05" style="fill: none; stroke: #648acc; stroke-miterlimit: 10;"/>
          <path d="M320.31,280.9v121.49c0,5.25-4.25,9.5-9.5,9.5h-94.05c-5.14,0-9.31-4.17-9.31-9.31v-23.26" style="fill: none; stroke: #648acc; stroke-miterlimit: 10;"/>
          <path d="M346.92,278.87v70.48c0,5.14,4.17,9.31,9.31,9.31h73.46c5.14,0,9.31-4.17,9.31-9.31v-120.74c0-5.14,4.17-9.31,9.31-9.31h30.29" style="fill: none; stroke: #648acc; stroke-miterlimit: 10;"/>
          <path d="M335.11,280.9v98.78c0,5.14,4.17,9.31,9.31,9.31h134.87c5.14,0,9.31-4.17,9.31-9.31v-137.33" style="fill: none; stroke: #648acc; stroke-miterlimit: 10;"/>
          <g>
            <path d="M238.88,126.32c0-48.39,39.23-87.63,87.63-87.63s87.63,39.23,87.63,87.63c0,19.29-6.24,37.12-16.8,51.6h0c-12.51,18.85-45.01,40.13-45.01,52.88v14.56c0,2.91-2.36,5.26-5.26,5.26h-41.11c-2.91,0-5.26-2.36-5.26-5.26v-14.56c0-12.75-32.5-34.03-45.01-52.88h0c-10.56-14.47-16.8-32.31-16.8-51.6Z" style="fill: #fdd305; stroke-width: 0px;"/>
            <path d="M336.45,249.17c-.1-2.2-1.67-37.37,1.15-68.2-3.45.41-7.15.63-11.1.63s-7.64-.22-11.1-.63c2.82,30.83,1.25,66,1.14,68.2l-1.55-.07c.02-.54,1.65-36.92-1.23-68.34-25.99-3.61-37.62-18.34-39.71-32.23-1.22-8.12,1.55-16.2,6.59-19.22,3.06-1.83,6.75-2.2,10.69-1.07,6.19,1.78,12.07,7.11,15.73,14.27,4.23,8.27,6.73,21.99,8.17,36.89,3.49.43,7.23.66,11.24.66s7.76-.23,11.24-.66c1.44-14.9,3.94-28.62,8.17-36.89,3.66-7.16,9.55-12.49,15.73-14.27,3.93-1.13,7.63-.76,10.69,1.07,5.04,3.02,7.82,11.1,6.59,19.22-2.09,13.9-13.72,28.62-39.71,32.23-2.88,31.41-1.25,67.79-1.23,68.34l-1.55.07ZM365.99,129.15c-1.25,0-2.56.19-3.91.58-5.79,1.66-11.31,6.7-14.78,13.48-4.07,7.95-6.5,21.34-7.92,35.97,24.9-3.59,36.04-17.62,38.03-30.88,1.11-7.41-1.41-15-5.86-17.66-1.66-.99-3.54-1.49-5.56-1.49ZM287.01,129.15c-2.02,0-3.9.5-5.56,1.49-4.45,2.66-6.97,10.26-5.86,17.66,1.99,13.25,13.14,27.29,38.03,30.88-1.42-14.63-3.85-28.02-7.92-35.97-3.47-6.78-9-11.82-14.78-13.48-1.34-.39-2.65-.58-3.91-.58Z" style="fill: #fff; stroke-width: 0px;"/>
            <path d="M399.54,131.35c-2.78,0-5.03-2.25-5.03-5.03,0-31.18-21.08-58.29-51.26-65.93-2.69-.68-4.32-3.42-3.64-6.11.68-2.69,3.42-4.32,6.11-3.64,34.65,8.77,58.85,39.89,58.85,75.68,0,2.78-2.25,5.03-5.03,5.03Z" style="fill: #fe9; stroke-width: 0px;"/>
            <path d="M324.81,53.15c0,2.78,2.25,5.03,5.03,5.03s5.03-2.25,5.03-5.03-2.25-5.03-5.03-5.03-5.03,2.25-5.03,5.03Z" style="fill: #fe9; stroke-width: 0px;"/>
            <g style="mix-blend-mode: multiply; opacity: .55;">
              <path d="M413.96,131.51c-4.84,35.93-33.84,73.13-87.46,73.13s-81.54-38.94-87.46-73.13c1.01,17.3,7.02,33.25,16.63,46.41h0c12.51,18.85,45.01,40.13,45.01,52.88v14.56c0,2.91,2.36,5.26,5.26,5.26h41.11c2.91,0,5.26-2.36,5.26-5.26v-14.56c0-12.75,32.5-34.03,45.01-52.88h0c9.61-13.17,15.62-29.12,16.63-46.41Z" style="fill: #ffc043; stroke-width: 0px;"/>
            </g>
            <path d="M354.39,237.02h-55.77v26.58c0,4.34,1.24,8.59,3.56,12.26h0c4.4,6.93,12.03,11.12,20.24,11.12h8.18c8.21,0,15.84-4.2,20.24-11.12h0c2.33-3.66,3.56-7.92,3.56-12.26v-26.58Z" style="fill: #28364c; stroke-width: 0px;"/>
            <path d="M298.61,254.94c.16,0,.32,0,.48-.02l55.77-5.78c1.9-.2,3.23-1.91,2.97-3.82-.26-1.91-2.03-3.31-3.93-3.11l-55.78,5.78c-1.9.2-3.23,1.91-2.97,3.82.24,1.75,1.73,3.06,3.44,3.12Z" style="fill: #475577; stroke-width: 0px;"/>
            <path d="M298.61,267.11c.16,0,.32,0,.48-.02l55.77-5.78c1.9-.2,3.23-1.91,2.97-3.82-.26-1.91-2.03-3.3-3.93-3.11l-55.78,5.78c-1.9.2-3.23,1.91-2.97,3.82.24,1.75,1.73,3.06,3.44,3.12Z" style="fill: #475577; stroke-width: 0px;"/>
            <path d="M300.84,279.15c.16,0,.32,0,.48-.02l52.87-5.48c1.9-.2,3.23-1.91,2.97-3.82-.26-1.91-2.03-3.31-3.93-3.11l-52.87,5.48c-1.9.2-3.23,1.91-2.97,3.82.24,1.75,1.73,3.06,3.44,3.12Z" style="fill: #475577; stroke-width: 0px;"/>
            <g>
              <line x1="326.5" y1="1.5" x2="326.5" y2="29.04" style="fill: #ffcd5c; stroke: #ffc043; stroke-linecap: round; stroke-linejoin: round; stroke-width: 3px;"/>
              <g>
                <line x1="376.16" y1="12.47" x2="365.04" y2="37.66" style="fill: #ffcd5c; stroke: #ffc043; stroke-linecap: round; stroke-linejoin: round; stroke-width: 3px;"/>
                <line x1="418.01" y1="42.93" x2="397.66" y2="61.49" style="fill: #ffcd5c; stroke: #ffc043; stroke-linecap: round; stroke-linejoin: round; stroke-width: 3px;"/>
                <line x1="276.84" y1="12.47" x2="287.97" y2="37.66" style="fill: #ffcd5c; stroke: #ffc043; stroke-linecap: round; stroke-linejoin: round; stroke-width: 3px;"/>
                <line x1="234.99" y1="42.93" x2="255.34" y2="61.49" style="fill: #ffcd5c; stroke: #ffc043; stroke-linecap: round; stroke-linejoin: round; stroke-width: 3px;"/>
              </g>
            </g>
          </g>
          <circle cx="207.45" cy="379.45" r="1.9" style="fill: #648acc; stroke-width: 0px;"/>
          <circle cx="227.87" cy="379.45" r="1.9" style="fill: #648acc; stroke-width: 0px;"/>
          <circle cx="488.61" cy="242.35" r="1.9" style="fill: #648acc; stroke-width: 0px;"/>
          <circle cx="499.3" cy="242.35" r="1.9" style="fill: #648acc; stroke-width: 0px;"/>
          <path d="M511.88,242.35c0,1.05-.85,1.9-1.9,1.9s-1.9-.85-1.9-1.9.85-1.9,1.9-1.9,1.9.85,1.9,1.9Z" style="fill: #648acc; stroke-width: 0px;"/>
          <circle cx="478.61" cy="219.29" r="1.9" style="fill: #648acc; stroke-width: 0px;"/>
        </g>
        <g>
          <circle cx="420.18" cy="330.34" r="39.13" transform="translate(-94.91 187.65) rotate(-22.69)" style="fill: #f46072; stroke-width: 0px;"/>
          <circle cx="420.18" cy="330.34" r="28.31" transform="translate(-62.75 101.32) rotate(-12.8)" style="fill: #fff; stroke-width: 0px;"/>
          <path d="M400.73,330.34c0,10.74,8.71,19.45,19.45,19.45s19.45-8.71,19.45-19.45-8.71-19.45-19.45-19.45-19.45,8.71-19.45,19.45Z" style="fill: #f46072; stroke-width: 0px;"/>
          <path d="M409.99,330.34c0,5.63,4.56,10.19,10.19,10.19s10.19-4.56,10.19-10.19-4.56-10.19-10.19-10.19-10.19,4.56-10.19,10.19Z" style="fill: #fff; stroke-width: 0px;"/>
          <g>
            <polygon points="418.6 331.92 425 331.92 418.6 325.52 418.6 331.92" style="fill: #0c3656; stroke-width: 0px;"/>
            <polygon points="460.08 290.44 467.4 290.44 467.4 288.6 461.93 288.6 461.93 283.12 460.08 283.12 460.08 290.44" style="fill: #0c3656; stroke-width: 0px;"/>
            <polygon points="463.43 287.09 470.75 287.09 470.75 285.25 465.28 285.25 465.28 279.77 463.43 279.77 463.43 287.09" style="fill: #0c3656; stroke-width: 0px;"/>
            <rect x="411.23" y="307.07" width="62.59" height="1.85" transform="translate(-88.17 403.12) rotate(-45)" style="fill: #0c3656; stroke-width: 0px;"/>
          </g>
        </g>
        <g>
          <g>
            <path d="M119.21,260.52l-4.83,9.17s-3.29,0-7.84-2.24c-4.51-2.23-5.82-5.29-5.82-5.29l8.16-10.8" style="fill: #f886bc; stroke-width: 0px;"/>
            <path d="M129.47,243.2c4.49,2.65-2.93,19.4-6.98,20.46-4.05,1.06-12.09-6.85-14.49-13.56-2.4-6.71,5.32-10.37,9.85-11.74,4.53-1.36,11.62,4.84,11.62,4.84Z" style="fill: #f886bc; stroke-width: 0px;"/>
            <path d="M126.14,251.32c-.15.27-.3.54-.43.82-.16.34.35.64.51.3.14-.3.27-.61.39-.92.1-.28-.33-.45-.47-.2h0Z" style="fill: #00276f; stroke-width: 0px;"/>
            <path d="M128.63,249.69s-.99-1.48-3.58-.96" style="fill: none; stroke: #00276f; stroke-linecap: round; stroke-linejoin: round; stroke-width: .75px;"/>
            <path d="M122.19,257.84l2.86,2.04s-1.12,2.16-2.14,1.32c-1.02-.84-.72-3.36-.72-3.36Z" style="fill: #fff; stroke-width: 0px;"/>
            <path d="M133.5,246.87c-2.04-.66-4.28-1.9-5.82-2.67-2.06.43-4.21,2.36-4.26,4.55-.01.49-.06,1.16-.55,1.23-.34.05-.62-.28-.71-.61-.09-.33-.08-.68-.22-1-.27-.63-1.11-.89-1.76-.66s-1.12.82-1.39,1.45c-.68,1.63-1.29,3.6.27,4.97.24.21.52.4.68.68.34.61-.06,1.36-.46,1.93-1.24,1.78-3.1,3.78-6.75,3.78-2.56,0-6.83-3.38-7.11-5.07-.03-.15-2.48-10.51,2.08-17.09,2.44-3.53,6.75-6.11,11.23-5.73,2.77.23,5.19,1.86,6.55,2.92,7.48,1.38,9.09,9.09,8.23,11.33Z" style="fill: #212237; stroke-width: 0px;"/>
            <path d="M129.18,252.99s.66,5.02-.33,5.57c-.99.55-3.08-.88-3.08-.88" style="fill: #f886bc; stroke-width: 0px;"/>
          </g>
          <g>
            <g>
              <g>
                <path d="M131.24,388.96l-3.66,23.64-.19,7.12,27.92-.14c.68,0,1.23-.56,1.23-1.24h0c0-.51-.32-.97-.8-1.15l-12.04-5.54,4.76-24.56" style="fill: #f886bc; stroke-width: 0px;"/>
                <path d="M157.75,419.28c-.29-.89-.81-1.9-1.34-2.13l-12.77-5.5c-7.04,2.85-16.14.67-16.14.67l-1.62,9.61c0,.32.26.57.58.57l31.08-.16c.63,0,.22-3.05.21-3.07Z" style="fill: #4868ef; stroke-width: 0px;"/>
                <path d="M146.41,412.21c-.72.93-1.32,1.95-1.8,3.02" style="fill: none; stroke: #273b7a; stroke-miterlimit: 10; stroke-width: .75px;"/>
                <path d="M148.02,413.17c-.74,1.03-1.04,1.62-1.48,2.57" style="fill: none; stroke: #273b7a; stroke-miterlimit: 10; stroke-width: .75px;"/>
                <path d="M149.38,413.87c-.5.68-1,1.61-1.39,2.36" style="fill: none; stroke: #273b7a; stroke-miterlimit: 10; stroke-width: .75px;"/>
              </g>
              <line x1="126.05" y1="420.44" x2="157.89" y2="420.28" style="fill: none; stroke: #273b7a; stroke-miterlimit: 10; stroke-width: .75px;"/>
              <path d="M126.93,415.74s7.48.15,8.12,4.66" style="fill: none; stroke: #273b7a; stroke-miterlimit: 10; stroke-width: .75px;"/>
              <path d="M153.8,416.03s-2.06,2.93-2.47,4.28" style="fill: none; stroke: #273b7a; stroke-miterlimit: 10; stroke-width: .75px;"/>
            </g>
            <g>
              <g>
                <path d="M44.59,395.16l-23.29-2.77-7.12-.19.14,27.92c0,.68.56,1.23,1.24,1.23h0c.51,0,.97-.32,1.15-.8l5.54-12.04,24.14,2.72" style="fill: #f886bc; stroke-width: 0px;"/>
                <path d="M14.62,422.56c.89-.29,1.9-.81,2.13-1.34l5.5-12.77c-2.85-7.04-.67-16.14-.67-16.14l-9.61-1.62c-.32,0-.57.26-.57.58l.16,31.08c0,.63,3.05.22,3.07.21Z" style="fill: #4868ef; stroke-width: 0px;"/>
                <path d="M21.7,411.22c-.93-.72-1.95-1.32-3.02-1.8" style="fill: none; stroke: #273b7a; stroke-miterlimit: 10; stroke-width: .75px;"/>
                <path d="M20.73,412.82c-1.03-.74-1.62-1.04-2.57-1.48" style="fill: none; stroke: #273b7a; stroke-miterlimit: 10; stroke-width: .75px;"/>
                <path d="M20.03,414.18c-.68-.5-1.61-1-2.36-1.39" style="fill: none; stroke: #273b7a; stroke-miterlimit: 10; stroke-width: .75px;"/>
              </g>
              <line x1="13.46" y1="390.85" x2="13.63" y2="422.69" style="fill: none; stroke: #273b7a; stroke-miterlimit: 10; stroke-width: .75px;"/>
              <path d="M18.17,391.73s-.15,7.48-4.66,8.12" style="fill: none; stroke: #273b7a; stroke-miterlimit: 10; stroke-width: .75px;"/>
              <path d="M17.87,418.6s-2.93-2.06-4.28-2.47" style="fill: none; stroke: #273b7a; stroke-miterlimit: 10; stroke-width: .75px;"/>
            </g>
            <path d="M58.45,330.26c-5.01,13.38,3.16,32.81,3.16,32.81l4.31,31.29-40.84-1.8.4,27.16s43.81,3.12,54.4,3.12,14.69-2.37,17.8-8.58c4.63-9.25-2.03-60.39-2.03-61.24l-7.27-32.85" style="fill: #22252d; stroke-width: 0px;"/>
            <line x1="29.97" y1="392.78" x2="30.28" y2="420.06" style="fill: none; stroke: #474b51; stroke-miterlimit: 10; stroke-width: .75px;"/>
            <path d="M72.61,337.49s-4.64,23.69,18.9,28.78c10.52,2.28,37.26,3.02,37.26,3.02l-4.57,36.6h26.71s5.53-27.58,7.2-46.03c1.11-12.27-4.17-17.76-14.09-18.99-8.4-1.04-33.66-2.68-33.66-2.68l-4.25-5.33" style="fill: #22252d; stroke-width: 0px;"/>
            <path d="M96.79,367.13s-19.81.06-24.55-22.14" style="fill: none; stroke: #474b51; stroke-miterlimit: 10; stroke-width: .75px;"/>
            <path d="M82.69,342.9s5.36,1.03,12.34.57" style="fill: none; stroke: #474b51; stroke-miterlimit: 10; stroke-width: .75px;"/>
            <path d="M56.83,339.76s5.28,1.51,8.71,1.48" style="fill: none; stroke: #474b51; stroke-miterlimit: 10; stroke-width: .75px;"/>
            <line x1="125.97" y1="401.14" x2="151.9" y2="401.14" style="fill: none; stroke: #474b51; stroke-miterlimit: 10; stroke-width: .75px;"/>
          </g>
          <g>
            <g>
              <rect x="179.29" y="300.1" width="2.13" height="23.24" style="fill: #648acc; stroke-width: 0px;"/>
              <circle cx="180.36" cy="297.75" r="3.92" style="fill: #648acc; stroke-width: 0px;"/>
            </g>
            <path d="M160.69,304.42l7.88.58s6.06-2.05,8.47-2.1c1.48-.03,2.25.75,2.25.75v2.38c0,1.59,2.13,2.29,2.13,1.21v-1.31c.02.09,4.37,2.15,1.82,4.11,1.19.25,1.83,1.92-.44,3.08.72.49,1.55,1.85-.11,2.94.74,1.12-.76,2.36-1.95,2.61-2.25.49-20.29.11-20.29.11" style="fill: #f886bc; stroke-width: 0px;"/>
            <path d="M114.68,268.82c12.95,17.92,5.99,23.72-3.31,69.42-31.09,0-54.88-5.38-54.88-5.38,0,0,7.4-23.98,21.13-50.68,6.54-12.73,17.42-19.06,23.58-20.68" style="fill: #4868ef; stroke-width: 0px;"/>
            <path d="M95.03,288.97s20.01,31.34,29.52,32.73c15.1,2.21,40.07,1.59,40.07,1.59l1.49-22.05s-32.1-1.62-33.42-2.38c-4.3-2.44-18.01-30.04-18.01-30.04" style="fill: #4868ef; stroke-width: 0px;"/>
            <path d="M116.34,315.98s-11.74-9.75-19.56-24.88" style="fill: none; stroke: #273b7a; stroke-miterlimit: 10; stroke-width: .75px;"/>
            <line x1="161.49" y1="301" x2="159.6" y2="323.37" style="fill: none; stroke: #273b7a; stroke-miterlimit: 10; stroke-width: .75px;"/>
          </g>
        </g>
        <g>
          <g>
            <path d="M586.19,266.39c-.48,4.28-3.93,16.46-3.2,16.97.72.51,1.99-3.76,2.5-3.23.51.53-.99,7.23-.14,7.54,1.16.43,2.33-6.51,2.33-6.51,0,0-.91,7.67.21,7.75.79.06,1.75-5.76,2.4-7.94-.4,2.45-.58,6.5.24,6.54.81.04,1.55-3.91,2.28-6.9-.28,1.91-.6,5.42.16,5.49.75.07,3.22-9.4,5.19-18.42" style="fill: #f886bc; stroke-width: 0px;"/>
            <path d="M600.13,207.63s6.93,12.31,7.93,19.87c2.47,18.62-12.98,50.15-12.98,50.15,0,0-11.22-3.06-11.22-4.47s7.82-34.54,7.82-34.54l-11.22-25.9" style="fill: #f886bc; stroke-width: 0px;"/>
          </g>
          <g>
            <path d="M566.43,167.2l1.51,13.88s-8.32,7.06-15.69-.85l.9-9.14,13.28-3.9Z" style="fill: #f886bc; stroke-width: 0px;"/>
            <path d="M554.81,153.3s-9.01,12.41-5.33,17.06c2.72,3.43,9.84,3.82,12.04,2.47.47-2.54,6.31-10.94,5.38-12.81-3.58-7.14-12.09-6.72-12.09-6.72Z" style="fill: #f886bc; stroke-width: 0px;"/>
            <path d="M568.84,155.44c-.29-4.69-4.92-6.06-13.8-5.53-1.19.07-3.3-.74-3.85.32-.72,1.39-.85,4.2.54,5.46.93.84,1.55,1.03,2.78,1.31,1.61.38,3.25,1.91,2.39,3.59-.22.44-.76,1.19-.42,1.55.17.18.74.39.96.51.64.34.6,1.31.2,1.92-.4.61-.22,1.28-.62,1.88-.95,1.43.18,4.07,1.65,4.94,1.31.77,5.59,2.07,8.73.44,2.72-1.41,4.35-5.25,4.38-12.15,0-2.65-1.96-4.42-2.95-4.24Z" style="fill: #212237; stroke-width: 0px;"/>
            <path d="M555.8,162.53c1.46-1.85,2.65-1.56,3.29-.54.86,1.36-.87,4.18-1.67,4.66-1.63.98-2.95.87-3.08-.45" style="fill: #f886bc; stroke-width: 0px;"/>
            <path d="M552.19,159.69c-.42.35-.81.98-.58,1.45.07.13.19.19.34.18.94-.09,1.12-2.35.24-1.63Z" style="fill: #28364c; stroke-width: 0px;"/>
            <path d="M552.3,157.97c.59.21,1.54.74,1.88,1.48" style="fill: none; stroke: #28364c; stroke-miterlimit: 10; stroke-width: .75px;"/>
            <path d="M552.29,166.31l-2.06-1.1s-1.35,2.53-.39,3.06c1.06.59,2.45-1.96,2.45-1.96Z" style="fill: #fff; stroke-width: 0px;"/>
          </g>
          <g>
            <g>
              <rect x="521.25" y="421.37" width="32.51" height="1.46" transform="translate(1075.33 843.79) rotate(179.96)" style="fill: #103bb2; stroke-width: 0px;"/>
              <path d="M549.13,409.36l2.81.66s1.08,3.67,1.49,6.23c.41,2.56.32,5.11.32,5.11l-32.51.02s.85-2.82,8.61-7.36c3.06-1.79,4.61-3.84,4.61-3.84l14.66-.83Z" style="fill: #22252d; stroke-width: 0px;"/>
              <path d="M552.47,397.66l-.53,12.36s-1.36,1.65-6.88,1.65c-5.52,0-10.59-1.49-10.59-1.49l-1.09-16.67" style="fill: #f2b18f; stroke-width: 0px;"/>
            </g>
            <g>
              <rect x="567.55" y="421.37" width="32.51" height="1.46" transform="translate(1167.93 843.75) rotate(179.96)" style="fill: #103bb2; stroke-width: 0px;"/>
              <path d="M595.43,409.36l2.81.66s1.08,3.67,1.49,6.23c.41,2.56.32,5.11.32,5.11l-32.51.02s.85-2.82,8.61-7.36c3.06-1.79,4.61-3.84,4.61-3.84l14.66-.83Z" style="fill: #22252d; stroke-width: 0px;"/>
              <path d="M597.14,397.16l1.1,12.86s-1.36,1.65-6.88,1.65c-5.52,0-10.59-1.49-10.59-1.49l-2.5-16.67" style="fill: #f2b18f; stroke-width: 0px;"/>
            </g>
            <path d="M591.9,269.27s5.07,10.56,1,30.76c2.07,45.1,7.47,105.74,7.47,105.74l-30.97-.11s-6.31-65.18-10.07-97.66c-4.18-36.18-6.8-80.49-6.8-80.49" style="fill: #0070e4; stroke-width: 0px;"/>
            <path d="M574.39,405.66s-6.31-65.18-10.07-97.66" style="fill: none; stroke: #0b2e6b; stroke-miterlimit: 10; stroke-width: .75px;"/>
            <path d="M532.76,271.29s-3.29,47.55-3.29,70.37-1.47,64.11-1.47,64.11h31.3l11.65-107.93c9.54-11.43,8.84-36.22,6.54-45.87l-31.04-8.48-13.7,27.8Z" style="fill: #0070e4; stroke-width: 0px;"/>
            <path d="M564.56,357.1l6.4-59.27c8-8.92,8-20.18,8-20.18" style="fill: none; stroke: #0b2e6b; stroke-miterlimit: 10; stroke-width: .75px;"/>
            <line x1="539.3" y1="266.51" x2="531.89" y2="405.77" style="fill: none; stroke: #0b2e6b; stroke-miterlimit: 10; stroke-width: .75px;"/>
            <line x1="559.86" y1="279.06" x2="575.06" y2="279.36" style="fill: none; stroke: #0b2e6b; stroke-miterlimit: 10; stroke-width: .75px;"/>
            <line x1="585.9" y1="278.58" x2="591.68" y2="278.46" style="fill: none; stroke: #0b2e6b; stroke-miterlimit: 10; stroke-width: .75px;"/>
          </g>
          <g>
            <path d="M506.37,198.85c-4.24-4.8-15.63-23.06-16.91-22.77-1.28.29,2.17,5.94,1.07,5.98-1.09.04-6.99-8.29-8.19-7.67-1.63.85,4.86,9.07,4.86,9.07,0,0-2.54-3.49-3.74-2.34-.85.81-.4,2.52,1.36,5.41-1.18-1.48-2.3-1.74-3.16-.87-.86.86,0,2.43,1.05,4.02-.83-1.04-2.05-1.57-2.36-.48-.41,1.42,3.04,8.79,11.19,20.81" style="fill: #f886bc; stroke-width: 0px;"/>
            <path d="M567.78,179.67s17.94.75,23.32,21.17c2.43,9.2,3.99,72.32,3.99,72.32l-65.54-.44s.87-57.06,2.34-69.42c2.68-22.58,20.46-23.99,20.46-23.99,0,0,.81,2,7.76,2s7.69-1.64,7.69-1.64Z" style="fill: #d8cac0; stroke-width: 0px;"/>
            <path d="M567.78,179.67c21.29,0,34.4,29.24,34.4,29.24l-13.39,6.72" style="fill: #d8cac0; stroke-width: 0px;"/>
            <path d="M539.66,221.16s-11.36,16.35-20.53,17.24c-12.33,1.19-34.26-39.85-34.26-39.85l13.84-9.35,18.95,23.83,6.46-9.66" style="fill: #f886bc; stroke-width: 0px;"/>
            <path d="M552.33,179.32c-18.33,1.01-31.75,28.31-31.75,28.31l21.46,15.41,12.18-15.89" style="fill: #d8cac0; stroke-width: 0px;"/>
            <line x1="541.3" y1="222.5" x2="551.68" y2="208.99" style="fill: none; stroke: #846a6a; stroke-miterlimit: 10; stroke-width: .75px;"/>
            <path d="M592.9,213.58c-1.19-8.59-4.11-15.92-4.11-15.92" style="fill: none; stroke: #846a6a; stroke-miterlimit: 10; stroke-width: .75px;"/>
          </g>
          <path d="M551.41,160.73s-2.95,1.42-2.8,1.96c.15.54,1.03,1.85,1.03,1.85" style="fill: #f886bc; stroke-width: 0px;"/>
          <line x1="528.01" y1="398.98" x2="559.86" y2="398.98" style="fill: none; stroke: #0b2e6b; stroke-miterlimit: 10; stroke-width: .75px;"/>
          <line x1="568.74" y1="399.25" x2="599.72" y2="399.25" style="fill: none; stroke: #0b2e6b; stroke-miterlimit: 10; stroke-width: .75px;"/>
        </g>
      </g>
    </g>
  </g>
</svg>