<?xml version="1.0" encoding="UTF-8"?>
<svg id="_Слой_1" data-name="Слой 1" xmlns="http://www.w3.org/2000/svg" viewBox="0 0 2881.01 1470.75">
  <path d="M185.22,1467.15s-348.38-349.55-58.92-728c256.83-335.78,556.27-312.83,775.96-176.56,93.57,58.04,363.34,7.15,592.95-334.52,313.12-465.94,1398.53-183.35,1200.63,533.52-95.77,346.91,291.47,359.52,94.16,706.29l-2604.78-.73Z" style="fill: #ebf3fa; stroke-width: 0px;"/>
  <g>
    <g>
      <path d="M1738.84,1320.51c0-.2,1.1-22.77-9.81-27.97l.77-.74c5,1.74,10.53,7.14,12.75,14.75,1.65,5.66.4,6.9.4,7.11l-4.11,6.84Z" style="fill: #a4c8fc; stroke-width: 0px;"/>
      <g>
        <path d="M1666.55,1262.02s3.73,29.06,21.45,37.56c17.72,8.5,42.72-6.76,42.72-6.76,0,0-3.73-29.06-21.45-37.56-17.72-8.51-42.72,6.76-42.72,6.76Z" style="fill: #a4c8fc; stroke-width: 0px;"/>
        <path d="M1736.98,1362.86c-.21-1.14-4.14-27.72,5.92-57.34,9.67-28.46,4.31-52.6,4.27-52.84h7.11c.18,1.03.68,24.72-6.9,57.18-6.82,29.21,5.91,53,3.2,53h-13.61Z" style="fill: #a4c8fc; stroke-width: 0px;"/>
        <path d="M1751.92,1284.38c.04-.15,3.43-19.63,12.57-21.84h0c-4.08.53-9.27,3.46-12.17,8.9-2.16,4.05-1.4,5.19-1.44,5.35l1.05,7.59Z" style="fill: #a4c8fc; stroke-width: 0px;"/>
      </g>
      <path d="M1781.23,1286.39c-13.66-2.76-21.28-22.07-21.28-22.07,0,0,14.52-14.84,28.17-12.09,13.66,2.76,21.28,22.07,21.28,22.07,0,0-14.52,14.84-28.17,12.09Z" style="fill: #a4c8fc; stroke-width: 0px;"/>
      <g>
        <path d="M1675.16,1223.45c-21.74-33.01-12.61-77.41,20.41-99.15,33.02-21.74,77.41-12.61,99.15,20.41,21.74,33.01,12.61,77.41-20.41,99.15-33.02,21.74-77.41,12.61-99.15-20.41Z" style="fill: #ffb93e; stroke-width: 0px;"/>
        <path d="M1771.27,1239.26c-14.55,9.58-31.96,12.92-49.02,9.41-17.06-3.51-31.74-13.46-41.32-28.01-9.58-14.55-12.92-31.96-9.41-49.02,3.51-17.06,13.46-31.74,28.01-41.32,14.55-9.58,31.96-12.92,49.02-9.41,17.06,3.51,31.74,13.46,41.32,28.01,9.58,14.55,12.92,31.96,9.41,49.02-3.51,17.06-13.46,31.74-28.01,41.32ZM1701.67,1133.57c-28.24,18.6-36.08,56.71-17.48,84.95,18.6,28.24,56.71,36.08,84.95,17.49,28.24-18.6,36.08-56.71,17.49-84.95-18.6-28.24-56.71-36.08-84.95-17.49Z" style="fill: #ffa412; stroke-width: 0px;"/>
        <path d="M1753.31,1195.66c-.63-1.27-1.37-2.29-2.21-3.08-.84-.79-1.86-1.37-3.07-1.75-1.21-.38-2.61-.58-4.23-.6-1.61-.02-3.5.12-5.67.41-3.74.48-7.21.75-10.42.83-3.21.08-6.14-.22-8.79-.89-2.65-.67-5.02-1.82-7.12-3.45-2.09-1.63-3.88-3.92-5.36-6.88-1.28-2.56-2-5.13-2.15-7.69-.15-2.56.23-5.05,1.13-7.47.9-2.41,2.29-4.7,4.15-6.86,1.86-2.16,4.19-4.11,6.97-5.84l-4.85-9.68,7.79-3.9,4.92,9.81c2.97-1.04,5.88-1.56,8.71-1.59,2.83-.02,5.49.46,7.97,1.44,2.48.98,4.76,2.47,6.83,4.47,2.08,2,3.87,4.5,5.38,7.52l-14.07,7.05c-1.81-3.62-3.97-5.92-6.48-6.91-2.5-.99-5.11-.81-7.8.54-1.46.73-2.62,1.57-3.47,2.5-.85.94-1.44,1.93-1.77,2.98-.33,1.05-.41,2.14-.25,3.27.16,1.13.52,2.25,1.08,3.37.56,1.12,1.23,2.04,2,2.79.78.74,1.76,1.3,2.94,1.67,1.18.37,2.6.57,4.25.59,1.65.02,3.64-.09,5.95-.35,3.74-.4,7.21-.63,10.41-.69,3.2-.05,6.13.26,8.79.95,2.66.69,5.03,1.84,7.13,3.47,2.09,1.63,3.87,3.91,5.34,6.83,1.33,2.65,2.06,5.27,2.19,7.84.13,2.58-.26,5.05-1.18,7.44-.92,2.38-2.34,4.64-4.25,6.77-1.92,2.13-4.27,4.06-7.05,5.8l4.51,9-7.74,3.88-4.48-8.95c-2.83,1.08-5.73,1.79-8.7,2.15-2.97.36-5.85.17-8.65-.56-2.8-.73-5.43-2.1-7.9-4.1-2.47-2.01-4.61-4.82-6.42-8.44l14.07-7.05c1.07,2.14,2.27,3.78,3.58,4.91,1.32,1.13,2.69,1.88,4.13,2.23,1.44.36,2.88.39,4.34.09,1.46-.3,2.85-.78,4.18-1.44,1.53-.76,2.77-1.63,3.72-2.6.96-.97,1.65-2,2.08-3.08.43-1.08.6-2.2.52-3.34-.09-1.14-.41-2.27-.97-3.39Z" style="fill: #ffa412; stroke-width: 0px;"/>
      </g>
    </g>
    <polygon points="1808.51 1355.94 1808.5 1356 1807.08 1377.93 1801.78 1459.34 1702.71 1459.34 1696.88 1379.04 1695.27 1356.91 1695.2 1355.94 1808.51 1355.94" style="fill: #b4c9f7; stroke-width: 0px;"/>
    <path d="M1808.5,1356l-1.43,21.93c-7.46-2.6-28.2-8.85-55.23-8.85-34.12,0-54.98,9.96-54.98,9.96l-1.61-22.13,113.24-.91Z" style="fill: #9bb8ea; stroke-width: 0px;"/>
    <polygon points="1811.95 1367.53 1691.61 1367.53 1690.23 1353.54 1813.48 1353.54 1811.95 1367.53" style="fill: #b4c9f7; stroke-width: 0px;"/>
    <polygon points="1803.3 1463.69 1700.58 1463.69 1699.41 1458.81 1804.61 1458.81 1803.3 1463.69" style="fill: #b4c9f7; stroke-width: 0px;"/>
  </g>
  <rect y="1463.11" width="2881.01" height="7.64" rx="3.26" ry="3.26" style="fill: #2e3552; stroke-width: 0px;"/>
  <g>
    <g>
      <path d="M2423.63,939.48l-9.62,7.81s-26.31-9.44-32.25,21.83c0,0-1.58,13.33,6.86,13.35,8.44.02,4.96-1.46,16.91-1.11,11.95.35,21.86-5.95,23.61-15.65l5.72-8.22-11.23-18.02Z" style="fill: #ea8e50; stroke-width: 0px;"/>
      <path d="M2424.72,956.25c-7.67-8.01-7.06-13.94-7.06-13.94,0,0,88.86-72.75,97.87-78.68,6.14-4.04,71.58-62.06,102.17-97.42,15.17-17.54,33.97-10.74,55.47-4.57l17.71,5.08c21.38,6.13,26.94,36.04,9.4,50.57-49.41,40.93-131.61,86.97-147,96.64-38.18,24.02-112.92,52.56-112.92,52.56,0,0-9.07-3.37-15.66-10.25Z" style="fill: #1e3d70; stroke-width: 0px;"/>
    </g>
    <path d="M2323.31,1403.22s-21.57,16.16-54.61,7.62c0,0-26.64-6.07-32.49,7.22,0,0,40.86,20.76,51.2,26.43,7.79,4.28,15.93,11.03,21.67,16.25,4.55,4.13,11.64,3.57,15.52-1.2,1.8-2.21,3.85-4.84,6.11-7.9,6.3-8.54,20.98-36.12,20.98-36.12l-28.38-12.31Z" style="fill: #233862; stroke-width: 0px;"/>
    <g>
      <circle cx="2418.57" cy="812.95" r="150.78" transform="translate(1286.43 3099.56) rotate(-82.24)" style="fill: #e2810e; stroke-width: 0px;"/>
      <circle cx="2431.73" cy="812.95" r="150.78" transform="translate(137.4 1957.6) rotate(-45)" style="fill: #ffb93e; stroke-width: 0px;"/>
      <path d="M2334.59,911.87c-25.95-25.95-40.24-60.44-40.24-97.14s14.29-71.19,40.24-97.14c25.95-25.95,60.44-40.24,97.14-40.24s71.19,14.29,97.14,40.24c25.95,25.95,40.24,60.44,40.24,97.14s-14.29,71.19-40.24,97.14c-25.95,25.95-60.44,40.24-97.14,40.24s-71.19-14.29-97.14-40.24ZM2302.55,814.73c0,71.23,57.95,129.18,129.18,129.18s129.18-57.95,129.18-129.18-57.95-129.18-129.18-129.18-129.18,57.95-129.18,129.18Z" style="fill: #ffa412; stroke-width: 0px;"/>
      <path d="M2415.04,861.68c1.17,2.11,2.77,3.87,4.78,5.28,2.02,1.41,4.43,2.41,7.23,3.01,2.81.6,5.99.68,9.56.26,3.12-.37,6.12-1.14,9.03-2.3,2.9-1.17,5.41-2.9,7.53-5.18,2.12-2.29,3.68-5.19,4.68-8.71,1.01-3.52,1.21-7.78.62-12.79l32.92-3.91c1,8.46.5,15.89-1.52,22.28-2.01,6.39-5.06,11.85-9.14,16.38-4.08,4.53-8.94,8.2-14.58,11.01-5.63,2.81-11.56,4.91-17.79,6.29l2.49,20.95-18.11,2.15-2.5-21.05c-6.91.18-13.29-.5-19.12-2.02-5.84-1.52-10.95-3.85-15.32-6.98-4.37-3.13-7.94-7.03-10.69-11.71-2.75-4.68-4.49-10.12-5.23-16.33-.81-6.84-.32-12.91,1.48-18.2,1.8-5.29,4.64-10.08,8.52-14.37,3.88-4.29,8.67-8.23,14.36-11.84,5.69-3.61,12.06-7.22,19.1-10.85,4.36-2.23,7.98-4.33,10.86-6.28,2.89-1.95,5.16-3.94,6.8-5.96,1.65-2.02,2.73-4.13,3.23-6.34.51-2.21.61-4.61.3-7.22-.31-2.61-.98-5-2-7.17-1.03-2.17-2.44-3.98-4.23-5.46-1.79-1.47-3.98-2.53-6.56-3.19-2.58-.66-5.58-.79-9-.38-6.3.75-11.08,3.45-14.35,8.09-3.26,4.64-4.39,11.2-3.38,19.66l-32.92,3.91c-.84-7.05-.58-13.54.75-19.46,1.34-5.92,3.62-11.18,6.85-15.78,3.23-4.6,7.35-8.53,12.35-11.77,5.01-3.24,10.72-5.67,17.15-7.29l-2.72-22.96,18.22-2.16,2.69,22.64c6.91-.18,13.25.56,19.03,2.19,5.78,1.64,10.86,4.06,15.24,7.26,4.38,3.2,7.93,7.14,10.64,11.83,2.71,4.69,4.42,10.03,5.13,16.02.82,6.91.33,13.02-1.47,18.31-1.8,5.29-4.64,10.06-8.52,14.32-3.88,4.25-8.69,8.17-14.43,11.75-5.73,3.58-12.17,7.11-19.3,10.61-4.15,1.99-7.64,3.95-10.45,5.85-2.81,1.91-5.06,3.89-6.74,5.95-1.68,2.06-2.8,4.27-3.37,6.62-.57,2.36-.68,5.01-.32,7.98.31,2.61,1.05,4.97,2.23,7.09Z" style="fill: #ffa412; stroke-width: 0px;"/>
    </g>
    <path d="M2310.66,1395.01s13.13,30.28,43.44,24.71c0,0,61.85-51.08,104.28-104.14,13.78-17.24,25.51-34.68,32.41-50.64,28.13-65.14,104.07-162.29,152.35-211.53l-120.79-43.7s-38.69,77.83-90.17,173.43c-37.1,68.88-80.83,146.99-121.51,211.87Z" style="fill: #2b478b; stroke-width: 0px;"/>
    <path d="M2432.17,1183.14l26.21,132.44c13.78-17.24,25.51-34.68,32.41-50.64,28.13-65.14,104.07-162.29,152.35-211.53l-120.79-43.7s-38.69,77.83-90.17,173.43Z" style="fill: #233862; stroke-width: 0px;"/>
    <path d="M2530.91,1420.79s1.32,24.16-27.97,27.38c0,0-16.74.09-16.78,15.46l85.13.27s2.47-6.2,3.07-19.49c.46-10.2-9.89-36.87-9.89-36.87l-33.55,13.24Z" style="fill: #233862; stroke-width: 0px;"/>
    <path d="M2561.96,1009.71s-53.81,59.13-87.97,165.66c-18.59,57.96,34.06,203.69,44.33,254.32,0,0,35.32,3,59.47-6.34,0,0,1.84-104.58-12.29-185.18-7.9-45.11,70.85-96.47,105.27-177.98,23.41-55.45-5.07-54.51-40.07-55.84l-68.73,5.36Z" style="fill: #2b478b; stroke-width: 0px;"/>
    <path d="M2624.08,745.91c29.94,16.91,91.23,1.31,91.23,1.31,0,0-24.89-28.46-13.58-74.29l-23.51,11.94-25.25,12.82s-1.63,8.09-2.77,22.63c-.29,3.74-.55,7.93-.73,12.5-15.37,4.66-25.4,13.08-25.4,13.08Z" style="fill: #ffb07b; stroke-width: 0px;"/>
    <path d="M2514.29,1006.66c0,5.26,6.06,7.78,7.35,8.04,12.08,2.21,45.79,15.32,76.17,18.33,25.58,2.68,49.32.14,75.41-5.1,3.46-.7,11.56-2.88,12.14-6.19.72-3.62,100.62-203.66,22.96-289.6-1.82-2.02-17.15,1.62-31.17,4.94-12.95,3.07-24.82,1.36-35.43-2.9l-13.15,6.92c-16.15,9-46.7,40.96-50.27,66.04-1.82,12.76-9.11,22.2-11.22,33.42-.78,4.15-1.58,8.21-2.4,12.16-1.59,7.75-3.23,15.12-4.92,22.14-4.57,18.97-9.39,35.3-14.12,49.41-5.04,14.98-9.98,27.44-14.4,37.86-5.73,13.52-10.56,23.62-13.59,31.35-2.14,5.45-3.36,9.72-3.36,13.18Z" style="fill: #d2e3fc; stroke-width: 0px;"/>
    <path d="M2517.65,993.48c141.03-66.44,189.87-194.03,189.87-194.03,0,0-114.58,42.27-142.84,53.27-1.59,7.75-3.23,15.12-4.92,22.14-4.57,18.97-9.39,35.3-14.12,49.41-5.04,14.98-9.98,27.44-14.4,37.86-5.73,13.52-10.56,23.62-13.59,31.35Z" style="fill: #a4c8fc; stroke-width: 0px;"/>
    <g>
      <path d="M2435.14,954.97l-12.19,4.47s-24.4-17.26-39.6,10.81c0,0-5.5,12.26,3.2,14.92,8.7,2.66,5.54.16,17.76,4.23,12.23,4.07,24.27,1.14,28.89-7.6l8.28-6.08-6.36-20.75Z" style="fill: #ffb07b; stroke-width: 0px;"/>
      <path d="M2425.11,972.21c-4.51-11.76-6.56-17.08-6.56-17.08,0,0,92.08-75.06,101.47-81.5,6.39-4.39,70.05-51.97,101.08-89.05,15.39-18.39,39.67-26.8,63.14-21.88l19.33,4.05c23.34,4.89,30.92,34.44,12.82,49.96-50.99,43.72-137,94.42-153.04,104.97-39.81,26.18-127.87,62.87-127.87,62.87,0,0-6.83-3.12-10.37-12.35Z" style="fill: #d2e3fc; stroke-width: 0px;"/>
    </g>
    <path d="M2650.21,720.33c29.44,1.65,48.59-22.65,48.59-22.65,0,0-13.31-7.37-20.57-12.8l-25.25,12.82s-1.63,8.09-2.77,22.63Z" style="fill: #ea8e50; stroke-width: 0px;"/>
    <path d="M2637.66,690.1s44.61,32.01,64.12,3.93c19.51-28.09,38.41-42.87,10.75-64.5-27.66-21.63-40.7-14.79-49.49-7-8.79,7.79-36.48,58.53-25.38,67.58Z" style="fill: #ffb07b; stroke-width: 0px;"/>
    <path d="M2658.33,597.16c1.6-10.8,5.2-18.39,5.2-18.39,0,0,2.8,11.6,23.99,10,21.19-1.6,54.78,2.08,65.98,26.23.71,1.54,1.35,3.12,1.91,4.74,2.03-5.35,2.51-13.38,2.51-13.38,4.03,10.4,0,23.4,0,23.4h0c.06.38.11.76.17,1.14,4.68,3.95,8.61,16.25,8.61,16.25-1.41-3.43-4.86-5.67-7.92-7.04.09,18.79-7.53,37.16-20.9,42.63-19.56,8-19.4,1.9-39.08,14.94,0,0-5.28-6.55-1.68-10.95,3.6-4.4,17.19-10.8,9.6-17.19-7.6-6.4-10.4.8-13.2-3.6-2.8-4.4,11.2-17.19-6.8-29.19-17.99-12-29.99-28.79-28.39-39.59Z" style="fill: #233862; stroke-width: 0px;"/>
  </g>
  <g>
    <g>
      <g>
        <g>
          <path d="M737.56,1439.04v17.42c0,1.39-.5,2.68-1.37,3.75-.91,1.13-2.22,2.02-3.75,2.51-.47.16-.96.27-1.46.34-.46.07-.93.11-1.41.11h-330.52c-4.26,0-7.77-2.84-7.99-6.37,0-.11,0-.23,0-.34v-17.42c0-.12,0-.23,0-.35.22-3.53,3.73-6.37,7.99-6.37h330.52c.48,0,.95.04,1.41.11.5.07.99.19,1.46.34,1.53.5,2.84,1.38,3.75,2.51.87,1.07,1.37,2.36,1.37,3.75Z" style="fill: #ffb93e; stroke-width: 0px;"/>
          <path d="M575.26,1463.18h-177.07c-3.8,0-6.94-2.84-7.13-6.37,0-.11,0-.23,0-.34v-17.42c0-.12,0-.23,0-.35.19-3.53,3.33-6.37,7.13-6.37h155.33c2.48,9.08,8.26,21.65,21.74,30.86Z" style="fill: #ffa412; stroke-width: 0px;"/>
          <g>
            <rect x="693.58" y="1432.33" width="3.76" height="30.86" style="fill: #ffa412; stroke-width: 0px;"/>
            <rect x="680.87" y="1432.33" width="3.76" height="30.86" style="fill: #ffa412; stroke-width: 0px;"/>
            <rect x="665.62" y="1432.33" width="3.76" height="30.86" style="fill: #ffa412; stroke-width: 0px;"/>
            <rect x="642.25" y="1432.33" width="3.76" height="30.86" style="fill: #ffa412; stroke-width: 0px;"/>
            <rect x="617.53" y="1432.33" width="3.76" height="30.86" style="fill: #ffa412; stroke-width: 0px;"/>
            <rect x="579.64" y="1432.33" width="3.76" height="30.86" style="fill: #ffa412; stroke-width: 0px;"/>
            <rect x="544.16" y="1432.33" width="3.76" height="30.86" style="fill: #ffa412; stroke-width: 0px;"/>
            <rect x="512.48" y="1432.33" width="3.76" height="30.86" style="fill: #ffa412; stroke-width: 0px;"/>
            <rect x="705.69" y="1432.33" width="3.76" height="30.86" style="fill: #ffa412; stroke-width: 0px;"/>
            <rect x="713.68" y="1432.33" width="3.76" height="30.86" style="fill: #ffa412; stroke-width: 0px;"/>
            <rect x="721.4" y="1432.33" width="3.76" height="30.86" style="fill: #ffa412; stroke-width: 0px;"/>
            <path d="M730.97,1432.44v30.64c-.46.07-.93.11-1.41.11h-2.35v-30.86h2.35c.48,0,.95.04,1.41.11Z" style="fill: #ffa412; stroke-width: 0px;"/>
            <path d="M736.19,1435.29v24.92c-.91,1.13-2.22,2.02-3.75,2.51v-29.95c1.53.5,2.84,1.38,3.75,2.51Z" style="fill: #ffa412; stroke-width: 0px;"/>
          </g>
        </g>
        <g>
          <path d="M702.22,1408.19v17.42c0,1.39-.5,2.68-1.37,3.75-.91,1.13-2.22,2.02-3.75,2.51-.47.16-.96.27-1.46.34-.46.07-.93.11-1.41.11h-330.52c-4.26,0-7.77-2.84-7.99-6.37,0-.12,0-.23,0-.34v-17.42c0-.12,0-.23,0-.35.22-3.53,3.73-6.37,7.99-6.37h330.52c.21,0,.42,0,.63.02.09,0,.18.01.27.02.1,0,.2.02.3.03.07,0,.14.02.21.03.5.07,1,.19,1.46.35.07.02.14.04.21.07.07.02.14.05.2.07.13.05.27.11.4.16.08.03.15.07.23.11.07.03.14.06.2.1.13.06.25.13.38.2.14.08.28.17.41.26.11.07.21.14.31.21,0,0,.01,0,.02.02.07.05.14.1.2.15.2.16.4.33.58.5.06.05.11.1.16.16.05.05.1.11.15.16.1.11.2.23.3.34.87,1.07,1.37,2.36,1.37,3.75Z" style="fill: #ffb93e; stroke-width: 0px;"/>
          <path d="M539.92,1432.33h-177.07c-3.81,0-6.94-2.84-7.13-6.37,0-.12,0-.23,0-.34v-17.42c0-.12,0-.23,0-.35.19-3.53,3.32-6.37,7.13-6.37h155.32c.07.25.14.5.22.76,2.59,9.01,8.42,21.14,21.53,30.09Z" style="fill: #ffa412; stroke-width: 0px;"/>
          <g>
            <rect x="658.24" y="1401.47" width="3.76" height="30.86" style="fill: #ffa412; stroke-width: 0px;"/>
            <rect x="645.53" y="1401.47" width="3.76" height="30.86" style="fill: #ffa412; stroke-width: 0px;"/>
            <rect x="630.28" y="1401.47" width="3.76" height="30.86" style="fill: #ffa412; stroke-width: 0px;"/>
            <rect x="606.91" y="1401.47" width="3.76" height="30.86" style="fill: #ffa412; stroke-width: 0px;"/>
            <rect x="582.19" y="1401.47" width="3.76" height="30.86" style="fill: #ffa412; stroke-width: 0px;"/>
            <rect x="544.3" y="1401.47" width="3.76" height="30.86" style="fill: #ffa412; stroke-width: 0px;"/>
            <rect x="508.82" y="1401.47" width="3.76" height="30.86" style="fill: #ffa412; stroke-width: 0px;"/>
            <rect x="477.15" y="1401.47" width="3.76" height="30.86" style="fill: #ffa412; stroke-width: 0px;"/>
            <rect x="670.35" y="1401.47" width="3.76" height="30.86" style="fill: #ffa412; stroke-width: 0px;"/>
            <rect x="678.34" y="1401.47" width="3.76" height="30.86" style="fill: #ffa412; stroke-width: 0px;"/>
            <rect x="686.06" y="1401.47" width="3.76" height="30.86" style="fill: #ffa412; stroke-width: 0px;"/>
            <path d="M695.63,1401.58v30.64c-.46.07-.93.11-1.41.11h-2.35v-30.86h2.35c.48,0,.95.04,1.41.11Z" style="fill: #ffa412; stroke-width: 0px;"/>
            <path d="M700.85,1404.44v24.92c-.91,1.13-2.22,2.02-3.75,2.51v-29.95c1.53.5,2.84,1.38,3.75,2.51Z" style="fill: #ffa412; stroke-width: 0px;"/>
          </g>
        </g>
        <g>
          <path d="M719.3,1378.09v17.42c0,1.39-.5,2.68-1.37,3.75-.91,1.13-2.22,2.02-3.75,2.51-.47.16-.96.27-1.46.34-.46.07-.93.11-1.41.11h-330.52c-1.33,0-2.58-.27-3.69-.76-2.34-1.03-4.01-3-4.27-5.31-.01-.1-.02-.2-.03-.3,0-.11,0-.23,0-.34v-17.42c0-.12,0-.23,0-.35.22-3.53,3.73-6.37,7.99-6.37h330.52c.48,0,.95.04,1.41.11.5.07.99.19,1.46.35,1.53.5,2.84,1.38,3.75,2.51.87,1.07,1.37,2.36,1.37,3.75Z" style="fill: #ffb93e; stroke-width: 0px;"/>
          <path d="M556.99,1402.23h-177.07c-1.18,0-2.3-.27-3.29-.76-2.09-1.03-3.58-3-3.81-5.31-.01-.1-.02-.2-.03-.3,0-.11,0-.23,0-.34v-17.42c0-.12,0-.23,0-.35.19-3.53,3.33-6.37,7.13-6.37h155.33c2.41,8.83,7.95,20.96,20.66,30.09.36.26.72.51,1.09.76Z" style="fill: #ffa412; stroke-width: 0px;"/>
          <g>
            <rect x="675.32" y="1371.38" width="3.76" height="30.86" style="fill: #ffa412; stroke-width: 0px;"/>
            <rect x="662.61" y="1371.38" width="3.76" height="30.86" style="fill: #ffa412; stroke-width: 0px;"/>
            <rect x="647.36" y="1371.38" width="3.76" height="30.86" style="fill: #ffa412; stroke-width: 0px;"/>
            <rect x="623.98" y="1371.38" width="3.76" height="30.86" style="fill: #ffa412; stroke-width: 0px;"/>
            <rect x="599.27" y="1371.38" width="3.76" height="30.86" style="fill: #ffa412; stroke-width: 0px;"/>
            <rect x="561.38" y="1371.38" width="3.76" height="30.86" style="fill: #ffa412; stroke-width: 0px;"/>
            <rect x="525.9" y="1371.38" width="3.76" height="30.86" style="fill: #ffa412; stroke-width: 0px;"/>
            <rect x="494.22" y="1371.38" width="3.76" height="30.86" style="fill: #ffa412; stroke-width: 0px;"/>
            <rect x="687.42" y="1371.38" width="3.76" height="30.86" style="fill: #ffa412; stroke-width: 0px;"/>
            <rect x="695.42" y="1371.38" width="3.76" height="30.86" style="fill: #ffa412; stroke-width: 0px;"/>
            <rect x="703.14" y="1371.38" width="3.76" height="30.86" style="fill: #ffa412; stroke-width: 0px;"/>
            <path d="M712.71,1371.48v30.64c-.46.07-.93.11-1.41.11h-2.35v-30.86h2.35c.48,0,.95.04,1.41.11Z" style="fill: #ffa412; stroke-width: 0px;"/>
            <path d="M717.93,1374.34v24.92c-.91,1.13-2.22,2.02-3.75,2.51v-29.95c1.53.5,2.84,1.38,3.75,2.51Z" style="fill: #ffa412; stroke-width: 0px;"/>
          </g>
        </g>
        <g>
          <path d="M727.21,1347.24v17.43c0,1.39-.5,2.68-1.37,3.75-.91,1.13-2.22,2.02-3.75,2.51-.47.16-.96.27-1.46.35-.46.07-.93.11-1.41.11h-330.52c-4.26,0-7.77-2.84-7.99-6.37,0-.12,0-.23,0-.34v-17.43c0-.12,0-.23,0-.34.2-3.27,3.22-5.94,7.04-6.32.31-.03.62-.05.95-.05h330.52c.48,0,.95.04,1.41.11.5.07.99.19,1.46.35,1.53.5,2.84,1.38,3.75,2.51.87,1.07,1.37,2.36,1.37,3.75Z" style="fill: #ffb93e; stroke-width: 0px;"/>
          <path d="M564.91,1371.38h-177.07c-3.8,0-6.94-2.84-7.13-6.37,0-.12,0-.23,0-.34v-17.43c0-.12,0-.23,0-.34.18-3.27,2.87-5.94,6.29-6.32.27-.03.56-.05.84-.05h155.33s0,.03.01.05c2.49,9.08,8.27,21.61,21.73,30.81Z" style="fill: #ffa412; stroke-width: 0px;"/>
          <g>
            <rect x="683.24" y="1340.52" width="3.76" height="30.85" style="fill: #ffa412; stroke-width: 0px;"/>
            <rect x="670.52" y="1340.52" width="3.76" height="30.85" style="fill: #ffa412; stroke-width: 0px;"/>
            <rect x="655.27" y="1340.52" width="3.76" height="30.85" style="fill: #ffa412; stroke-width: 0px;"/>
            <rect x="631.9" y="1340.52" width="3.76" height="30.85" style="fill: #ffa412; stroke-width: 0px;"/>
            <rect x="607.19" y="1340.52" width="3.76" height="30.85" style="fill: #ffa412; stroke-width: 0px;"/>
            <rect x="569.29" y="1340.52" width="3.76" height="30.85" style="fill: #ffa412; stroke-width: 0px;"/>
            <rect x="533.82" y="1340.52" width="3.76" height="30.85" style="fill: #ffa412; stroke-width: 0px;"/>
            <rect x="502.14" y="1340.52" width="3.76" height="30.85" style="fill: #ffa412; stroke-width: 0px;"/>
            <rect x="695.34" y="1340.52" width="3.76" height="30.85" style="fill: #ffa412; stroke-width: 0px;"/>
            <rect x="703.34" y="1340.52" width="3.76" height="30.85" style="fill: #ffa412; stroke-width: 0px;"/>
            <rect x="711.06" y="1340.52" width="3.76" height="30.85" style="fill: #ffa412; stroke-width: 0px;"/>
            <path d="M720.63,1340.63v30.64c-.46.07-.93.11-1.41.11h-2.35v-30.86h2.35c.48,0,.95.04,1.41.11Z" style="fill: #ffa412; stroke-width: 0px;"/>
            <path d="M725.84,1343.49v24.92c-.91,1.13-2.22,2.02-3.75,2.51v-29.95c1.53.5,2.84,1.38,3.75,2.51Z" style="fill: #ffa412; stroke-width: 0px;"/>
          </g>
        </g>
        <g>
          <path d="M702.91,1316.43v17.42c0,1.39-.5,2.68-1.37,3.75-.91,1.13-2.22,2.02-3.75,2.51-.47.16-.96.27-1.46.34-.15.02-.31.04-.46.06-.08,0-.17.01-.26.02-.08,0-.17.01-.26.01-.14,0-.28.01-.42.01h-330.52c-4.26,0-7.77-2.84-7.99-6.37,0-.12,0-.23,0-.34v-17.42c0-.12,0-.23,0-.35,0-.1.01-.19.02-.28.32-2.84,2.78-5.19,5.99-5.88.08-.02.16-.03.24-.05.56-.1,1.14-.16,1.73-.16h330.52c.24,0,.48.01.72.03.11.01.21.02.32.03h0c.12.01.25.03.37.05.5.07.99.19,1.46.35,1.53.5,2.84,1.38,3.75,2.51.87,1.07,1.37,2.36,1.37,3.75Z" style="fill: #ffb93e; stroke-width: 0px;"/>
          <path d="M540.61,1340.57h-177.07c-3.8,0-6.94-2.84-7.13-6.37,0-.12,0-.23,0-.34v-17.42c0-.12,0-.23,0-.35,0-.1.01-.19.02-.28.29-2.91,2.57-5.29,5.54-5.92.1-.03.2-.05.31-.06.41-.07.83-.11,1.26-.11h155.33c.02.07.04.14.06.22,2.51,9.05,8.29,21.46,21.61,30.59.02.01.05.03.07.05Z" style="fill: #ffa412; stroke-width: 0px;"/>
          <g>
            <rect x="658.94" y="1309.71" width="3.76" height="30.86" style="fill: #ffa412; stroke-width: 0px;"/>
            <rect x="646.22" y="1309.71" width="3.76" height="30.86" style="fill: #ffa412; stroke-width: 0px;"/>
            <rect x="630.97" y="1309.71" width="3.76" height="30.86" style="fill: #ffa412; stroke-width: 0px;"/>
            <rect x="607.6" y="1309.71" width="3.76" height="30.86" style="fill: #ffa412; stroke-width: 0px;"/>
            <rect x="582.89" y="1309.71" width="3.76" height="30.86" style="fill: #ffa412; stroke-width: 0px;"/>
            <rect x="545" y="1309.71" width="3.76" height="30.86" style="fill: #ffa412; stroke-width: 0px;"/>
            <rect x="509.52" y="1309.71" width="3.76" height="30.86" style="fill: #ffa412; stroke-width: 0px;"/>
            <rect x="477.84" y="1309.71" width="3.76" height="30.86" style="fill: #ffa412; stroke-width: 0px;"/>
            <rect x="671.04" y="1309.71" width="3.76" height="30.86" style="fill: #ffa412; stroke-width: 0px;"/>
            <rect x="679.04" y="1309.71" width="3.76" height="30.86" style="fill: #ffa412; stroke-width: 0px;"/>
            <rect x="686.76" y="1309.71" width="3.76" height="30.86" style="fill: #ffa412; stroke-width: 0px;"/>
            <path d="M696.33,1309.82v30.64c-.46.07-.93.11-1.41.11h-2.35v-30.86h2.35c.48,0,.95.04,1.41.11Z" style="fill: #ffa412; stroke-width: 0px;"/>
            <path d="M701.54,1312.68v24.92c-.91,1.13-2.22,2.02-3.75,2.51v-29.95c1.53.5,2.84,1.38,3.75,2.51Z" style="fill: #ffa412; stroke-width: 0px;"/>
          </g>
        </g>
        <g>
          <path d="M702.22,1285.79v17.42c0,1.39-.5,2.68-1.37,3.75-.91,1.13-2.22,2.02-3.75,2.51-.37.12-.75.22-1.14.29h0c-.11.02-.21.04-.31.06-.46.07-.93.11-1.41.11h-330.52c-.35,0-.7-.02-1.03-.06-.13-.01-.27-.03-.39-.05-3.59-.54-6.37-3.13-6.56-6.26,0-.12,0-.23,0-.34v-17.42c0-.12,0-.23,0-.35.22-3.53,3.73-6.37,7.99-6.37h330.52c.21,0,.42,0,.63.02.09,0,.18.01.27.02.1,0,.2.02.3.03.07,0,.14.02.21.03.5.07,1,.19,1.46.35.07.02.14.04.21.07.07.02.14.05.2.07.14.05.27.11.4.16.15.07.29.13.43.21.13.06.25.13.38.2.14.08.28.17.41.26.11.07.21.14.31.21,0,0,.01,0,.02.02.07.05.14.1.2.15.2.16.4.33.58.5.06.05.11.1.16.16.05.06.1.11.15.16.1.11.2.23.3.34.87,1.07,1.37,2.36,1.37,3.75Z" style="fill: #ffb93e; stroke-width: 0px;"/>
          <path d="M539.92,1309.93h-177.07c-.14,0-.28,0-.42-.01-.15,0-.31-.02-.46-.04-3.4-.39-6.08-3.06-6.25-6.32,0-.12,0-.23,0-.34v-17.42c0-.12,0-.23,0-.35.19-3.53,3.32-6.37,7.13-6.37h155.32c.07.25.14.5.22.76,2.57,8.94,8.32,20.94,21.21,29.88.11.07.21.14.32.22Z" style="fill: #ffa412; stroke-width: 0px;"/>
          <g>
            <rect x="658.24" y="1279.08" width="3.76" height="30.85" style="fill: #ffa412; stroke-width: 0px;"/>
            <rect x="645.53" y="1279.08" width="3.76" height="30.85" style="fill: #ffa412; stroke-width: 0px;"/>
            <rect x="630.28" y="1279.08" width="3.76" height="30.85" style="fill: #ffa412; stroke-width: 0px;"/>
            <rect x="606.91" y="1279.08" width="3.76" height="30.85" style="fill: #ffa412; stroke-width: 0px;"/>
            <rect x="582.19" y="1279.08" width="3.76" height="30.85" style="fill: #ffa412; stroke-width: 0px;"/>
            <rect x="544.3" y="1279.08" width="3.76" height="30.85" style="fill: #ffa412; stroke-width: 0px;"/>
            <rect x="508.82" y="1279.08" width="3.76" height="30.85" style="fill: #ffa412; stroke-width: 0px;"/>
            <rect x="477.15" y="1279.08" width="3.76" height="30.85" style="fill: #ffa412; stroke-width: 0px;"/>
            <rect x="670.35" y="1279.08" width="3.76" height="30.85" style="fill: #ffa412; stroke-width: 0px;"/>
            <rect x="678.34" y="1279.08" width="3.76" height="30.85" style="fill: #ffa412; stroke-width: 0px;"/>
            <rect x="686.06" y="1279.08" width="3.76" height="30.85" style="fill: #ffa412; stroke-width: 0px;"/>
            <path d="M695.63,1279.19v30.64c-.46.07-.93.11-1.41.11h-2.35v-30.86h2.35c.48,0,.95.04,1.41.11Z" style="fill: #ffa412; stroke-width: 0px;"/>
            <path d="M700.85,1282.04v24.92c-.91,1.13-2.22,2.02-3.75,2.51v-29.95c1.53.5,2.84,1.38,3.75,2.51Z" style="fill: #ffa412; stroke-width: 0px;"/>
          </g>
        </g>
        <g>
          <path d="M719.3,1255.7v17.42c0,1.39-.5,2.68-1.37,3.75-.91,1.13-2.22,2.02-3.75,2.51-.47.16-.96.27-1.46.34-.46.07-.93.11-1.41.11h-330.52c-1.33,0-2.58-.27-3.69-.76-2.34-1.03-4.01-3-4.27-5.31-.01-.1-.02-.2-.03-.3,0-.11,0-.23,0-.34v-17.42c0-.12,0-.23,0-.35.22-3.53,3.73-6.37,7.99-6.37h330.52c.48,0,.95.04,1.41.11.5.07.99.19,1.46.35,1.53.5,2.84,1.38,3.75,2.51.87,1.07,1.37,2.36,1.37,3.75Z" style="fill: #ffb93e; stroke-width: 0px;"/>
          <path d="M556.99,1279.84h-177.07c-1.18,0-2.3-.27-3.29-.76-2.09-1.03-3.58-3-3.81-5.31-.01-.1-.02-.2-.03-.3,0-.11,0-.23,0-.34v-17.42c0-.12,0-.23,0-.35.19-3.53,3.33-6.37,7.13-6.37h155.33c2.41,8.83,7.95,20.96,20.66,30.09.36.26.72.51,1.09.76Z" style="fill: #ffa412; stroke-width: 0px;"/>
          <g>
            <rect x="675.32" y="1248.98" width="3.76" height="30.86" style="fill: #ffa412; stroke-width: 0px;"/>
            <rect x="662.61" y="1248.98" width="3.76" height="30.86" style="fill: #ffa412; stroke-width: 0px;"/>
            <rect x="647.36" y="1248.98" width="3.76" height="30.86" style="fill: #ffa412; stroke-width: 0px;"/>
            <rect x="623.98" y="1248.98" width="3.76" height="30.86" style="fill: #ffa412; stroke-width: 0px;"/>
            <rect x="599.27" y="1248.98" width="3.76" height="30.86" style="fill: #ffa412; stroke-width: 0px;"/>
            <rect x="561.38" y="1248.98" width="3.76" height="30.86" style="fill: #ffa412; stroke-width: 0px;"/>
            <rect x="525.9" y="1248.98" width="3.76" height="30.86" style="fill: #ffa412; stroke-width: 0px;"/>
            <rect x="494.22" y="1248.98" width="3.76" height="30.86" style="fill: #ffa412; stroke-width: 0px;"/>
            <rect x="687.42" y="1248.98" width="3.76" height="30.86" style="fill: #ffa412; stroke-width: 0px;"/>
            <rect x="695.42" y="1248.98" width="3.76" height="30.86" style="fill: #ffa412; stroke-width: 0px;"/>
            <rect x="703.14" y="1248.98" width="3.76" height="30.86" style="fill: #ffa412; stroke-width: 0px;"/>
            <path d="M712.71,1249.09v30.64c-.46.07-.93.11-1.41.11h-2.35v-30.86h2.35c.48,0,.95.04,1.41.11Z" style="fill: #ffa412; stroke-width: 0px;"/>
            <path d="M717.93,1251.95v24.92c-.91,1.13-2.22,2.02-3.75,2.51v-29.95c1.53.5,2.84,1.38,3.75,2.51Z" style="fill: #ffa412; stroke-width: 0px;"/>
          </g>
        </g>
        <g>
          <path d="M746.3,1224.84v17.43c0,1.39-.5,2.68-1.37,3.75-.91,1.13-2.22,2.02-3.75,2.51-.47.16-.96.27-1.46.35-.46.07-.93.11-1.41.11h-330.52c-4.26,0-7.77-2.84-7.99-6.37,0-.12,0-.23,0-.34v-17.43c0-.11,0-.23,0-.34.2-3.27,3.22-5.94,7.04-6.32.31-.03.63-.05.95-.05h330.52c.48,0,.95.04,1.41.11.5.07.99.19,1.46.35,1.53.5,2.84,1.38,3.75,2.51.87,1.07,1.37,2.36,1.37,3.75Z" style="fill: #ffb93e; stroke-width: 0px;"/>
          <path d="M584,1248.98h-177.07c-3.8,0-6.94-2.84-7.13-6.37,0-.12,0-.23,0-.34v-17.43c0-.11,0-.23,0-.34.18-3.27,2.87-5.94,6.29-6.32.27-.03.56-.05.84-.05h155.33s0,.03.01.05c2.49,9.08,8.27,21.61,21.73,30.81Z" style="fill: #ffa412; stroke-width: 0px;"/>
          <g>
            <rect x="702.33" y="1218.13" width="3.76" height="30.86" style="fill: #ffa412; stroke-width: 0px;"/>
            <rect x="689.62" y="1218.13" width="3.76" height="30.86" style="fill: #ffa412; stroke-width: 0px;"/>
            <rect x="674.37" y="1218.13" width="3.76" height="30.86" style="fill: #ffa412; stroke-width: 0px;"/>
            <rect x="651" y="1218.13" width="3.76" height="30.86" style="fill: #ffa412; stroke-width: 0px;"/>
            <rect x="626.28" y="1218.13" width="3.76" height="30.86" style="fill: #ffa412; stroke-width: 0px;"/>
            <rect x="588.39" y="1218.13" width="3.76" height="30.86" style="fill: #ffa412; stroke-width: 0px;"/>
            <rect x="552.91" y="1218.13" width="3.76" height="30.86" style="fill: #ffa412; stroke-width: 0px;"/>
            <rect x="521.23" y="1218.13" width="3.76" height="30.86" style="fill: #ffa412; stroke-width: 0px;"/>
            <rect x="714.44" y="1218.13" width="3.76" height="30.86" style="fill: #ffa412; stroke-width: 0px;"/>
            <rect x="722.43" y="1218.13" width="3.76" height="30.86" style="fill: #ffa412; stroke-width: 0px;"/>
            <rect x="730.15" y="1218.13" width="3.76" height="30.86" style="fill: #ffa412; stroke-width: 0px;"/>
            <path d="M739.72,1218.23v30.64c-.46.07-.93.11-1.41.11h-2.35v-30.86h2.35c.48,0,.95.04,1.41.11Z" style="fill: #ffa412; stroke-width: 0px;"/>
            <path d="M744.94,1221.09v24.92c-.91,1.13-2.22,2.02-3.75,2.51v-29.95c1.53.5,2.84,1.38,3.75,2.51Z" style="fill: #ffa412; stroke-width: 0px;"/>
          </g>
        </g>
        <g>
          <path d="M702.91,1194.04v17.42c0,1.39-.5,2.68-1.37,3.75-.91,1.13-2.22,2.02-3.75,2.51-.47.16-.96.27-1.46.34-.15.02-.31.04-.46.06-.12.01-.25.02-.37.03-.06,0-.12,0-.19.01-.13,0-.26,0-.39,0h-330.52c-4.26,0-7.77-2.84-7.99-6.37,0-.12,0-.23,0-.34v-17.42c0-.12,0-.23,0-.35.22-3.53,3.73-6.37,7.99-6.37h330.52c.14,0,.28,0,.42.01.34.02.66.05.99.1.5.07.99.19,1.46.35.24.08.47.16.69.26.14.06.28.12.41.19.01,0,.03.01.04.02.14.07.27.14.4.21.03.01.05.03.07.04.12.07.24.14.36.22.28.18.55.37.8.58.08.06.15.13.23.2.01.01.03.02.04.04.05.04.09.08.14.13,0,0,.02.02.03.03.08.08.16.16.23.25.11.12.22.24.32.36.87,1.07,1.37,2.36,1.37,3.75Z" style="fill: #ffb93e; stroke-width: 0px;"/>
          <path d="M540.61,1218.18h-177.07c-3.8,0-6.94-2.84-7.13-6.37,0-.12,0-.23,0-.34v-17.42c0-.12,0-.23,0-.35.19-3.53,3.33-6.37,7.13-6.37h155.33c.06.23.13.47.2.71,2.58,9,8.39,21.13,21.47,30.09.02.01.05.03.07.05Z" style="fill: #ffa412; stroke-width: 0px;"/>
          <g>
            <rect x="658.94" y="1187.32" width="3.76" height="30.86" style="fill: #ffa412; stroke-width: 0px;"/>
            <rect x="646.22" y="1187.32" width="3.76" height="30.86" style="fill: #ffa412; stroke-width: 0px;"/>
            <rect x="630.97" y="1187.32" width="3.76" height="30.86" style="fill: #ffa412; stroke-width: 0px;"/>
            <rect x="607.6" y="1187.32" width="3.76" height="30.86" style="fill: #ffa412; stroke-width: 0px;"/>
            <rect x="582.89" y="1187.32" width="3.76" height="30.86" style="fill: #ffa412; stroke-width: 0px;"/>
            <rect x="545" y="1187.32" width="3.76" height="30.86" style="fill: #ffa412; stroke-width: 0px;"/>
            <rect x="509.52" y="1187.32" width="3.76" height="30.86" style="fill: #ffa412; stroke-width: 0px;"/>
            <rect x="477.84" y="1187.32" width="3.76" height="30.86" style="fill: #ffa412; stroke-width: 0px;"/>
            <rect x="671.04" y="1187.32" width="3.76" height="30.86" style="fill: #ffa412; stroke-width: 0px;"/>
            <rect x="679.04" y="1187.32" width="3.76" height="30.86" style="fill: #ffa412; stroke-width: 0px;"/>
            <rect x="686.76" y="1187.32" width="3.76" height="30.86" style="fill: #ffa412; stroke-width: 0px;"/>
            <path d="M696.33,1187.43v30.64c-.46.07-.93.11-1.41.11h-2.35v-30.86h2.35c.48,0,.95.04,1.41.11Z" style="fill: #ffa412; stroke-width: 0px;"/>
            <path d="M701.54,1190.29v24.92c-.91,1.13-2.22,2.02-3.75,2.51v-29.95c1.53.5,2.84,1.38,3.75,2.51Z" style="fill: #ffa412; stroke-width: 0px;"/>
          </g>
        </g>
        <g>
          <path d="M727.21,1163.89v17.43c0,1.39-.5,2.68-1.37,3.75-.91,1.13-2.22,2.02-3.75,2.51-.47.16-.96.27-1.46.35-.46.07-.93.11-1.41.11h-330.52c-1.28,0-2.5-.26-3.57-.71-2.41-1.01-4.13-3.03-4.39-5.38,0-.09-.02-.18-.02-.27,0-.12,0-.23,0-.34v-17.43c0-.12,0-.23,0-.34.2-3.27,3.22-5.94,7.04-6.32.31-.03.62-.05.95-.05h330.52c.48,0,.95.04,1.41.11.5.07.99.19,1.46.34,1.53.5,2.84,1.38,3.75,2.51.87,1.07,1.37,2.36,1.37,3.75Z" style="fill: #ffb93e; stroke-width: 0px;"/>
          <path d="M564.91,1188.03h-177.07c-1.14,0-2.23-.26-3.19-.71-2.15-1.01-3.69-3.03-3.92-5.38,0-.09-.02-.18-.02-.27,0-.12,0-.23,0-.34v-17.43c0-.12,0-.23,0-.34.18-3.27,2.87-5.94,6.29-6.32.27-.03.56-.05.84-.05h155.33s0,.03.01.05c2.42,8.85,7.98,20.97,20.71,30.09.33.24.67.48,1.02.71Z" style="fill: #ffa412; stroke-width: 0px;"/>
          <g>
            <rect x="683.24" y="1157.18" width="3.76" height="30.86" style="fill: #ffa412; stroke-width: 0px;"/>
            <rect x="670.52" y="1157.18" width="3.76" height="30.86" style="fill: #ffa412; stroke-width: 0px;"/>
            <rect x="655.27" y="1157.18" width="3.76" height="30.86" style="fill: #ffa412; stroke-width: 0px;"/>
            <rect x="631.9" y="1157.18" width="3.76" height="30.86" style="fill: #ffa412; stroke-width: 0px;"/>
            <rect x="607.19" y="1157.18" width="3.76" height="30.86" style="fill: #ffa412; stroke-width: 0px;"/>
            <rect x="569.29" y="1157.18" width="3.76" height="30.86" style="fill: #ffa412; stroke-width: 0px;"/>
            <rect x="533.82" y="1157.18" width="3.76" height="30.86" style="fill: #ffa412; stroke-width: 0px;"/>
            <rect x="502.14" y="1157.18" width="3.76" height="30.86" style="fill: #ffa412; stroke-width: 0px;"/>
            <rect x="695.34" y="1157.18" width="3.76" height="30.86" style="fill: #ffa412; stroke-width: 0px;"/>
            <rect x="703.34" y="1157.18" width="3.76" height="30.86" style="fill: #ffa412; stroke-width: 0px;"/>
            <rect x="711.06" y="1157.18" width="3.76" height="30.86" style="fill: #ffa412; stroke-width: 0px;"/>
            <path d="M720.63,1157.28v30.64c-.46.07-.93.11-1.41.11h-2.35v-30.86h2.35c.48,0,.95.04,1.41.11Z" style="fill: #ffa412; stroke-width: 0px;"/>
            <path d="M725.84,1160.14v24.92c-.91,1.13-2.22,2.02-3.75,2.51v-29.95c1.53.5,2.84,1.38,3.75,2.51Z" style="fill: #ffa412; stroke-width: 0px;"/>
          </g>
        </g>
        <g>
          <path d="M737.56,1133.08v17.43c0,1.39-.5,2.68-1.37,3.75-.91,1.13-2.22,2.02-3.75,2.51-.47.16-.96.27-1.46.35-.15.02-.31.04-.46.06-.08,0-.17.01-.26.02-.08,0-.17.01-.26.01-.14,0-.28.01-.42.01h-330.52c-4.26,0-7.77-2.84-7.99-6.37,0-.12,0-.23,0-.34v-17.43c0-.12,0-.23,0-.34.22-3.53,3.73-6.37,7.99-6.37h330.52c.48,0,.95.04,1.41.11.5.07.99.19,1.46.35,1.53.5,2.84,1.38,3.75,2.51.87,1.07,1.37,2.36,1.37,3.75Z" style="fill: #ffb93e; stroke-width: 0px;"/>
          <path d="M575.26,1157.22h-177.07c-3.8,0-6.94-2.84-7.13-6.37,0-.12,0-.23,0-.34v-17.43c0-.12,0-.23,0-.34.19-3.53,3.33-6.37,7.13-6.37h155.33c2.48,9.07,8.24,21.6,21.67,30.81.02.01.05.03.07.05Z" style="fill: #ffa412; stroke-width: 0px;"/>
          <g>
            <rect x="693.58" y="1126.37" width="3.76" height="30.86" style="fill: #ffa412; stroke-width: 0px;"/>
            <rect x="680.87" y="1126.37" width="3.76" height="30.86" style="fill: #ffa412; stroke-width: 0px;"/>
            <rect x="665.62" y="1126.37" width="3.76" height="30.86" style="fill: #ffa412; stroke-width: 0px;"/>
            <rect x="642.25" y="1126.37" width="3.76" height="30.86" style="fill: #ffa412; stroke-width: 0px;"/>
            <rect x="617.53" y="1126.37" width="3.76" height="30.86" style="fill: #ffa412; stroke-width: 0px;"/>
            <rect x="579.64" y="1126.37" width="3.76" height="30.86" style="fill: #ffa412; stroke-width: 0px;"/>
            <rect x="544.16" y="1126.37" width="3.76" height="30.86" style="fill: #ffa412; stroke-width: 0px;"/>
            <rect x="512.48" y="1126.37" width="3.76" height="30.86" style="fill: #ffa412; stroke-width: 0px;"/>
            <rect x="705.69" y="1126.37" width="3.76" height="30.86" style="fill: #ffa412; stroke-width: 0px;"/>
            <rect x="713.68" y="1126.37" width="3.76" height="30.86" style="fill: #ffa412; stroke-width: 0px;"/>
            <rect x="721.4" y="1126.37" width="3.76" height="30.86" style="fill: #ffa412; stroke-width: 0px;"/>
            <path d="M730.97,1126.48v30.64c-.46.07-.93.11-1.41.11h-2.35v-30.86h2.35c.48,0,.95.04,1.41.11Z" style="fill: #ffa412; stroke-width: 0px;"/>
            <path d="M736.19,1129.33v24.92c-.91,1.13-2.22,2.02-3.75,2.51v-29.95c1.53.5,2.84,1.38,3.75,2.51Z" style="fill: #ffa412; stroke-width: 0px;"/>
          </g>
        </g>
      </g>
      <g>
        <circle cx="371.88" cy="1306.18" r="157.08" transform="translate(-814.69 645.53) rotate(-45)" style="fill: #e2810e; stroke-width: 0px;"/>
        <circle cx="358.18" cy="1306.18" r="157.08" transform="translate(-818.7 635.84) rotate(-45)" style="fill: #ffb93e; stroke-width: 0px;"/>
        <path d="M358.18,1451.15c-38.23,0-74.17-14.89-101.2-41.92-27.03-27.03-41.92-62.97-41.92-101.2s14.89-74.17,41.92-101.2c27.03-27.03,62.97-41.92,101.2-41.92s74.17,14.89,101.2,41.92c27.03,27.03,41.92,62.97,41.92,101.2s-14.89,74.17-41.92,101.2c-27.03,27.03-62.97,41.92-101.2,41.92ZM358.18,1173.46c-74.21,0-134.58,60.37-134.58,134.58s60.37,134.58,134.58,134.58,134.58-60.37,134.58-134.58-60.37-134.58-134.58-134.58Z" style="fill: #ffa412; stroke-width: 0px;"/>
        <path d="M377.88,1349.57c.37-3.09.25-5.86-.34-8.31-.59-2.46-1.76-4.76-3.51-6.9-1.75-2.15-4.09-4.21-7.03-6.2-2.93-1.99-6.56-4.02-10.89-6.1-7.43-3.64-14.13-7.32-20.11-11.05-5.98-3.73-10.99-7.81-15.03-12.24-4.05-4.43-7.01-9.4-8.88-14.91-1.87-5.51-2.38-11.87-1.53-19.07.74-6.25,2.52-11.81,5.35-16.69,2.82-4.88,6.52-8.99,11.09-12.32,4.57-3.33,9.86-5.85,15.88-7.56,6.02-1.71,12.63-2.47,19.83-2.29l2.8-23.59,18.99,2.25-2.84,23.92c6.7,1.69,12.65,4.22,17.87,7.6,5.21,3.38,9.5,7.46,12.87,12.26,3.36,4.8,5.74,10.28,7.13,16.44,1.39,6.16,1.65,12.92.78,20.27l-34.29-4.07c1.05-8.82-.13-15.65-3.53-20.48-3.4-4.83-8.38-7.65-14.95-8.42-3.56-.42-6.69-.29-9.37.4-2.69.68-4.97,1.79-6.83,3.32-1.87,1.53-3.34,3.42-4.4,5.68-1.07,2.26-1.77,4.75-2.09,7.47-.32,2.72-.22,5.23.31,7.52.53,2.3,1.65,4.5,3.37,6.61,1.71,2.1,4.08,4.17,7.08,6.21,3.01,2.03,6.78,4.21,11.32,6.54,7.33,3.78,13.97,7.54,19.9,11.3,5.93,3.76,10.92,7.87,14.96,12.34,4.04,4.47,7,9.46,8.87,14.97,1.87,5.51,2.39,11.84,1.54,18.96-.77,6.47-2.58,12.14-5.45,17.01-2.87,4.88-6.58,8.95-11.14,12.2-4.56,3.26-9.88,5.69-15.97,7.27-6.08,1.59-12.73,2.29-19.92,2.11l-2.6,21.94-18.87-2.24,2.59-21.83c-6.49-1.44-12.67-3.63-18.54-6.56-5.87-2.93-10.93-6.75-15.19-11.47-4.25-4.71-7.43-10.4-9.53-17.06-2.1-6.66-2.62-14.4-1.58-23.21l34.29,4.07c-.62,5.22-.41,9.66.65,13.32,1.05,3.67,2.67,6.69,4.88,9.08,2.2,2.39,4.82,4.19,7.84,5.4,3.02,1.22,6.16,2.01,9.4,2.4,3.72.44,7.04.35,9.96-.27,2.92-.62,5.43-1.67,7.53-3.13,2.1-1.46,3.76-3.3,4.98-5.5,1.22-2.2,2-4.66,2.32-7.38Z" style="fill: #ffa412; stroke-width: 0px;"/>
      </g>
    </g>
    <g>
      <path d="M647.02,1090.5c-16.08,27.99-36.31,38.8-36.31,38.8h-84.16s132.75-60.16,120.48-38.8Z" style="fill: #233862; stroke-width: 0px;"/>
      <g>
        <path d="M582.38,1307.09c-2.19,2.51-2.47,5.32-1.39,8.32,0,.01,0,.03.02.04,2.01,5.55,8.64,11.74,16.34,17.93.98.79,1.86,1.52,2.62,2.19.2.18.4.35.59.53.16.14.3.28.45.41,7.18,6.62,4.48,8.14,17.39,21.58,14.72,15.31,24.85,15.59,27.73,14.19,2.44-1.19-2.52-9.31-8-18.44-.27-.44-.53-.89-.8-1.33-.73-1.21-1.46-2.45-2.18-3.67-6.43-10.98-4.78-16.14-3.26-32.49,1.24-13.28,20.67-74.21,20.67-74.21l-28.2-4.86s-8.49,48.52-17.85,55.99c-5,3.98-10.6,4.03-15.41,6.98-.34.2-.67.42-1,.63-2.73,1.81-5.52,3.68-7.72,6.2Z" style="fill: #ffb27d; stroke-width: 0px;"/>
        <path d="M582.38,1307.09c-2.19,2.51-2.47,5.32-1.39,8.32,0,.01,0,.03.02.04,2.46,5.54,8.92,11.7,16.37,17.87.97.81,1.83,1.55,2.6,2.24.2.18.4.35.59.53.16.14.3.28.45.41,7.18,6.62,4.48,8.14,17.39,21.58,14.72,15.31,24.85,15.59,27.73,14.19,2.44-1.19-2.52-9.31-8-18.44-2.87-1.05-16.17-6.46-26.23-19.33-8.86-11.31-14.77-25.83-20.8-34.25-.34.2-.67.42-1,.63-2.73,1.81-5.52,3.68-7.72,6.2Z" style="fill: #233862; stroke-width: 0px;"/>
        <path d="M809.77,1289.48c1.74,8.7,14.15,7.25,28.01,3.87,13.86-3.39,10.57.64,30.3-1.54,19.73-2.18,25.71-9.54,26.31-12.47.54-2.6-9.21-3.52-19.67-4.73-1.31-.15-2.64-.31-3.96-.47-11.81-1.48-20.45-9.1-31.17-15.36-10.16-5.93-25.32-30.07-25.32-30.07l-27.06,2.14s14.2,21.57,19.69,30.94c3.23,5.51,3.06,12.81,2.66,18.44-.21,3.06-.41,6.19.21,9.26Z" style="fill: #ffb27d; stroke-width: 0px;"/>
        <path d="M837.78,1293.34c13.86-3.39,10.57.64,30.3-1.54,19.73-2.18,25.71-9.54,26.31-12.47.54-2.6-9.21-3.52-19.67-4.73l-.1.2s-11.83,8.39-28.25,8.78c-13.38.33-27.56-3.51-36.81-3.36-.21,3.06-.41,6.19.21,9.26,1.74,8.7,14.15,7.25,28.01,3.87Z" style="fill: #233862; stroke-width: 0px;"/>
        <path d="M706.08,1116.47l-25.29,68.06-33.02,88.87s-8.96.87-17.54-1.6c-7.9-2.28-16.97-8.26-16.97-8.26,0,0,9.17-95.42,26.27-150.19,4.38-14.06,9.3-25.43,14.72-31.83,26.52-31.34,51.83,34.96,51.83,34.96Z" style="fill: #233862; stroke-width: 0px;"/>
        <path d="M680.37,1008.38c-16.57-5.34-63.83,1.52-111.31,10.81l-9.94-16.4-102.54-8.01s-33.84,75.04-15.31,122.85c2.72,7.03,9.46,9.99,18.68,10.14,0,0,0,0,.01.01,0,0,61.19,1.49,81.01,1.49,51,0,107.93-35.06,115.29-36.53,12.05-2.41,16.88,21.7,28.93,47.01,12.05,25.31,113.31,112.11,113.31,112.11,0,0,15.56.15,21.99-2.26,6.91-2.59,9.44-5.96,9.44-5.96,0,0-112.2-223.23-149.57-235.28Z" style="fill: #2b478b; stroke-width: 0px;"/>
        <path d="M548.22,701.67c-7.69-4.58-15.18-5.24-19.72-5.09-3.27.11-6.55-.21-9.79-.64-38.86-5.22-62.25,51.24-63.62,68.35-2.54,31.54-19.22,36.34-42.7,56.09-47.08,39.6-33.28,85.62-7.53,102.71,15.45,10.26,42.68,0,42.68,0,.38.27,74.46-41.41,110.98-61.52,54.74-7.78,11.7-146.81-10.29-159.9Z" style="fill: #233862; stroke-width: 0px;"/>
        <path d="M527.91,844.46c.16.1-17.97,6.29-30.09.92-11.4-5.04-20.04-23.8-19.87-23.81,5.19-.24,10.88-4.77,15.27-34.53l2.21.79,37.14,13.36s-2.69,11.92-4.43,23.26c-1.47,9.53-2.25,18.65-.22,20Z" style="fill: #ffb27d; stroke-width: 0px;"/>
        <path d="M532.57,801.2s-2.69,11.92-4.43,23.26c-21.33-3.84-29.7-25.09-32.71-36.62l37.14,13.36Z" style="fill: #ed975d; stroke-width: 0px;"/>
        <path d="M538.1,813.03s-50.81-6.82-46.08-38.4c4.73-31.58,1.36-53.73,34.01-50.71,32.64,3.02,37.12,16.01,38.11,26.94s-12.7,63.13-26.04,62.17Z" style="fill: #ffb27d; stroke-width: 0px;"/>
        <path d="M562.28,733.55s-32.53,28.03-54.65,30.29c-22.12,2.26-30.5-4.84-30.5-4.84,0,0,13.04-10.83,20.89-28.3,2.31-5.15,7.2-8.69,12.83-9.17,15.8-1.36,45.75-1.99,51.44,12.02Z" style="fill: #233862; stroke-width: 0px;"/>
        <path d="M541.95,731.04s10.88,10.52,14.31,18.33c3.31,7.53,4.3,25.54,1.66,32.7,0,0,16.95-32.97,7.36-48.98-10.18-16.98-23.33-2.04-23.33-2.04Z" style="fill: #233862; stroke-width: 0px;"/>
        <path d="M570.7,919.32c-1.54,102.86-.42,81.36-11.67,91.12-2.71,2.35-10.33,3.75-20.36,4.41-31.54,2.09-86.98-3.1-89.09-8.93-7.27-20.17-2.14-26.43-8.21-57.31-.63-3.28-1.42-6.84-2.33-10.71-5.06-21.21-9.99-28.42,7.97-62.49,16.28-30.86,33.2-55.91,34.72-55,42.96,25.5,46.42,4.07,46.42,4.07,0,0,43.32,44.67,42.56,94.84Z" style="fill: #fff; stroke-width: 0px;"/>
        <path d="M680.79,1184.53l-33.02,88.87s-8.96.87-17.54-1.6c-7.9-2.28-16.97-8.26-16.97-8.26,0,0,9.17-95.42,26.27-150.19l41.26,71.19Z" style="fill: #2b478b; stroke-width: 0px;"/>
        <path d="M528.13,824.47s44.2,7.49,49.39,26.53c5.19,19.03,35.73,130.91,35.73,130.91,0,0-22.47,4.04-32.85-6.34-10.38-10.38-36.12-96.31-36.12-96.31l-16.15-54.78Z" style="fill: #fff; stroke-width: 0px;"/>
        <path d="M538.66,1014.85c-31.54,2.09-86.98-3.1-89.09-8.93-7.27-20.17-2.14-26.43-8.21-57.31l15.21-42.84s-2.52,47.7,11.55,60.25c14.05,12.55,57.6,24.22,64.43,34.7,3.3,5.03,5.47,10.08,6.1,14.13Z" style="fill: #ebf3ff; stroke-width: 0px;"/>
        <path d="M502.52,994.79s31.12-6.93,36.14-4.17c5.02,2.76,17.29,12.82,18.83,16.32,1.54,3.5-11.18-2.66-15.31-3.77-2.68-.72-9.73,1.73-13.22,2.89-14.69,4.89-23.68,2.38-23.68,2.38l-2.75-13.66Z" style="fill: #ffb27d; stroke-width: 0px;"/>
        <path d="M481.69,820.38s-41.78,2.57-56.24,22.75c-20.36,28.4-60.75,149.41-37.6,165.55,26.07,18.18,118.64,4.75,118.64,4.75,0,0,3.08-14.4-1.21-21.36-4.29-6.96-73.94-18.22-77.15-21.43-3.21-3.21,40.18-62.69,40.18-72.33s13.38-77.93,13.38-77.93Z" style="fill: #fff; stroke-width: 0px;"/>
        <path d="M540.17,999.28s6.52,8.41,8.66,9.41,3.52.75,3.52.75l-4.39-7.91-7.78-2.26Z" style="fill: #ffb27d; stroke-width: 0px;"/>
        <path d="M538.66,990.62l18.96,9.21s-.81,1.32-3.14,1.21c-2.33-.11-8.22-2.26-8.22-2.26l-7.59-8.16Z" style="fill: #ffb27d; stroke-width: 0px;"/>
      </g>
      <g>
        <g>
          <polygon points="548.82 1021.58 698.76 1021.58 743.87 909.42 594.16 909.42 548.82 1021.58" style="fill: #f99746; stroke-width: 0px;"/>
          <polygon points="700.52 1017.21 502.52 1017.21 502.52 1021.58 698.76 1021.58 700.52 1017.21" style="fill: #ed7d2b; stroke-width: 0px;"/>
        </g>
        <path d="M660.91,965.5c1.13-3.94-1.15-7.14-5.09-7.14s-8.06,3.2-9.19,7.14c-1.13,3.94,1.15,7.14,5.09,7.14s8.06-3.2,9.19-7.14Z" style="fill: #fff; stroke-width: 0px;"/>
      </g>
    </g>
  </g>
  <g>
    <g>
      <path d="M1409.22,1032.32c-.02-.6,3.31-68.61-29.55-84.26l2.32-2.23c15.05,5.26,31.73,21.5,38.41,44.44,4.96,17.05,1.19,20.79,1.21,21.44l-12.39,20.61Z" style="fill: #a4c8fc; stroke-width: 0px;"/>
      <g>
        <path d="M1323.42,897.62s-3.75,34.98,14.57,49.86c18.33,14.88,51.79,4.02,51.79,4.02,0,0,3.75-34.98-14.57-49.86-18.33-14.88-51.79-4.02-51.79-4.02Z" style="fill: #a4c8fc; stroke-width: 0px;"/>
        <path d="M1403.61,1159.9c-.62-3.42-12.47-83.52,17.84-172.78,29.12-85.76,13-158.47,12.87-159.19h21.43c.55,3.11,2.04,74.48-20.78,172.28-20.54,88.01,17.82,159.68,9.65,159.68h-41.01Z" style="fill: #a4c8fc; stroke-width: 0px;"/>
        <path d="M1448.62,923.45c.11-.46,10.34-59.14,37.86-65.82h0c-12.3,1.6-27.93,10.41-36.67,26.81-6.5,12.19-4.22,15.65-4.34,16.13l3.16,22.87Z" style="fill: #a4c8fc; stroke-width: 0px;"/>
      </g>
      <path d="M1338.48,767.8s-29.68-41.91-63.4-54.22c0,0,12.61,98.31-5.83,99.52-18.44,1.22-6.15-110.56-6.15-110.56,0,0-87.82-48.76-123.49-47.41,0,0,50.49,98.23,32.32,94.87-18.17-3.36-75.46-103.14-75.46-103.14,0,0-91.65-22.59-109.74,31.45-18.09,54.04,4.33,82.9,17.85,87.14,13.53,4.24,101.68,8.25,98.72,19.56-2.96,11.31-63.52,26.12-96.09,13.88,0,0,31.31,92.52,79.63,90.75,48.31-1.76,64.93-30.63,94.8-31.18,29.88-.55,51.14,8.74,35.8,15.87-15.34,7.14-65.36-1.2-90.58,17.82-25.22,19.02-45.4,30.46-1.33,42.22,44.08,11.77,110.61-1.52,142.18-22.56.09-.06,25.85-2.11,46.13,117.13,7.82,45.97,1.81,114.16,1.81,114.16l16.36-2.49c9.08-133.66-39.16-244.77-39.16-244.77,0,0,81.84-60.51,45.63-128.06Z" style="fill: #a4c8fc; stroke-width: 0px;"/>
      <path d="M1606.14,944.19s-98.61-41.43-63.31-116.81c0,0,29.72-47.19,65.55-62.52,0,0-7.89,107.33,12.18,107.57,20.06.23.16-120.24.16-120.24,0,0,92.36-58.04,131.11-58.67,0,0-48.97,109.48-29.46,104.77,19.5-4.71,75.75-116.27,75.75-116.27,0,0,98.05-29.88,120.84,27.65,22.79,57.53.19,90.14-14.23,95.53-14.42,5.39-109.76,14.93-105.89,27.01,3.87,12.08,70.41,24.59,105,9.4,0,0-28.51,102.16-81,103.09-52.49.93-72.2-29.39-104.63-28.23-32.43,1.17-54.94,12.48-37.89,19.32,17.05,6.84,70.8-5.14,99.26,13.99,28.46,19.13,51.02,30.36,3.92,45.71s-134.35,18.96-155.86-16.17l-21.51-35.13Z" style="fill: #d2e3fc; stroke-width: 0px;"/>
      <g>
        <path d="M1875.31,733.4s-250.13,113.47-269.17,210.79c0,0,6,41.9-14.51,93.06l2.1,18.55s20.06-66.14,33.92-76.47c0,0-67.35-75.03,247.66-245.93Z" style="fill: #a4c8fc; stroke-width: 0px;"/>
        <path d="M1591.63,1037.25s-33.16,65.34-1.95,136.77l9.99-3.93s-19.23-80.39-2.92-123.77c16.31-43.37-5.12-9.07-5.12-9.07Z" style="fill: #a4c8fc; stroke-width: 0px;"/>
      </g>
      <path d="M1230.17,495.38c40.41,43.01,19.39,128.42,19.39,128.42,0,0-86.55,15.68-126.97-27.33-40.41-43.01-19.39-128.42-19.39-128.42,0,0,86.55-15.68,126.97,27.33Z" style="fill: #a4c8fc; stroke-width: 0px;"/>
      <path d="M1230.17,495.38c40.41,43.01,19.39,128.42,19.39,128.42l-146.36-155.74s86.55-15.68,126.97,27.33Z" style="fill: #d2e3fc; stroke-width: 0px;"/>
      <path d="M1751.4,659.19c-21.09,24.43-68.75,17.86-68.75,17.86,0,0-13.46-46.19,7.63-70.62,21.09-24.43,68.75-17.86,68.75-17.86,0,0,13.46,46.19-7.63,70.62Z" style="fill: #a4c8fc; stroke-width: 0px;"/>
      <path d="M1502.13,874.11c-14.14,3.92-30.5-10.58-30.5-10.58,0,0,6.56-20.86,20.7-24.78,14.14-3.92,30.5,10.58,30.5,10.58,0,0-6.56,20.86-20.69,24.78Z" style="fill: #a4c8fc; stroke-width: 0px;"/>
      <path d="M1252.46,415.62c9.69,22.98-11.19,53.73-11.19,53.73,0,0-36.6-6.51-46.29-29.49-9.69-22.98,11.2-53.73,11.2-53.73,0,0,36.6,6.51,46.29,29.49Z" style="fill: #a4c8fc; stroke-width: 0px;"/>
      <g>
        <circle cx="1447.08" cy="609.89" r="215.66" transform="translate(-7.42 1201.87) rotate(-45)" style="fill: #e2810e; stroke-width: 0px;"/>
        <circle cx="1428.41" cy="612.24" r="215.66" transform="translate(-14.55 1189.36) rotate(-45)" style="fill: #ffb93e; stroke-width: 0px;"/>
        <path d="M1453.28,809.72c-52.07,6.56-103.58-7.56-145.04-39.74-41.46-32.19-67.9-78.59-74.46-130.66-6.56-52.07,7.56-103.58,39.74-145.04,32.19-41.46,78.59-67.9,130.66-74.46,52.07-6.56,103.58,7.56,145.04,39.74,41.46,32.19,67.9,78.59,74.46,130.66,6.56,52.07-7.56,103.59-39.74,145.04-32.19,41.46-78.59,67.9-130.66,74.46ZM1405.65,431.45c-101.08,12.73-172.97,105.32-160.24,206.41,12.73,101.08,105.32,172.97,206.41,160.24,101.08-12.73,172.97-105.32,160.24-206.41-12.73-101.08-105.32-172.97-206.4-160.24Z" style="fill: #ffa412; stroke-width: 0px;"/>
        <path d="M1462.69,667.97c-.03-4.27-.66-8.02-1.89-11.26-1.23-3.24-3.22-6.18-5.97-8.8-2.75-2.62-6.3-5.04-10.63-7.24-4.34-2.2-9.63-4.35-15.88-6.44-10.75-3.68-20.51-7.55-29.29-11.6-8.78-4.05-16.31-8.75-22.58-14.09-6.27-5.34-11.16-11.6-14.65-18.79-3.5-7.19-5.28-15.76-5.35-25.72-.06-8.63,1.41-16.52,4.42-23.66,3.01-7.13,7.34-13.36,12.99-18.69,5.65-5.32,12.43-9.66,20.33-13.02,7.91-3.36,16.78-5.53,26.62-6.51l-.23-32.61,26.25-.19.24,33.07c9.41,1.15,17.96,3.58,25.65,7.28,7.68,3.7,14.22,8.54,19.63,14.49,5.4,5.96,9.58,13.02,12.54,21.17,2.96,8.16,4.47,17.32,4.54,27.48l-47.41.34c-.09-12.19-2.86-21.29-8.32-27.3-5.46-6-12.73-8.98-21.8-8.91-4.92.04-9.16.75-12.7,2.15-3.55,1.39-6.46,3.3-8.74,5.7-2.28,2.41-3.96,5.24-5.03,8.5-1.07,3.26-1.59,6.77-1.56,10.53.03,3.76.6,7.16,1.71,10.2,1.11,3.04,3.02,5.85,5.72,8.42,2.7,2.57,6.27,4.98,10.72,7.24,4.45,2.26,9.96,4.58,16.54,6.97,10.63,3.89,20.32,7.88,29.04,11.98,8.72,4.11,16.22,8.85,22.5,14.24,6.27,5.39,11.16,11.68,14.66,18.87,3.5,7.19,5.28,15.71,5.35,25.57.06,8.94-1.44,16.98-4.5,24.11-3.07,7.14-7.43,13.31-13.08,18.53-5.65,5.22-12.48,9.44-20.5,12.65-8.02,3.21-16.94,5.3-26.78,6.29l.22,30.33-26.09.19-.22-30.17c-9.09-.85-17.88-2.77-26.37-5.75-8.5-2.99-16.05-7.33-22.65-13.02-6.6-5.69-11.9-12.89-15.9-21.6-4-8.71-6.04-19.16-6.13-31.35l47.41-.34c.05,7.21,1.1,13.23,3.16,18.04,2.06,4.81,4.79,8.65,8.2,11.53,3.41,2.87,7.28,4.88,11.61,6.01,4.33,1.14,8.73,1.69,13.22,1.66,5.14-.04,9.65-.73,13.52-2.08,3.87-1.35,7.11-3.2,9.72-5.56,2.61-2.35,4.56-5.14,5.85-8.35,1.29-3.21,1.92-6.69,1.89-10.45Z" style="fill: #ffa412; stroke-width: 0px;"/>
      </g>
    </g>
    <g>
      <polygon points="1619.14 1139.07 1619.12 1139.24 1614.83 1205.31 1598.86 1450.59 1300.37 1450.59 1282.79 1208.67 1277.95 1141.99 1277.74 1139.07 1619.14 1139.07" style="fill: #739af0; stroke-width: 0px;"/>
      <path d="M1619.12,1139.24l-4.3,66.06c-22.49-7.84-84.98-26.65-166.39-26.65-102.81,0-165.65,30.01-165.65,30.01l-4.84-66.68,341.17-2.75Z" style="fill: #618dd8; stroke-width: 0px;"/>
      <polygon points="1629.51 1173.99 1266.92 1173.99 1262.76 1131.84 1634.12 1131.84 1629.51 1173.99" style="fill: #739af0; stroke-width: 0px;"/>
      <polygon points="1603.45 1463.69 1293.96 1463.69 1290.42 1449 1607.38 1449 1603.45 1463.69" style="fill: #618dd8; stroke-width: 0px;"/>
    </g>
  </g>
  <g>
    <g>
      <g>
        <path d="M1068.08,1327.04c-.28-1.54-5.61-37.57,8.03-77.72,13.1-38.58,5.85-71.28,5.79-71.61h9.64c.25,1.4.92,33.5-9.35,77.49-9.24,39.59,8.01,71.83,4.34,71.83h-18.45Z" style="fill: #a4c8fc; stroke-width: 0px;"/>
        <path d="M1088.32,1220.68c.05-.2,4.65-26.6,17.03-29.6h0c-5.53.72-12.56,4.68-16.49,12.06-2.92,5.48-1.9,7.04-1.95,7.26l1.42,10.29Z" style="fill: #a4c8fc; stroke-width: 0px;"/>
      </g>
      <path d="M1065.45,1214.51s-12.11-19.67-26.89-26.17c0,0,2.81,44.49-5.5,44.5-8.31.01.44-49.8.44-49.8,0,0-38.01-24.43-54.06-24.86,0,0,19.82,45.56,11.76,43.52-8.06-2.04-30.88-48.48-30.88-48.48,0,0-40.49-12.79-50.17,10.94-9.68,23.73-.46,37.34,5.49,39.63,5.95,2.29,45.4,6.65,43.75,11.64-1.66,4.99-29.27,9.89-43.53,3.45,0,0,11.38,42.43,33.11,43.04,21.74.61,30.03-11.87,43.46-11.25,13.43.62,22.7,5.4,15.61,8.16-7.09,2.76-29.3-2.43-41.17,5.38-11.87,7.8-21.26,12.36-1.82,18.91,19.44,6.56,49.69,2.52,64.47-6.01.04-.03,11.66-.2,17.31,53.91,2.18,20.86-2.5,51.29-2.5,51.29l7.42-.65c7.95-59.73-10.49-111-10.49-111,0,0,38.49-24.79,24.19-56.16Z" style="fill: #a4c8fc; stroke-width: 0px;"/>
      <path d="M1112.39,1198.49c-6.36,1.76-13.72-4.76-13.72-4.76,0,0,2.95-9.38,9.31-11.15,6.36-1.76,13.72,4.76,13.72,4.76,0,0-2.95,9.38-9.31,11.15Z" style="fill: #a4c8fc; stroke-width: 0px;"/>
      <g>
        <path d="M1185.55,1055.09c-22.21,14.54-22.02,54.11-22.02,54.11,0,0,36.19,15.99,58.4,1.44,22.21-14.54,22.02-54.11,22.02-54.11,0,0-36.19-15.99-58.4-1.44Z" style="fill: #a4c8fc; stroke-width: 0px;"/>
        <path d="M1185.55,1055.09c-22.21,14.54-22.02,54.11-22.02,54.11l80.42-52.67s-36.19-15.99-58.4-1.44Z" style="fill: #d2e3fc; stroke-width: 0px;"/>
        <path d="M1184.21,1017.86c-6.66,9.03-.77,24.67-.77,24.67,0,0,16.69,1.01,23.35-8.01,6.66-9.03.77-24.68.77-24.68,0,0-16.69-1.01-23.35,8.01Z" style="fill: #a4c8fc; stroke-width: 0px;"/>
      </g>
      <g>
        <path d="M991.38,1091.76c-6.69-53.16,30.97-101.67,84.13-108.37,53.16-6.69,101.67,30.97,108.37,84.13,6.69,53.16-30.97,101.67-84.13,108.37-53.16,6.69-101.67-30.97-108.37-84.13Z" style="fill: #e2810e; stroke-width: 0px;"/>
        <path d="M982.98,1092.82c-6.69-53.16,30.97-101.67,84.13-108.37,53.16-6.69,101.67,30.97,108.37,84.13,6.69,53.16-30.97,101.67-84.13,108.37-53.16,6.69-101.67-30.97-108.37-84.13Z" style="fill: #ffb93e; stroke-width: 0px;"/>
        <path d="M1090.41,1169.53c-23.42,2.95-46.59-3.4-65.24-17.88-18.65-14.48-30.54-35.35-33.49-58.77-2.95-23.42,3.4-46.59,17.88-65.24,14.48-18.65,35.35-30.54,58.77-33.49,23.42-2.95,46.59,3.4,65.24,17.88,18.65,14.48,30.54,35.35,33.49,58.77,2.95,23.42-3.4,46.59-17.88,65.24-14.48,18.65-35.35,30.54-58.77,33.49ZM1068.99,999.38c-45.47,5.73-77.8,47.37-72.08,92.84,5.72,45.47,47.37,77.8,92.84,72.08,45.47-5.72,77.8-47.37,72.08-92.84-5.73-45.47-47.37-77.8-92.84-72.08Z" style="fill: #ffa412; stroke-width: 0px;"/>
        <path d="M1094.65,1105.77c-.01-1.92-.3-3.61-.85-5.07-.55-1.46-1.45-2.78-2.69-3.96-1.24-1.18-2.83-2.26-4.78-3.26-1.95-.99-4.33-1.96-7.14-2.9-4.83-1.66-9.22-3.4-13.17-5.22-3.95-1.82-7.34-3.93-10.16-6.34-2.82-2.4-5.02-5.22-6.59-8.45-1.57-3.23-2.38-7.09-2.41-11.57-.03-3.88.64-7.43,1.99-10.64,1.35-3.21,3.3-6.01,5.84-8.4,2.54-2.39,5.59-4.35,9.15-5.86,3.56-1.51,7.55-2.49,11.97-2.93l-.11-14.67,11.81-.08.11,14.88c4.23.52,8.08,1.61,11.54,3.28,3.45,1.67,6.4,3.84,8.83,6.52,2.43,2.68,4.31,5.86,5.64,9.52,1.33,3.67,2.01,7.79,2.04,12.36l-21.33.15c-.04-5.48-1.29-9.58-3.74-12.28-2.46-2.7-5.72-4.04-9.81-4.01-2.21.02-4.12.34-5.71.97-1.59.63-2.9,1.48-3.93,2.56-1.03,1.08-1.78,2.36-2.26,3.82-.48,1.47-.72,3.04-.7,4.74.01,1.69.27,3.22.77,4.59.5,1.37,1.36,2.63,2.57,3.79,1.21,1.16,2.82,2.24,4.82,3.25,2,1.01,4.48,2.06,7.44,3.13,4.78,1.75,9.14,3.55,13.06,5.39,3.92,1.85,7.3,3.98,10.12,6.41,2.82,2.42,5.02,5.25,6.59,8.49,1.57,3.24,2.37,7.07,2.41,11.5.03,4.02-.65,7.64-2.03,10.84-1.38,3.21-3.34,5.99-5.88,8.34-2.54,2.35-5.62,4.25-9.22,5.69-3.61,1.44-7.62,2.38-12.05,2.83l.1,13.64-11.73.08-.1-13.57c-4.09-.38-8.04-1.24-11.86-2.59-3.82-1.34-7.22-3.29-10.19-5.86-2.97-2.56-5.35-5.8-7.15-9.72-1.8-3.92-2.72-8.62-2.76-14.1l21.33-.15c.02,3.25.5,5.95,1.42,8.11.92,2.16,2.15,3.89,3.69,5.18,1.53,1.29,3.27,2.19,5.22,2.7,1.95.51,3.93.76,5.95.75,2.31-.02,4.34-.33,6.08-.93,1.74-.61,3.2-1.44,4.37-2.5,1.17-1.06,2.05-2.31,2.63-3.76.58-1.44.86-3.01.85-4.7Z" style="fill: #ffa412; stroke-width: 0px;"/>
      </g>
    </g>
    <g>
      <polygon points="1165.02 1317.67 1165.01 1317.75 1163.08 1347.47 1155.9 1457.8 1021.63 1457.8 1013.73 1348.98 1011.55 1318.99 1011.46 1317.67 1165.02 1317.67" style="fill: #b4c9f7; stroke-width: 0px;"/>
      <path d="M1165.01,1317.75l-1.93,29.72c-10.12-3.52-38.22-11.99-74.84-11.99-46.25,0-74.51,13.5-74.51,13.5l-2.18-29.99,153.46-1.24Z" style="fill: #9bb8ea; stroke-width: 0px;"/>
      <polygon points="1169.68 1333.38 1006.59 1333.38 1004.72 1314.42 1171.76 1314.42 1169.68 1333.38" style="fill: #b4c9f7; stroke-width: 0px;"/>
      <polygon points="1157.96 1463.69 1018.75 1463.69 1017.16 1457.08 1159.73 1457.08 1157.96 1463.69" style="fill: #b4c9f7; stroke-width: 0px;"/>
    </g>
  </g>
  <g>
    <path d="M1718.25,896.55s-15.33-2.99-18.84,0c-3.51,2.99-20.13,19.89-16.57,25.43,3.56,5.55,20.63-4.59,24.18-5.55,3.55-.96,13.47-4.83,13.47-4.83l-2.24-15.05Z" style="fill: #ffb27d; stroke-width: 0px;"/>
    <path d="M1881.18,1438.63l16.44,6.12s71.39-99.01,80.18-186.13c1.57-15.55,1.05-30.62-2.35-44.54,0,0,.7-3.99,1.92-11.03.56-3.29,1.26-7.25,2.05-11.78,2.32-13.3,5.51-31.49,9.17-52.21,8.4-47.68,19.28-108.63,27.74-153.43l-4.43-1.42-47.92-15.46-9.9-31.45-35.68-9.39s-7.97,15.59-15.1,89.25c-1.31,9.66-2.51,20.32-3.41,31.87-2.78,35.26-2.98,79.01,3.4,129.02,1.64,12.8,3.7,26.02,6.27,39.6,1.88,9.96,2.16,23.52,1.37,39.1-3.6,71.21-29.74,181.89-29.74,181.89Z" style="fill: #2b478b; stroke-width: 0px;"/>
    <path d="M1899.88,1049.02l77.48,154.04c.56-3.29,1.26-7.25,2.05-11.78,2.32-13.3,5.51-31.49,9.17-52.21,8.4-47.68,19.28-108.63,27.74-153.43l-4.43-1.42-47.92-15.46-9.9-31.45-35.68-9.39s-7.97,15.59-15.1,89.25c-1.31,9.66-2.51,20.32-3.41,31.87Z" style="fill: #233862; stroke-width: 0px;"/>
    <path d="M1933.97,947.67l1.79-15.38c30.05,7.98,110.34-22.3,110.34-22.3,0,0,29.11,25.59,25.29,86.93-1.87,29.94-5.27,157.16-8.83,194.81-1.29,13.64-2.41,23.35-2.87,27.23,0,.02,0,.03,0,.04-.14,1.18.27,2.3.87,3.33,5.24,8.89,9.58,18.15,13.14,27.63,34.93,93.09-5.38,207.73-5.38,207.73l-10.46-4.22s-22.94-127.58-41.58-183.94c-3.16-9.56-6.2-17.07-8.98-21.56-8.1-13.08-15.63-34.45-22.45-59.87-12.9-48.06-23.29-110.58-30.2-158.84-.95.04-20.66-81.58-20.66-81.58Z" style="fill: #2b478b; stroke-width: 0px;"/>
    <path d="M1718.25,896.55l2.24,15.05s.99,0,2.74-.12c5.47-.37,18.78-1.12,33.83-2.74,22.64-2.24,49.5-6.22,60.2-12.81,16.29-9.95,43.04-40.42,60.45-70.9.5-.75.87-1.49,1.24-2.24,9.08-16.17,15.42-32.22,15.92-45.03.37-7.84-.5-14.55-2.11-20.4-2.11-7.71-5.6-13.81-9.21-18.41-.5-.75-1-1.49-1.74-2.12-5.97-7.09-11.82-10.07-11.82-10.07-2.99-1.25-6.22.25-9.58,3.85v.12c-2.74,2.86-5.72,7.21-8.58,12.69-.12.12-.25.25-.25.37-.62,1.12-1.24,2.36-1.99,3.73-.25.25-.37.62-.5.87-1.37,2.86-2.74,5.85-4.11,8.96-15.3,33.33-31.59,83.84-45.15,98.89-5.85,6.47-32.59,19.16-53.86,28.61-15.3,6.72-27.74,11.69-27.74,11.69Z" style="fill: #ffb27d; stroke-width: 0px;"/>
    <path d="M1876.56,761.1c9.43,4.38,20.83,7.35,34.61,8.11,51.66,2.83,63.39-42.46,65.52-72.52-7.45-2.7-13.97-2.44-17.73-2.24-3.66.2-7.49.58-10.64.97-6.32-3.3-17.67-19.34-24.23-46.16l-2.23,1.03-37.28,17.52s3.96,12.13,6.88,23.74c2.28,9.08,3.92,17.86,2.55,20.32-2.94,1.19-4.7,1.95-4.7,1.95,0,0,0,.01-.01.04-.38.95-8.48,21.6-12.75,47.25Z" style="fill: #ffb27d; stroke-width: 0px;"/>
    <path d="M1863.64,795c.39,1.03.82,2.04,1.29,3.07,13.08,28.18,37.3,144.91,37.3,144.91-3.45,20.99,157.72-4.12,158.14-23.23,5.68-20.26-20.14-52.82-34.7-69.15-1.82-2.05-3.46-4.25-4.88-6.58-3.6-5.82-5.88-12.4-6.6-19.27-2.86-27.09-1.77-52.47-2.01-67.91,0,0,0,0,0,0-2.84-2.11-5.6-4.05-8.16-5.9-3.92-2.86-7.38-5.53-9.93-8.24-2.8-2.95-4.56-5.97-4.76-9.38-.15-2.58-.07-5.22.2-7.86.12-1.25.28-2.5.47-3.74,2.01-13.11,7.49-25,7.49-25-13.86-5.61-38.51-2.27-38.51-2.27,0,0,.03,1.37.04,3.61.08,9,0,32.12-2.89,36.5-3.61,5.45-69.64,29.32-73.13,21.93-3.44-7.27,5.97-41.34,6.32-42.63.01-.03.01-.04.01-.04-22.11,8.68-30.02,15.97-30.02,15.97,13.33,8.64-5.97,37.88,4.33,65.22Z" style="fill: #f99746; stroke-width: 0px;"/>
    <path d="M1908.12,551.51c.08-2.24,1.81-26.38,38.58-27.64,0,0-18.08,2.16-21.2,10.1,0,0,12.31-9.82,22.33-6.66,10.02,3.16,15.91,20.72,15.97,26.5.06,5.78-5.51,24.4-11.87,25.98-2.41.6-5.18.44-7.71,0,1.69,2.64,3.35,5.56,4.94,8.81,14.67,30.11-.46,59.54-12.88,56.29-7.96-2.09-10.22,11.51-10.22,11.51l-77.38-62.64s28.42-58.81,59.44-42.26Z" style="fill: #2c3a64; stroke-width: 0px;"/>
    <path d="M1884.58,667.82s3.96,12.12,6.88,23.74c21.79-6.08,28.41-28.98,30.4-41.26l-37.28,17.52Z" style="fill: #ed985f; stroke-width: 0px;"/>
    <path d="M1880,680.66s52.13-12.06,44.12-44.41c-8.01-32.35-6.68-55.69-40.3-49.36-33.62,6.34-37.01,20.27-36.96,31.72.05,11.45,19.38,64.35,33.15,62.05Z" style="fill: #ffb27d; stroke-width: 0px;"/>
    <path d="M1843.92,600.24c5.6-11.72,12.2-11.1,16.33-9.02,24.5-22.66,48.52-4.15,48.52-4.15,9.25,22.34,29.29,31.47,29.29,31.47,0,0-8.01,8.2-31.22,8.02-7.09-.06-14.22-3.31-20.71-7.8,12.51,12.6,27.18,20.27,27.18,20.27-29.06-5.56-48.54-39.2-50.54-42.77-2.46,3.64-7.17,11.37-7.57,17.91-.54,8.88,2.52,26.12-2.57,26.78,0,0-17.13-23.12-8.72-40.71Z" style="fill: #2c3a64; stroke-width: 0px;"/>
    <path d="M1859.3,729.78s-12.55,21.9-14.43,27.53c0,0,16.28-.63,22.85,11.89,0,0,1.58-36.47-8.42-39.42Z" style="fill: #f99746; stroke-width: 0px;"/>
    <path d="M1945.63,903.76c31.79-.34,58.71-33.35,75.16-59.73-3.6-5.82-5.88-12.4-6.6-19.27-2.86-27.09-1.77-52.47-2.01-67.91,0,0,0,0,0,0-2.84-2.11-5.6-4.05-8.16-5.9-3.92-2.86-7.38-5.53-9.93-8.24-26.03,44-91.56,161.51-48.46,161.05Z" style="fill: #ed7d2b; stroke-width: 0px;"/>
    <path d="M1825.47,921.05l4.35,15.92s5.47-.99,14.18-2.61c2.61-.5,4.1-.87,4.1-.87,6.96-1.37,15.3-3.23,24.38-5.22h.12c15.55-3.73,32.96-8.21,47.64-13.19,10.32-3.61,19.28-7.46,25.37-11.32.62-.37,1.12-.75,1.74-1.25,14.55-10.57,31.84-41.67,45.28-75,1.87-4.6,3.61-9.2,5.35-13.68,6.22-16.67,11.19-33.09,14.18-47.27,1.87-8.46,3.11-16.17,3.36-22.51.12-2.24.25-4.35.12-6.34-.25-36.07-18.16-41.05-18.16-41.05-.37-.12-.75-.25-1.24-.37-3.11-.5-6.34,1.62-9.7,5.72-4.23,5.1-8.71,13.43-13.31,23.51-7.09,16.05-14.55,36.82-21.52,57.47-3.86,11.32-7.59,22.64-11.32,33.08-2.11,6.34-4.23,12.31-6.22,17.79-3.86,10.45-7.34,18.91-10.45,24.25-1.99,3.48-7.71,8.33-15.3,13.81-13.18,9.58-32.46,21.15-49.26,30.6-6.97,3.98-13.56,7.59-19.03,10.57-8.83,4.85-14.68,7.96-14.68,7.96Z" style="fill: #ffb27d; stroke-width: 0px;"/>
    <path d="M1973.28,725.57c23.95-6.6,42.42,12.09,42.42,12.09-.3-36.01-18.23-40.94-18.23-40.94-7.21-2.99-15.57,9.5-24.19,28.85Z" style="fill: #f99746; stroke-width: 0px;"/>
    <path d="M2007.48,1466.22h82.78s1.98-12.62-2.34-22.19c-4.14-9.19-10.63-13.36-9.08-24.47-5.26,5.42-13.83,11.48-25.8,9.87-1.47,2.38-9.47,15.1-14.36,18.62-5.41,3.89-29.53,2.5-31.2,18.17Z" style="fill: #233862; stroke-width: 0px;"/>
    <path d="M1829.74,1466.22h82.78s3.09-13.2-2.34-22.19c-4.81-7.95-2.97-12.48.6-19.06-3.75,1.54-8.6,2.93-13.94,2.63-4.12-.24-8.49-2.11-12.31-4.33-3.56,4.06-18.82,21.35-23.59,24.78-5.41,3.89-29.53,2.5-31.2,18.17Z" style="fill: #233862; stroke-width: 0px;"/>
    <path d="M1820.54,994.82l-19.67-47.99c-2.56-6.26-9.43-9.51-15.81-7.75-6.51-12.25-15.49-22.21-25.67-29.2-10.72-7.38-22.76-11.45-34.64-11.4-6.27.03-12.52,1.21-18.49,3.66-27.97,11.46-40.51,46.8-30.24,81.51l-1.53.62s-4.78-.33-12.8-.33c-25.33,0-82.92,3.37-123.33,31.43,0,0-2.54,2.7-2.64,6.83-.05,1.36.18,2.89.85,4.53,0,0,64.86-42,124.84,1.16,3.69,2.64,7.25,5.09,10.74,7.36l5.38,13.13c8.92,21.78,34.03,32.28,55.8,23.36l54.94-22.52,11.45-4.69c19.39-7.94,28.76-30.32,20.81-49.71ZM1714.03,955.92l-22.38,9.18c-6.08,2.49-9.28,9.1-7.71,15.31l-2.4.98c-9.1-31.62,2-63.51,26.98-73.74,3.51-1.44,7.11-2.38,10.76-2.84,11.5-1.52,23.48,1.58,34.26,8.3,10.24,6.38,19.37,16.03,25.95,28.14l-3.3,1.35c-3.24-5.51-10.15-7.98-16.23-5.5l-22.39,9.18c-1.75-4.27-5.9-6.86-10.26-6.86-1.38,0-2.79.27-4.14.82l-3.1,1.27c-5.62,2.31-8.34,8.79-6.03,14.41Z" style="fill: #c94c43; stroke-width: 0px;"/>
    <path d="M1672.16,1035.25c-3.48-2.27-7.05-4.72-10.74-7.36-59.99-43.16-124.84-1.16-124.84-1.16-.67-1.63-.91-3.16-.85-4.53,9.08-5.98,43.11-25.87,85.27-19.07,49.41,7.97,58.34,14.84,51.16,32.12Z" style="fill: #b23b38; stroke-width: 0px;"/>
    <path d="M1799.74,1044.53l-11.45,4.69c17.16-9.37-4.09-48.96-16.52-75.09-12.43-26.14-31.24-14.19-31.24-14.19-4.31-8.76-13.54-8.29-13.54-8.29-.48-8.44-6.92-10.14-6.92-10.14l3.1-1.27c1.35-.55,2.77-.82,4.14-.82,4.36,0,8.52,2.59,10.26,6.86l22.39-9.18c6.08-2.49,12.99-.01,16.23,5.5l3.3-1.35c-6.58-12.11-15.71-21.76-25.95-28.14-10.77-6.72-22.76-9.82-34.26-8.3,1.8-1.45,3.74-3.48,5.47-6.32,11.88-.05,23.92,4.02,34.64,11.4,10.17,6.99,19.15,16.94,25.67,29.2,6.38-1.76,13.25,1.49,15.81,7.75l19.67,47.99c7.96,19.39-1.42,41.77-20.81,49.71Z" style="fill: #b23b38; stroke-width: 0px;"/>
    <path d="M1773.97,936.48c7.96,3.36,19.15,15.05,37.07,7.96,12.81-4.98,26.37-8.46,32.96-10.08,2.61-.5,4.1-.87,4.1-.87l-7.09-20.65s-.25.12-.87.25c-4.6.99-27.99,5.97-38.93,3.48-12.31-2.86-32.96,11.94-32.96,11.94,0,0-2.24,4.73,5.72,7.96Z" style="fill: #ffb27d; stroke-width: 0px;"/>
    <path d="M1549.25,1061.39c0-7.47-13.53-30.53-13.53-30.53,0,0-13.53,23.06-13.53,30.53s6.06,13.53,13.53,13.53,13.53-6.06,13.53-13.53Z" style="fill: #afcdfb; stroke-width: 0px;"/>
  </g>
  <path d="M1916.57,165.54l-19.85,4.33-.47.11c-2.41.54-4.04,2.79-3.77,5.23l1.79,16.87c.03.28.04.55.02.82-.14,1.87-1.35,3.56-3.16,4.17-10.62,3.79-20.37,9.62-28.7,17.22-.35.31-.73.56-1.13.76-1.52.74-3.38.63-4.83-.33l-11.74-7.91c-1.55-1.03-3.55-1.05-5.11-.18-.47.28-.93.64-1.31,1.09l-13.37,15.87c-1.65,1.95-1.53,4.87.3,6.69l13.33,13.31c1.31,1.32,1.75,3.26,1.11,5.01-.88,2.53-1.66,5.09-2.31,7.73-1.23,4.95-1.98,9.89-2.3,14.79v.02c-.14,2.05-1.49,3.77-3.44,4.38l-18.27,5.66-.92.29c-2.35.7-3.8,3.15-3.27,5.58l4.41,20.3c.55,2.47,2.86,4.15,5.38,3.88l18.78-1.99c2.09-.23,4.08.91,4.93,2.81,3.7,7.95,8.6,15.31,14.55,21.77,1.5,1.66,1.68,4.11.43,5.98l-9.35,13.94c-1.42,2.13-1,4.93.93,6.55l15.92,13.43c1.89,1.58,4.67,1.45,6.39-.28l15.67-15.64c1.32-1.33,3.29-1.79,5.08-1.2,2.2.74,4.44,1.4,6.72,1.96,4.32,1.07,8.63,1.79,12.89,2.18,1.94.16,3.6,1.46,4.15,3.33l6.77,21.97c.76,2.42,3.21,3.84,5.67,3.31l20.37-4.42c2.15-.48,3.71-2.38,3.8-4.53,0-.22.02-.47-.03-.7l-2.2-20.84c-.21-1.94.72-3.81,2.42-4.75.15-.09.29-.18.45-.23.47-.21.92-.39,1.38-.65,5.48-2.51,10.69-5.63,15.52-9.26,1.6-1.24,3.84-1.28,5.53-.12l14.73,9.87c2.08,1.41,4.91.99,6.53-.94l2.98-3.52,10.36-12.32c1.64-1.92,1.51-4.78-.28-6.58l-13.13-13.11c-1.41-1.39-1.76-3.51-.94-5.31,2.16-4.72,3.93-9.76,5.23-15.01.96-3.9,1.64-7.84,2.04-11.73l3.84-1.18,15.73-4.88c1.95-.58,3.28-2.36,3.35-4.32.03-.41-.02-.82-.11-1.24l-4.4-20.44c-.54-2.41-2.82-4.02-5.26-3.78l-12.83,1.38c-2.16.23-4.27-1.06-5.03-3.1-3.13-8.48-7.56-16.39-13.13-23.42-1.32-1.67-1.43-3.95-.24-5.63l11.82-17.61c1.31-1.98.95-4.62-.88-6.16l-16.12-13.55c-1.91-1.61-4.71-1.49-6.43.27l-16.3,16.28c-1.39,1.41-3.5,1.81-5.33,1.03-3.92-1.67-8.05-3.01-12.35-4.07-2.31-.57-4.62-1.05-6.93-1.42-1.81-.3-3.3-1.58-3.86-3.33l-6.5-21.06c-.76-2.44-3.22-3.9-5.73-3.38ZM1876.65,260.68c1.95-5.27,4.91-10.43,9-15.34.86-1.05,1.94-2.12,3.12-3.19,5.16-4.54,12.7-8.65,18.56-9.9,44.84-9.49,74.57,38.83,46.69,74.39-.46.58-.93,1.16-1.42,1.73-4.53,5.37-13.92,11-20.77,12.52-3.59.8-7.09,1.22-10.46,1.32-33.72.89-55.79-31.53-44.72-61.54Z" style="fill: #dfedfb; stroke-width: 0px;"/>
  <path d="M2219.71,234.36l-31.24,2.82-.74.07c-3.8.37-6.72,3.5-6.79,7.3l-.49,26.19c0,.43-.05.86-.13,1.26-.58,2.84-2.75,5.19-5.65,5.78-17,3.76-33.05,10.84-47.26,20.89-.59.41-1.23.72-1.88.95-2.47.84-5.29.31-7.33-1.43l-16.47-14.37c-2.18-1.87-5.24-2.3-7.79-1.25-.77.34-1.54.8-2.22,1.42l-23.52,21.74c-2.9,2.67-3.28,7.17-.82,10.31l17.87,22.95c1.75,2.27,2.05,5.32.75,7.89-1.83,3.71-3.51,7.48-5.02,11.4-2.83,7.35-4.93,14.77-6.36,22.22v.03c-.61,3.11-3,5.5-6.12,6.05l-29.08,5.16-1.46.27c-3.74.63-6.43,4.09-6.07,7.93l2.87,31.94c.38,3.88,3.59,6.91,7.5,6.98l29.15.55c3.24.05,6.08,2.18,7.01,5.24,4.15,12.9,10.24,25.1,18.12,36.13,1.98,2.83,1.79,6.62-.49,9.24l-16.99,19.56c-2.58,2.99-2.47,7.36.17,10.21l21.82,23.63c2.59,2.79,6.88,3.12,9.84.8l27-20.96c2.28-1.79,5.38-2.1,8.01-.86,3.22,1.56,6.53,2.99,9.92,4.3,6.41,2.47,12.87,4.39,19.33,5.8,2.95.62,5.24,2.93,5.73,5.9l6.17,34.96c.71,3.85,4.18,6.5,8.05,6.16l32.05-2.87c3.39-.33,6.14-2.93,6.69-6.22.05-.34.12-.71.1-1.08l.62-32.34c.04-3.01,1.83-5.7,4.61-6.82.24-.11.48-.21.74-.27.76-.22,1.48-.43,2.23-.73,8.87-2.79,17.45-6.58,25.56-11.21,2.68-1.59,6.12-1.23,8.49.88l20.67,17.94c2.92,2.55,7.33,2.46,10.18-.18l5.24-4.83,18.24-16.89c2.88-2.63,3.22-7.04.84-10.14l-17.6-22.6c-1.9-2.4-2.02-5.71-.42-8.32,4.21-6.81,7.89-14.19,10.89-21.99,2.23-5.79,4.02-11.7,5.37-17.59l6.1-1.07,25.03-4.46c3.1-.52,5.48-2.98,5.96-5.98.12-.63.13-1.26.06-1.92l-2.83-32.16c-.37-3.8-3.55-6.7-7.33-6.8l-19.92-.34c-3.36-.06-6.34-2.44-7.11-5.72-3.17-13.59-8.44-26.56-15.62-38.4-1.71-2.8-1.43-6.32.71-8.68l21.48-24.72c2.38-2.78,2.34-6.9-.16-9.61l-22.09-23.86c-2.61-2.83-6.93-3.18-9.91-.83l-28.09,21.82c-2.4,1.9-5.7,2.1-8.37.56-5.69-3.3-11.76-6.15-18.13-8.61-3.43-1.32-6.88-2.49-10.35-3.5-2.71-.81-4.75-3.06-5.27-5.85l-5.93-33.51c-.69-3.89-4.19-6.59-8.13-6.27ZM2140.33,372.47c3.99-7.69,9.52-15.04,16.73-21.77,1.51-1.45,3.38-2.88,5.39-4.29,8.78-5.97,21.11-10.82,30.33-11.61,70.51-5.94,106.8,73.79,57.27,122.92-.82.8-1.65,1.59-2.51,2.38-7.96,7.36-23.44,14.18-34.21,15.2-5.65.53-11.1.51-16.28.02-51.83-5.1-79.43-59-56.71-102.86Z" style="fill: #cde3fd; stroke-width: 0px;"/>
</svg>