<?xml version="1.0" encoding="UTF-8"?>
<svg xmlns="http://www.w3.org/2000/svg" xmlns:xlink="http://www.w3.org/1999/xlink" viewBox="0 0 3659.01 3660.21">
  <defs>
    <linearGradient id="c" x1="4096.88" y1="4712.66" x2="869.74" y2="704.75" gradientUnits="userSpaceOnUse">
      <stop offset="0" stop-color="#dae3fe"/>
      <stop offset="1" stop-color="#e9effd"/>
    </linearGradient>
    <linearGradient id="d" x1="779.38" y1="1848.04" x2="1057.02" y2="1848.04" xlink:href="#c"/>
    <linearGradient id="e" x1="470.64" y1="1848.01" x2="747.7" y2="1848.01" xlink:href="#c"/>
    <linearGradient id="f" x1="162.2" y1="1847.99" x2="438.68" y2="1847.99" xlink:href="#c"/>
    <linearGradient id="g" x1="775.94" y1="2050.04" x2="1053.09" y2="2050.04" xlink:href="#c"/>
    <linearGradient id="h" x1="467.73" y1="2049.91" x2="744.31" y2="2049.91" xlink:href="#c"/>
    <linearGradient id="i" x1="159.84" y1="2049.78" x2="435.83" y2="2049.78" xlink:href="#c"/>
    <linearGradient id="j" x1="772.51" y1="2250.28" x2="1049.17" y2="2250.28" xlink:href="#c"/>
    <linearGradient id="k" x1="464.84" y1="2250.05" x2="740.93" y2="2250.05" xlink:href="#c"/>
    <linearGradient id="l" x1="157.48" y1="2249.82" x2="432.99" y2="2249.82" xlink:href="#c"/>
    <linearGradient id="m" x1="769.09" y1="2449.83" x2="1045.27" y2="2449.83" xlink:href="#c"/>
    <linearGradient id="n" x1="461.95" y1="2449.5" x2="737.56" y2="2449.5" xlink:href="#c"/>
    <linearGradient id="o" x1="155.12" y1="2449.17" x2="430.16" y2="2449.17" xlink:href="#c"/>
    <linearGradient id="p" x1="765.69" y1="2648.68" x2="1041.38" y2="2648.68" xlink:href="#c"/>
    <linearGradient id="q" x1="459.08" y1="2648.26" x2="734.2" y2="2648.26" xlink:href="#c"/>
    <linearGradient id="r" x1="152.78" y1="2647.83" x2="427.34" y2="2647.83" xlink:href="#c"/>
    <linearGradient id="s" x1="762.29" y1="2846.85" x2="1037.5" y2="2846.85" xlink:href="#c"/>
    <linearGradient id="t" x1="456.22" y1="2846.33" x2="730.86" y2="2846.33" xlink:href="#c"/>
    <linearGradient id="u" x1="150.45" y1="2845.8" x2="424.52" y2="2845.8" xlink:href="#c"/>
    <linearGradient id="v" x1="758.91" y1="3044.34" x2="1033.64" y2="3044.34" xlink:href="#c"/>
    <linearGradient id="w" x1="453.36" y1="3043.72" x2="727.53" y2="3043.72" xlink:href="#c"/>
    <linearGradient id="x" x1="148.12" y1="3043.1" x2="421.72" y2="3043.1" xlink:href="#c"/>
    <linearGradient id="y" x1="755.54" y1="3241.15" x2="1029.79" y2="3241.15" xlink:href="#c"/>
    <linearGradient id="z" x1="450.52" y1="3240.43" x2="724.21" y2="3240.43" xlink:href="#c"/>
    <linearGradient id="aa" x1="145.8" y1="3239.71" x2="418.93" y2="3239.71" xlink:href="#c"/>
    <linearGradient id="ab" x1="752.18" y1="3437.28" x2="1025.96" y2="3437.28" xlink:href="#c"/>
    <linearGradient id="ac" x1="447.68" y1="3436.47" x2="720.9" y2="3436.47" xlink:href="#c"/>
    <linearGradient id="ad" x1="143.49" y1="3435.65" x2="416.14" y2="3435.65" xlink:href="#c"/>
    <linearGradient id="ae" x1="2999.04" y1="-1647.51" x2="2201.63" y2="3004.05" gradientUnits="userSpaceOnUse">
      <stop offset="0" stop-color="#4042e2"/>
      <stop offset="1" stop-color="#4f52ff"/>
    </linearGradient>
    <linearGradient id="af" x1="1640.87" y1="2196.36" x2="3049.94" y2="2196.36" xlink:href="#ae"/>
    <linearGradient id="ag" x1="2455.14" y1="642.95" x2="2883.82" y2="-346.33" gradientTransform="translate(1323.76 -1392.75) rotate(45)" gradientUnits="userSpaceOnUse">
      <stop offset="0" stop-color="#09005d"/>
      <stop offset="1" stop-color="#1a0f91"/>
    </linearGradient>
    <linearGradient id="ah" x1="2494.11" y1="1283.82" x2="1529.36" y2="7970.58" gradientUnits="userSpaceOnUse">
      <stop offset="0" stop-color="#febbba"/>
      <stop offset="1" stop-color="#ff928e"/>
    </linearGradient>
    <linearGradient id="ai" x1="2468.81" y1="1280.17" x2="1504.05" y2="7966.93" xlink:href="#ah"/>
    <linearGradient id="aj" x1="2523.89" y1="2044.29" x2="3938.18" y2="-767.65" gradientUnits="userSpaceOnUse">
      <stop offset="0" stop-color="#fe7062"/>
      <stop offset="1" stop-color="#ff928e"/>
    </linearGradient>
    <linearGradient id="ak" x1="-1801.23" y1="3585.94" x2="-1644.79" y2="3585.94" gradientTransform="translate(2420.6)" xlink:href="#ag"/>
    <linearGradient id="al" x1="-1757.72" y1="3407.84" x2="-1787.61" y2="3668.64" gradientTransform="translate(2420.6)" xlink:href="#ah"/>
    <linearGradient id="am" x1="-1563.01" y1="3589.92" x2="-1337.81" y2="3589.92" gradientTransform="translate(2420.6)" xlink:href="#ag"/>
    <linearGradient id="an" x1="-1432.77" y1="3287.83" x2="-1462.65" y2="3548.63" gradientTransform="translate(2125.31 64.01) rotate(-3.61)" xlink:href="#ah"/>
    <linearGradient id="ao" x1="-1076.03" y1="3653.88" x2="-766.72" y2="2178.97" gradientTransform="translate(-215.08) rotate(-180) scale(1 -1)" xlink:href="#ag"/>
    <linearGradient id="ap" x1="1176.85" y1="1638.61" x2="493.4" y2="2392.61" xlink:href="#ae"/>
    <linearGradient id="aq" x1="1043.98" y1="1680.48" x2="47.72" y2="3509.06" xlink:href="#ae"/>
    <linearGradient id="ar" x1="-1638.51" y1="1887.78" x2="-1569.1" y2="1698.25" gradientTransform="translate(2420.6)" xlink:href="#ah"/>
    <linearGradient id="as" x1="842.15" y1="1276.88" x2="809.91" y2="1523.11" xlink:href="#ae"/>
    <linearGradient id="at" x1="898.55" y1="1284.27" x2="866.31" y2="1530.5" xlink:href="#ae"/>
    <linearGradient id="au" x1="-1467.92" y1="1603.48" x2="-1881.44" y2="1932.84" gradientTransform="translate(2420.6)" xlink:href="#ah"/>
    <linearGradient id="av" x1="-1627.56" y1="1495.13" x2="-1438.02" y2="1739.16" gradientTransform="translate(2420.6)" xlink:href="#ag"/>
    <linearGradient id="aw" x1="-1509.54" y1="1585.43" x2="-1713.05" y2="1741.15" gradientTransform="translate(2420.6)" xlink:href="#ah"/>
    <linearGradient id="ax" x1="-1607.8" y1="1688.31" x2="-1176.91" y2="2060.52" gradientTransform="translate(-215.08) rotate(-180) scale(1 -1)" xlink:href="#ah"/>
    <linearGradient id="ay" x1="-1616.78" y1="1723.01" x2="-1197.35" y2="2085.32" gradientTransform="translate(-215.08) rotate(-180) scale(1 -1)" xlink:href="#ah"/>
    <linearGradient id="az" x1="-1623.75" y1="1706.78" x2="-1192.86" y2="2078.98" gradientTransform="translate(-215.08) rotate(-180) scale(1 -1)" xlink:href="#ah"/>
    <linearGradient id="ba" x1="572.91" y1="1521.24" x2="-203.55" y2="3150.13" gradientTransform="translate(-749.6 755.22) rotate(-62.63)" gradientUnits="userSpaceOnUse">
      <stop offset="0" stop-color="#e1473d"/>
      <stop offset="1" stop-color="#e9605a"/>
    </linearGradient>
    <linearGradient id="bb" x1="4163.17" y1="-147.51" x2="3708.13" y2="757.87" gradientTransform="translate(-1949.46 2431.34) rotate(-15.16)" xlink:href="#aj"/>
    <linearGradient id="bc" x1="-15.76" y1="1959.54" x2="656.27" y2="3535.74" gradientTransform="translate(-749.6 755.22) rotate(-62.63)" gradientUnits="userSpaceOnUse">
      <stop offset="0" stop-color="#ff9085"/>
      <stop offset="1" stop-color="#fb6fbb"/>
    </linearGradient>
    <linearGradient id="bd" x1="1760.51" y1="1605.15" x2="2173.83" y2="554.27" xlink:href="#aj"/>
    <linearGradient id="be" x1="1988.18" y1="487.1" x2="1917.83" y2="623.41" xlink:href="#aj"/>
    <linearGradient id="bf" x1="-1023.05" y1="4019.71" x2="-1543.11" y2="4923.35" gradientTransform="translate(824.25 -2123.77) rotate(-18.59)" xlink:href="#ah"/>
  </defs>
  <g isolation="isolate">
    <g id="b" data-name="Illustration">
      <g>
        <path d="M3222.03,3123.08c-74.84,77.55-145.65,127.55-201.59,167.06-657.62,464.43-1435.77,329.05-1601.15,295.99-244.21-48.82-716.26-143.19-1057.55-538.23C-154.6,2450.26-74.2,1508.67,326.31,887.11c73.26-113.69,460.23-744.72,1246.76-845.91,476-61.24,1030.86,62.28,1432.67,393.62,843.44,695.53,783.4,2100.61,216.29,2688.26Z" fill="url(#c)" stroke-width="0"/>
        <g>
          <g>
            <path d="M697.29,1038.04c.34-17.57,15.11-31.72,33.21-31.72h1097.81c18.34,0,37.83,14.58,37.83,32.39v2488.22c0,13.3-7.76,26.05-17.45,35.44-9.7,9.39-23.99,14.64-37.68,14.61l-1109.83-2.94c-13.81-.04-27.31-5.46-36.97-15.04-9.66-9.59-15.1-22.57-14.84-35.98l47.94-2484.98Z" fill="#bdd0fb" stroke-width="0"/>
            <g opacity=".52">
              <polygon points="1327.74 1182.66 1686.86 1181.45 1686.73 1137.81 1328.01 1138.91 1327.74 1182.66" fill="#fff" mix-blend-mode="overlay" stroke-width="0"/>
              <polygon points="1326.76 1343.39 1687.35 1341.79 1687.22 1297.79 1327.03 1299.28 1326.76 1343.39" fill="#fff" mix-blend-mode="overlay" stroke-width="0"/>
              <polygon points="1325.77 1505.45 1687.85 1503.45 1687.71 1459.09 1326.04 1460.98 1325.77 1505.45" fill="#fff" mix-blend-mode="overlay" stroke-width="0"/>
              <polygon points="1324.76 1668.85 1688.35 1666.45 1688.21 1621.73 1325.04 1624.02 1324.76 1668.85" fill="#fff" mix-blend-mode="overlay" stroke-width="0"/>
              <polygon points="1323.76 1833.62 1688.85 1830.81 1688.72 1785.71 1324.03 1788.41 1323.76 1833.62" fill="#fff" mix-blend-mode="overlay" stroke-width="0"/>
              <polygon points="1321.71 2167.3 1689.88 2163.65 1689.73 2117.79 1321.99 2121.33 1321.71 2167.3" fill="#fff" mix-blend-mode="overlay" stroke-width="0"/>
              <polygon points="1318.58 2678.48 1691.44 2673.52 1691.3 2626.48 1318.87 2631.33 1318.58 2678.48" fill="#fff" mix-blend-mode="overlay" stroke-width="0"/>
              <polygon points="1322.74 1999.76 1689.36 1996.54 1689.22 1951.06 1323.02 1954.17 1322.74 1999.76" fill="#fff" mix-blend-mode="overlay" stroke-width="0"/>
              <polygon points="1320.68 2336.26 1690.39 2332.18 1690.25 2285.93 1320.96 2289.9 1320.68 2336.26" fill="#fff" mix-blend-mode="overlay" stroke-width="0"/>
              <polygon points="1319.63 2506.65 1690.91 2502.13 1690.77 2455.49 1319.92 2459.89 1319.63 2506.65" fill="#fff" mix-blend-mode="overlay" stroke-width="0"/>
              <polygon points="1317.52 2851.79 1691.97 2846.37 1691.83 2798.93 1317.81 2804.23 1317.52 2851.79" fill="#fff" mix-blend-mode="overlay" stroke-width="0"/>
              <polygon points="1316.45 3026.58 1692.51 3020.7 1692.36 2972.86 1316.74 2978.61 1316.45 3026.58" fill="#fff" mix-blend-mode="overlay" stroke-width="0"/>
              <polygon points="1315.37 3202.89 1693.04 3196.53 1692.9 3148.28 1315.66 3154.5 1315.37 3202.89" fill="#fff" mix-blend-mode="overlay" stroke-width="0"/>
              <polygon points="1314.28 3380.71 1693.59 3373.88 1693.44 3325.21 1314.58 3331.91 1314.28 3380.71" fill="#fff" mix-blend-mode="overlay" stroke-width="0"/>
              <polygon points="856.91 1184.24 1218.28 1183.02 1218.67 1139.25 857.71 1140.36 856.91 1184.24" fill="#fff" mix-blend-mode="overlay" stroke-width="0"/>
              <polygon points="853.98 1345.48 1216.85 1343.87 1217.24 1299.74 854.79 1301.24 853.98 1345.48" fill="#fff" mix-blend-mode="overlay" stroke-width="0"/>
              <polygon points="851.03 1508.06 1215.4 1506.05 1215.8 1461.55 851.84 1463.45 851.03 1508.06" fill="#fff" mix-blend-mode="overlay" stroke-width="0"/>
              <polygon points="848.05 1672 1213.94 1669.58 1214.34 1624.71 848.86 1627.01 848.05 1672" fill="#fff" mix-blend-mode="overlay" stroke-width="0"/>
              <polygon points="845.04 1837.3 1212.47 1834.48 1212.87 1789.23 845.87 1791.94 845.04 1837.3" fill="#fff" mix-blend-mode="overlay" stroke-width="0"/>
              <polygon points="838.95 2172.09 1209.49 2168.42 1209.9 2122.41 839.79 2125.96 838.95 2172.09" fill="#fff" mix-blend-mode="overlay" stroke-width="0"/>
              <polygon points="829.63 2685 1204.92 2680 1205.34 2632.81 830.49 2637.68 829.63 2685" fill="#fff" mix-blend-mode="overlay" stroke-width="0"/>
              <polygon points="842.01 2004 1210.98 2000.75 1211.39 1955.12 842.84 1958.25 842.01 2004" fill="#fff" mix-blend-mode="overlay" stroke-width="0"/>
              <polygon points="835.87 2341.62 1207.98 2337.51 1208.39 2291.11 836.72 2295.1 835.87 2341.62" fill="#fff" mix-blend-mode="overlay" stroke-width="0"/>
              <polygon points="832.76 2512.58 1206.45 2508.03 1206.87 2461.23 833.62 2465.66 832.76 2512.58" fill="#fff" mix-blend-mode="overlay" stroke-width="0"/>
              <polygon points="826.47 2858.9 1203.37 2853.44 1203.8 2805.84 827.34 2811.18 826.47 2858.9" fill="#fff" mix-blend-mode="overlay" stroke-width="0"/>
              <polygon points="823.28 3034.3 1201.81 3028.37 1202.24 2980.37 824.16 2986.16 823.28 3034.3" fill="#fff" mix-blend-mode="overlay" stroke-width="0"/>
              <polygon points="820.06 3211.21 1200.23 3204.82 1200.67 3156.4 820.95 3162.66 820.06 3211.21" fill="#fff" mix-blend-mode="overlay" stroke-width="0"/>
              <polygon points="816.82 3389.66 1198.64 3382.79 1199.08 3333.95 817.71 3340.69 816.82 3389.66" fill="#fff" mix-blend-mode="overlay" stroke-width="0"/>
            </g>
          </g>
          <g>
            <path d="M67.32,1724.36c.48-20.32,21.35-37.05,46.93-37.05h966.9c25.92,0,51.38,17.6,51.38,38.2v1841.3c0,9.91-7.19,19.41-16.01,26.41-8.83,7-21.91,10.92-34.39,10.89l-1010.94-2.19c-12.58-.03-24.9-4.07-33.69-11.21-8.8-7.14-13.76-17.02-13.52-27.01l43.35-1839.33Z" fill="#bdd0fb" stroke-width="0"/>
            <g>
              <g>
                <polygon points="779.38 1904.29 1054.83 1903.99 1057.02 1791.8 781.3 1791.8 779.38 1904.29" fill="url(#d)" stroke-width="0"/>
                <polygon points="470.64 1904.23 745.81 1903.94 747.7 1791.8 472.26 1791.8 470.64 1904.23" fill="url(#e)" stroke-width="0"/>
                <polygon points="162.2 1904.17 437.1 1903.88 438.68 1791.8 163.52 1791.8 162.2 1904.17" fill="url(#f)" stroke-width="0"/>
              </g>
              <g>
                <polygon points="775.94 2105.67 1050.91 2105.81 1053.09 1994.35 777.85 1994.26 775.94 2105.67" fill="url(#g)" stroke-width="0"/>
                <polygon points="467.73 2105.52 742.43 2105.66 744.31 1994.25 469.35 1994.16 467.73 2105.52" fill="url(#h)" stroke-width="0"/>
                <polygon points="159.84 2105.36 434.25 2105.5 435.83 1994.15 161.15 1994.06 159.84 2105.36" fill="url(#i)" stroke-width="0"/>
              </g>
              <g>
                <polygon points="772.51 2305.68 1047 2305.91 1049.17 2194.83 774.42 2194.65 772.51 2305.68" fill="url(#j)" stroke-width="0"/>
                <polygon points="464.84 2305.42 739.05 2305.65 740.93 2194.63 466.45 2194.45 464.84 2305.42" fill="url(#k)" stroke-width="0"/>
                <polygon points="157.48 2305.16 431.42 2305.39 432.99 2194.43 158.79 2194.25 157.48 2305.16" fill="url(#l)" stroke-width="0"/>
              </g>
              <g>
                <polygon points="769.09 2504.99 1043.11 2505.31 1045.27 2394.61 770.99 2394.35 769.09 2504.99" fill="url(#m)" stroke-width="0"/>
                <polygon points="461.95 2504.63 735.69 2504.95 737.56 2394.31 463.56 2394.04 461.95 2504.63" fill="url(#n)" stroke-width="0"/>
                <polygon points="155.12 2504.28 428.59 2504.59 430.16 2394.01 156.43 2393.74 155.12 2504.28" fill="url(#o)" stroke-width="0"/>
              </g>
              <g>
                <polygon points="765.69 2703.61 1039.22 2704.02 1041.38 2593.71 767.58 2593.35 765.69 2703.61" fill="url(#p)" stroke-width="0"/>
                <polygon points="459.08 2703.16 732.34 2703.56 734.2 2593.31 460.68 2592.95 459.08 2703.16" fill="url(#q)" stroke-width="0"/>
                <polygon points="152.78 2702.7 425.77 2703.11 427.34 2592.91 154.08 2592.55 152.78 2702.7" fill="url(#r)" stroke-width="0"/>
              </g>
              <g>
                <polygon points="762.29 2901.55 1035.36 2902.04 1037.5 2792.11 764.18 2791.67 762.29 2901.55" fill="url(#s)" stroke-width="0"/>
                <polygon points="456.22 2901 729.01 2901.49 730.86 2791.61 457.81 2791.17 456.22 2901" fill="url(#t)" stroke-width="0"/>
                <polygon points="150.45 2900.44 422.97 2900.94 424.52 2791.12 151.74 2790.67 150.45 2900.44" fill="url(#u)" stroke-width="0"/>
              </g>
              <g>
                <polygon points="758.91 3098.8 1031.5 3099.38 1033.64 2989.83 760.79 2989.3 758.91 3098.8" fill="url(#v)" stroke-width="0"/>
                <polygon points="453.36 3098.16 725.68 3098.73 727.53 2989.24 454.95 2988.71 453.36 3098.16" fill="url(#w)" stroke-width="0"/>
                <polygon points="148.12 3097.51 420.17 3098.08 421.72 2988.64 149.41 2988.11 148.12 3097.51" fill="url(#x)" stroke-width="0"/>
              </g>
              <g>
                <polygon points="755.54 3295.38 1027.66 3296.05 1029.79 3186.87 757.41 3186.26 755.54 3295.38" fill="url(#y)" stroke-width="0"/>
                <polygon points="450.52 3294.63 722.37 3295.3 724.21 3186.18 452.1 3185.56 450.52 3294.63" fill="url(#z)" stroke-width="0"/>
                <polygon points="145.8 3293.89 417.38 3294.55 418.93 3185.49 147.09 3184.87 145.8 3293.89" fill="url(#aa)" stroke-width="0"/>
              </g>
              <g>
                <polygon points="752.18 3491.28 1023.83 3492.04 1025.96 3383.24 754.04 3382.53 752.18 3491.28" fill="url(#ab)" stroke-width="0"/>
                <polygon points="447.68 3490.44 719.07 3491.19 720.9 3382.45 449.25 3381.74 447.68 3490.44" fill="url(#ac)" stroke-width="0"/>
                <polygon points="143.49 3489.6 414.6 3490.35 416.14 3381.66 144.77 3380.96 143.49 3489.6" fill="url(#ad)" stroke-width="0"/>
              </g>
            </g>
          </g>
          <g>
            <path d="M2591.2,1768.33c.48-20.32,21.35-37.05,46.93-37.05h966.9c25.92,0,51.38,17.6,51.38,38.2v1841.3c0,9.91-7.19,19.41-16.01,26.41-8.83,7-21.91,10.92-34.39,10.89l-1010.94-2.19c-12.58-.03-24.9-4.07-33.69-11.21-8.8-7.15-13.76-17.02-13.52-27.01l43.35-1839.33Z" fill="#bdd0fb" stroke-width="0"/>
            <g opacity=".5">
              <g>
                <polygon points="3303.27 1948.26 3578.72 1947.96 3580.9 1835.77 3305.19 1835.77 3303.27 1948.26" fill="#fff" stroke-width="0"/>
                <polygon points="2994.52 1948.2 3269.7 1947.91 3271.58 1835.77 2996.14 1835.77 2994.52 1948.2" fill="#fff" stroke-width="0"/>
                <polygon points="2686.09 1948.14 2960.98 1947.85 2962.57 1835.77 2687.41 1835.77 2686.09 1948.14" fill="#fff" stroke-width="0"/>
              </g>
              <g>
                <polygon points="3299.83 2149.64 3574.8 2149.78 3576.97 2038.32 3301.74 2038.23 3299.83 2149.64" fill="#fff" stroke-width="0"/>
                <polygon points="2991.62 2149.49 3266.31 2149.63 3268.19 2038.22 2993.23 2038.13 2991.62 2149.49" fill="#fff" stroke-width="0"/>
                <polygon points="2683.72 2149.33 2958.14 2149.47 2959.72 2038.12 2685.04 2038.03 2683.72 2149.33" fill="#fff" stroke-width="0"/>
              </g>
              <g>
                <polygon points="3296.4 2349.65 3570.89 2349.88 3573.06 2238.8 3298.3 2238.62 3296.4 2349.65" fill="#fff" stroke-width="0"/>
                <polygon points="2988.73 2349.39 3262.94 2349.62 3264.81 2238.6 2990.33 2238.42 2988.73 2349.39" fill="#fff" stroke-width="0"/>
                <polygon points="2681.36 2349.13 2955.3 2349.36 2956.88 2238.4 2682.67 2238.22 2681.36 2349.13" fill="#fff" stroke-width="0"/>
              </g>
              <g>
                <polygon points="3292.98 2548.96 3566.99 2549.28 3569.15 2438.58 3294.88 2438.32 3292.98 2548.96" fill="#fff" stroke-width="0"/>
                <polygon points="2985.84 2548.6 3259.58 2548.92 3261.45 2438.28 2987.44 2438.01 2985.84 2548.6" fill="#fff" stroke-width="0"/>
                <polygon points="2679.01 2548.25 2952.48 2548.56 2954.04 2437.98 2680.32 2437.71 2679.01 2548.25" fill="#fff" stroke-width="0"/>
              </g>
              <g>
                <polygon points="3289.57 2747.58 3563.11 2747.99 3565.26 2637.68 3291.46 2637.32 3289.57 2747.58" fill="#fff" stroke-width="0"/>
                <polygon points="2982.97 2747.13 3256.23 2747.53 3258.09 2637.28 2984.56 2636.92 2982.97 2747.13" fill="#fff" stroke-width="0"/>
                <polygon points="2676.67 2746.67 2949.66 2747.08 2951.22 2636.88 2677.97 2636.52 2676.67 2746.67" fill="#fff" stroke-width="0"/>
              </g>
              <g>
                <polygon points="3286.18 2945.52 3559.24 2946.01 3561.39 2836.08 3288.06 2835.64 3286.18 2945.52" fill="#fff" stroke-width="0"/>
                <polygon points="2980.1 2944.97 3252.89 2945.46 3254.75 2835.58 2981.69 2835.14 2980.1 2944.97" fill="#fff" stroke-width="0"/>
                <polygon points="2674.33 2944.41 2946.85 2944.91 2948.41 2835.09 2675.63 2834.64 2674.33 2944.41" fill="#fff" stroke-width="0"/>
              </g>
              <g>
                <polygon points="3282.79 3142.77 3555.39 3143.35 3557.53 3033.8 3284.67 3033.27 3282.79 3142.77" fill="#fff" stroke-width="0"/>
                <polygon points="2977.25 3142.13 3249.57 3142.7 3251.41 3033.21 2978.83 3032.68 2977.25 3142.13" fill="#fff" stroke-width="0"/>
                <polygon points="2672 3141.48 2944.05 3142.05 2945.61 3032.61 2673.3 3032.08 2672 3141.48" fill="#fff" stroke-width="0"/>
              </g>
              <g>
                <polygon points="3279.42 3339.35 3551.55 3340.02 3553.68 3230.84 3281.3 3230.23 3279.42 3339.35" fill="#fff" stroke-width="0"/>
                <polygon points="2974.4 3338.6 3246.25 3339.27 3248.09 3230.15 2975.98 3229.53 2974.4 3338.6" fill="#fff" stroke-width="0"/>
                <polygon points="2669.69 3337.86 2941.27 3338.52 2942.81 3229.46 2670.97 3228.84 2669.69 3337.86" fill="#fff" stroke-width="0"/>
              </g>
              <g>
                <polygon points="3276.06 3535.25 3547.72 3536.01 3549.84 3427.21 3277.93 3426.5 3276.06 3535.25" fill="#fff" stroke-width="0"/>
                <polygon points="2971.57 3534.41 3242.95 3535.16 3244.79 3426.42 2973.14 3425.71 2971.57 3534.41" fill="#fff" stroke-width="0"/>
                <polygon points="2667.37 3533.57 2938.49 3534.32 2940.03 3425.63 2668.66 3424.93 2667.37 3533.57" fill="#fff" stroke-width="0"/>
              </g>
            </g>
          </g>
        </g>
        <g>
          <g>
            <path d="M1629.99,2269.23c-78.91-247.76-231.59-445.21-412.44-561.28-161.67-103.76-278.15-265.37-321.27-452.04-4.53-19.62-9.92-39.3-16.19-58.97-94.91-297.97-355.21-481.12-581.4-409.08-226.2,72.04-332.63,372-237.72,669.97,19.4,60.93,45.73,117.04,77.27,167.15,100.65,159.91,140.03,351.71,103,537.21-33.1,165.78-24.12,352.44,35.04,538.19,88.23,277.03,268.7,491.18,477.66,598.99,79.04,40.78,150.31,95.61,209.33,161.87,98.08,110.11,236.3,161.87,363.29,121.42,136.99-43.64,222.58-182.36,228.74-344.22,3.48-91.59,25.02-181.37,60.12-266.24,82.87-200.36,94.36-452.5,14.57-702.99Z" fill="#91b3fa" stroke-width="0"/>
            <path d="M478.86,1079.62c92.27,187.52,178.42,377.85,262.56,569.08,21.06,47.8,41.34,95.93,61.78,144l30.65,72.11,30.04,72.36c19.84,48.32,40.35,96.36,59.64,144.91l57.88,145.63c37.34,97.58,75.51,194.83,111.03,293.11,17.83,49.11,36.61,97.86,53.44,147.33l51.15,148.15c66.19,198.22,127.42,398.2,178.36,600.91l-8.75,2.3-43.91-150.2-10.89-37.56-11.83-37.29-23.81-74.52-23.66-74.55c-7.84-24.86-16.61-49.44-24.87-74.17-16.85-49.36-33.31-98.84-50.49-148.08-69.98-196.54-142.58-392.14-219.22-586.21-39.07-96.74-77.3-193.82-117.04-290.29l-29.61-72.44-30.22-72.19c-20.12-48.14-40.23-96.28-60.84-144.21-40.39-96.22-81.47-192.16-123.34-287.76-41.37-95.82-83.65-191.27-126.21-286.54l8.18-3.87Z" fill="#fff" opacity=".57" stroke-width="0"/>
          </g>
          <g>
            <path d="M2290.13,1776.76c-36.88-270.58-158.77-502.49-324.29-655.33-147.96-136.63-238.99-324.9-249.95-525.81-1.15-21.12-3.18-42.45-6.1-63.93C1665.44,206.27,1430.1-30.36,1184.14,3.16c-245.96,33.52-409.39,324.5-365.04,649.91,9.07,66.54,26.13,129.35,49.64,186.9,75.02,183.65,81.21,389.18,9.8,574.35-63.82,165.48-88.04,360.19-60.39,563.05,41.24,302.55,188.77,556.77,384.72,706.16,74.12,56.51,137.71,126.14,186.64,205.38,81.3,131.67,214.42,210.26,352.51,191.44,148.96-20.3,262.01-148.28,297.38-314.59,20.01-94.11,58.3-183.07,109.68-264.5,121.3-192.23,178.34-450.95,141.06-724.52Z" fill="#7d97f4" stroke-width="0"/>
            <path d="M1317.45,337.61c61.44,210.69,116.07,423.18,168.47,636.24,13.12,53.26,25.39,106.72,37.83,160.15l18.65,80.14,17.98,80.29c11.78,53.58,24.29,106.99,35.46,160.7l33.52,161.13c20.97,107.7,42.86,215.22,61.83,323.31,9.56,54.03,20.17,107.86,28.64,162.08l26.14,162.52c32.66,217.03,59.88,434.99,76.02,653.89l-9.43.79-18.31-163.33-4.49-40.83-5.51-40.72-11.17-81.4-11.01-81.41c-3.62-27.14-8.25-54.15-12.33-81.23-8.51-54.11-16.6-108.28-25.46-162.32-36.86-215.98-76.59-431.46-120.75-646.1-22.9-107.15-44.89-214.49-68.54-321.49l-17.52-80.29-18.19-80.15c-12.09-53.44-24.19-106.88-36.83-160.2-24.36-106.85-49.48-213.53-75.48-320-25.44-106.61-51.88-213-78.65-319.27l9.12-2.52Z" fill="#fff" opacity=".57" stroke-width="0"/>
          </g>
        </g>
        <g>
          <rect x="1243.22" y="674.42" width="2207.76" height="2962.05" rx="23.03" ry="23.03" fill="url(#ae)" stroke-width="0"/>
          <rect x="1514.1" y="1119.42" width="1661.3" height="2126.87" rx="100.26" ry="100.26" fill="#7d97f4" stroke-width="0"/>
          <rect x="1640.87" y="1294.38" width="1409.06" height="1803.94" rx="22.8" ry="22.8" fill="url(#af)" stroke-width="0"/>
          <circle cx="2343.07" cy="901.55" r="66.05" transform="translate(48.78 1920.86) rotate(-45)" fill="url(#ag)" stroke-width="0"/>
          <path d="M2769.77,1967.77l-849.71,14.13c-64.67,1.08-117.29,51.36-117.29,112.32v535.12c0,60.96,52.62,108.26,117.29,105.66l849.71-34.12c61.04-2.45,110.34-52.19,110.34-111.1v-517.17c0-58.91-49.31-105.85-110.34-104.83Z" fill="url(#ah)" stroke-width="0"/>
          <path d="M2812.77,1870.98c-25.74.38-46.63-19.48-46.63-44.36v-117.12c0-117.49-99.38-212.79-222.41-212.44l-276.81.8c-126.2.36-229.61,98.48-229.61,218.72v119.85c0,25.47-21.91,46.44-48.98,46.84-27.11.4-49.13-19.98-49.13-45.52v-120.22c0-171.61,147.85-311.23,327.72-311.23h276.81c174.77,0,315.53,135.61,315.53,302.29v116.77c0,24.81-20.8,45.23-46.49,45.62Z" fill="url(#ai)" stroke-width="0"/>
          <path d="M2482.39,2264.33c0-59.47-51.91-106.16-115.02-101.87-55.81,3.79-101.96,48.49-104.97,101.85-2.34,41.41,20.42,77.2,55.01,95.31,14.71,7.7,22.02,23.93,19.16,39.98l-24.26,136.15c-3.09,17.34,10.85,32.57,29.18,31.91l62.35-2.23c18.24-.65,32.08-16.82,29.01-33.87l-24.25-134.88c-2.89-16.09,5.47-32.07,20.23-40.89,32.09-19.18,53.56-53.2,53.56-91.45Z" fill="url(#aj)" stroke-width="0"/>
        </g>
        <g>
          <g>
            <path d="M775.81,3641.65c.02-1.16-.06-2.35-.36-3.53-17.62-69.86-105.07-113.37-105.07-113.37l-34.65,2.72c-19.93,61.57-17.36,99.33-14.16,116.15.09.47.23.92.36,1.38,28.59,2.56,87.43,4.22,153.89-3.34Z" fill="url(#ak)" stroke-width="0"/>
            <path d="M621.91,3644.99c1.54,5.62,5.69,9.99,11,11.11,40.67,8.55,105.3,1.67,132.44-1.88,5.99-.78,10.36-6.32,10.46-12.57-66.47,7.57-125.31,5.9-153.89,3.34Z" fill="#91b3fa" stroke-width="0"/>
            <path d="M621.79,3475.85l14.68,70.66c1.08,5.18,5.05,9.05,9.87,9.51,5.9.55,14.29.88,22.74-.36,7.57-1.11,12.84-8.81,11.5-17.06l-10.2-62.74h-48.59Z" fill="url(#al)" stroke-width="0"/>
            <path d="M925.89,3644.1c-38.27-1.07-58.07-5.58-68.3-9.76-.02,3.8,0,7.68.12,11.69.13,4.29,3.31,7.71,7.21,7.68l210.15-1.36c6.71-.04,10.62-7.82,7.72-13.97-27.55,2.28-97.73,7.37-156.89,5.71Z" fill="#91b3fa" stroke-width="0"/>
            <path d="M1082.79,3638.38c-.25-.53-.47-1.08-.83-1.58-18.56-25.93-65.83-77.57-159.23-99.97l-44.81-1.41s-19.95,34.68-20.33,98.92c10.23,4.18,30.03,8.69,68.3,9.76,59.16,1.66,129.34-3.44,156.89-5.71Z" fill="url(#am)" stroke-width="0"/>
            <path d="M867.61,3469.59c.71,3.3,10.03,53.58,13.64,73.07.86,4.63,4.47,8.03,8.76,8.27,7.67.43,20.05.48,30.69-2.41,5.74-1.56,9.6-7.41,9.19-13.91l-5.01-79.52-57.27,14.5Z" fill="url(#an)" stroke-width="0"/>
            <path d="M833.66,2541.31s61.64,423.55,106.12,927.56c.83,9.39-6.65,17.56-15.87,19.5-13.59,2.86-33.56,6.26-50.1,5.8-8.83-.25-16.21-6.79-17.69-15.5-15.15-88.87-123.28-565.8-151.66-670.77,0,0-32.6,445.88-22.18,677.21.26,5.75-3.95,10.74-9.67,11.4-8.68,1-22.56,1.76-40.22-.11-6.71-.71-12.11-5.78-13.07-12.46-10.79-75.21-72.92-522.88-70.28-845.37.15-18.19,21.34-167.61,21.34-167.61l263.29,70.35Z" fill="url(#ao)" stroke-width="0"/>
          </g>
          <path d="M857.55,1829.04l8.25,221.63c23.44,8.07,45.76,14.34,67.01,19.03,13.29-42.79,42.56-95.32,66.53-134.37-88.05-31.13-141.78-106.29-141.78-106.29Z" fill="url(#ap)" stroke-width="0"/>
          <path d="M561.1,2565.72c-6.34-2.25-10.76-8-11.45-14.69-8.2-79.52-47.88-572.59,202.67-775.42,0,0,14.37-37.59,132.47,54.82,118.11,92.41,54.87,189.27,26.6,322.87-34.22,161.67-94.25,293.82-67.69,393.3,1.83,6.87-1.78,14.07-8.44,16.53-91.75,33.81-183.14,34.93-274.16,2.59Z" fill="url(#aq)" stroke-width="0"/>
          <path d="M850.06,1627.87c-.08,7.02-100.13,149.12-100.13,149.12,0,0,17.96,35.37,103.69,64.08l74-152.15-77.57-61.05Z" fill="url(#ar)" stroke-width="0"/>
          <path d="M800.5,2114.13c-.62,0-1.26-.18-1.82-.56-79.93-54-117.52-141.16-117.9-142.04-.7-1.66.07-3.56,1.72-4.26,1.66-.7,3.56.06,4.26,1.72.36.86,37.26,86.3,115.55,139.19,1.49,1,1.88,3.02.87,4.51-.62.93-1.65,1.43-2.69,1.43Z" fill="url(#as)" stroke-width="0"/>
          <path d="M919.55,1993.32c-1.07,0-2.11-.53-2.73-1.49-.24-.37-24.66-38.38-71.17-121.66-14.3-25.61-33.1-41.82-55.86-48.19-37.7-10.53-74.04,9.68-74.4,9.88-1.56.86-3.54.34-4.43-1.22-.89-1.56-.34-3.54,1.22-4.43,1.57-.89,38.94-21.8,79.3-10.5,24.52,6.84,44.66,24.1,59.85,51.29,46.39,83.07,70.71,120.94,70.96,121.32.97,1.5.54,3.52-.97,4.49-.55.35-1.15.52-1.76.52Z" fill="url(#at)" stroke-width="0"/>
          <g>
            <path d="M928.84,1546.44s35.6,81.78,37.99,124.7c2.39,42.92,11.64,70.77-37.99,79.42-49.63,8.64-91.44-16.08-114.09-58.84,0,0-35.49-65.88-27.53-92.86,7.96-26.98,141.61-52.42,141.61-52.42Z" fill="url(#au)" stroke-width="0"/>
            <path d="M831.71,1660.98l2.83-1.25c3.6-1.59,5.14-5.87,3.33-9.36-7-13.52-20.64-44.51-3.02-51.74,22.71-9.32,112.69-27.66,132.1-59.59,18.66-30.68,2.13-70.29-22.72-81.56-1.66-.75-3.62-.16-4.48,1.46l-2.07,3.92c-1.42,2.68-5.38,2.28-6.22-.64h0c-.81-2.8-4.53-3.34-6.07-.87-5.97,9.55-22.08,25.04-65.16,32.99-61.23,11.3-101.71,36.08-102.71,78.39-.06,2.69-2.92,4.18-5.22,2.78-4.52-2.75-11.75-4.05-21.42,4.08-16.82,14.14-9.93,50.81,26.93,80.98,1.75,1.43,1.74,4.17-.16,5.4-6.68,4.35-16.64,14.7,9.17,28.5,26.7,14.27,46.64,13.1,54.31,11.83,1.91-.32,3.14-2.16,2.72-4.05l-8.19-37.19c-.46-2.1,1.14-4.1,3.29-4.1h12.76Z" fill="url(#av)" stroke-width="0"/>
            <path d="M833.25,1668.83s-13.58-52.24-37-37.59c-23.42,14.65,12.15,58.53,30.98,60.49l6.02-22.89Z" fill="url(#aw)" stroke-width="0"/>
          </g>
          <path d="M1294.22,1812.37s-17.84-31.64-16.71-47.01c1.14-15.37-8.44-37.94,1.75-36.27,10.19,1.67,12.3.31,15.06,18.75,2.77,18.44,34.93,99-.1,64.53Z" fill="url(#ax)" stroke-width="0"/>
          <path d="M1297.57,1762.07l-.41,63.2c-120.79,130.41-218.55,138.09-297.84,110.06-23.97,39.05-53.23,91.57-66.53,134.37,322.56,71.11,398.52-225.42,398.52-225.42,43.69-18.1,52.5-28.68,50.62-40.54l-84.37-41.67Z" fill="url(#ay)" stroke-width="0"/>
          <path d="M1390.47,1699.37c-10.31-4.19-30.48-42.65-34.35-29.99-3.86,12.65,1.63,29.99,0,35.37-1.63,5.38-26.78,67.28-21.76,81.03,3.62,9.92,23.59,8.46,26.64,24.69,1.01,5.39,5.32,9.25,10.31,9.26,4.99,0,9.3-3.86,10.32-9.24.41-2.16,19.14-106.93,8.83-111.12Z" fill="url(#az)" stroke-width="0"/>
          <g>
            <path d="M1061.23,1567.74c-81.45,161.1-16.89,357.72,144.21,439.17,130.94,66.2,285.34,35.94,382.3-64.21l559.72,282.99c9.3,4.7,20.35,4.32,29.3-1.01l54.74-32.61c.94-.56,1.83-1.18,2.69-1.83.24-.18.47-.38.71-.56.64-.51,1.25-1.04,1.84-1.59.2-.19.4-.37.59-.57.73-.72,1.42-1.47,2.06-2.25,0-.01.02-.02.03-.03,6.87-8.37,8.97-20.04,4.76-30.59l-44.49-111.51c-2.75-6.89-7.92-12.53-14.53-15.88l-56.06-28.34-14.84,29.34-48.16-24.35,14.84-29.34-45.06-22.78-13.65,26.99-58.53-29.59,13.65-26.99-21.81-11.03-7.03,13.89-49.07-24.81,7.03-13.9-38.17-19.3-14.84,29.34-27.26-13.78,14.84-29.34-23.63-11.95-14.84,29.34-47.25-23.89,14.84-29.34-66.42-33.58h0l-28.44-14.38c23.17-137.46-43.99-279.74-174.93-345.95-161.1-81.45-357.72-16.88-439.17,144.21ZM1251.93,1590c32.62,16.49,45.7,56.31,29.2,88.93-16.49,32.62-56.31,45.69-88.93,29.2-32.62-16.49-45.7-56.31-29.2-88.93,16.49-32.62,56.31-45.69,88.93-29.2Z" fill="url(#ba)" stroke-width="0"/>
            <path d="M1514.92,1666.46l265.34,134.15-14.84,29.34,47.25,23.89,14.84-29.34,23.63,11.95-14.84,29.34,27.26,13.78,14.84-29.34,38.17,19.3-7.03,13.9,49.07,24.81,7.03-13.9,21.81,11.03-13.65,26.99,58.53,29.59,13.65-26.99,45.06,22.78-14.84,29.34,48.16,24.35,14.84-29.34,56.06,28.35c6.62,3.35,11.79,8.99,14.53,15.88l44.49,111.51c5.54,13.9.16,29.76-12.69,37.42l-54.74,32.61c-8.95,5.33-20.01,5.71-29.3,1.01l-675.68-341.62,33.06-200.79Z" fill="url(#bb)" stroke-width="0"/>
            <path d="M1215.52,1990.09c161.1,81.45,357.72,16.88,439.17-144.21,81.45-161.1,16.89-357.72-144.21-439.17-161.1-81.45-357.72-16.88-439.17,144.21-81.45,161.1-16.89,357.72,144.21,439.17ZM1202.28,1691.3c-32.62-16.49-45.7-56.31-29.2-88.93,16.49-32.62,56.31-45.69,88.93-29.2,32.62,16.49,45.7,56.31,29.2,88.93-16.49,32.62-56.31,45.69-88.93,29.2Z" fill="url(#bc)" stroke-width="0"/>
            <path d="M1597.82,1925.87l559.72,282.99c9.3,4.7,20.35,4.32,29.3-1.01l54.74-32.61c8.26-4.92,13.37-13.23,14.55-22.22-51.01-55.27-535.93-267.02-554.06-310.6-6.45-15.5-7.56-38.98,11.77-75.39l-28.44-14.38c23.17-137.46-43.99-279.74-174.93-345.95-161.1-81.45-357.72-16.88-439.17,144.21-81.45,161.1-16.89,357.72,144.21,439.17,130.94,66.2,285.34,35.94,382.3-64.21ZM1262.01,1573.17c32.62,16.49,45.7,56.31,29.2,88.93-16.49,32.62-56.31,45.69-88.93,29.2-32.62-16.49-45.7-56.31-29.2-88.93,16.49-32.62,56.31-45.69,88.93-29.2Z" fill="url(#bd)" stroke-width="0"/>
            <path d="M1244.46,1932.84c129.48,65.47,287.51,13.57,352.98-115.91,65.46-129.48,13.57-287.51-115.91-352.98-129.48-65.47-287.51-13.57-352.98,115.91-65.46,129.48-13.57,287.51,115.91,352.98ZM1202.28,1691.3c-32.62-16.49-45.7-56.31-29.2-88.93,16.49-32.62,56.31-45.69,88.93-29.2,32.62,16.49,45.7,56.31,29.2,88.93-16.49,32.62-56.31,45.69-88.93,29.2Z" fill="url(#be)" stroke-width="0"/>
          </g>
          <path d="M800.5,2114.13s307.8,103.04,479.97-28.04c10.68-8.13,24.15-11.67,37.4-9.52l65.77,10.72c27.61,4.5,53.91-13.39,59.86-40.72,3.39-15.59,5.03-32.64,1.57-47.29l-124.17-7.49,3.55-16.11s-54.88,13.42-55.99,56.36c0,0-128.74,84.33-363.54-46.56,0,0-91.44,71.56-104.43,128.66Z" fill="url(#bf)" stroke-width="0"/>
        </g>
        <g>
          <g>
            <g opacity=".3">
              <path d="M3177.91,570.95c-7.17-.29-12.74-6.34-12.44-13.51.57-13.92.55-28.08-.08-42.07-.31-7.08,5.1-13.09,12.15-13.53.08,0,.17-.01.25-.02,7.16-.32,13.23,5.23,13.55,12.4.65,14.73.68,29.63.08,44.29-.27,6.7-5.59,12.01-12.14,12.43-.45.03-.91.04-1.37.02ZM3157.7,447.46c-2.52-13.77-5.66-27.57-9.32-41.01-1.88-6.92,2.19-14.06,9.11-15.94,6.95-1.87,14.06,2.2,15.95,9.12,3.86,14.15,7.16,28.67,9.81,43.16,1.29,7.05-3.38,13.82-10.44,15.11-.51.09-1.02.16-1.53.19-6.48.41-12.38-4.08-13.58-10.62ZM3125.87,341.95c-5.51-12.83-11.64-25.58-18.24-37.89-3.38-6.32-1-14.19,5.32-17.58,6.32-3.37,14.19-1,17.58,5.32,6.94,12.97,13.4,26.39,19.2,39.9,2.83,6.59-.22,14.23-6.81,17.06-1.41.6-2.86.94-4.3,1.03-5.33.34-10.53-2.66-12.76-7.84ZM3071.25,246.21c-8.25-11.29-17.08-22.35-26.25-32.88-4.71-5.41-4.15-13.61,1.26-18.32,5.41-4.7,13.61-4.14,18.32,1.26,9.66,11.09,18.96,22.73,27.64,34.61,4.23,5.79,2.97,13.92-2.82,18.15-2.07,1.51-4.44,2.33-6.83,2.48-4.28.27-8.6-1.58-11.32-5.29ZM2996.66,165.03c-10.52-9.15-21.59-17.99-32.89-26.25-5.79-4.24-7.05-12.36-2.82-18.15,4.24-5.79,12.36-7.05,18.15-2.81,11.89,8.69,23.53,17.99,34.6,27.62,5.41,4.7,5.98,12.91,1.27,18.32-2.37,2.73-5.63,4.23-8.98,4.44-3.29.21-6.66-.83-9.35-3.16ZM2905.96,102.37c-12.3-6.61-25.04-12.77-37.87-18.31-6.58-2.85-9.61-10.49-6.77-17.07,2.85-6.59,10.49-9.62,17.07-6.77,13.5,5.83,26.91,12.32,39.86,19.28,6.32,3.4,8.69,11.27,5.29,17.59-2.2,4.1-6.3,6.54-10.63,6.82-2.34.15-4.74-.33-6.96-1.52ZM2423.74,96.32c-3.38-6.33-.98-14.2,5.35-17.57,12.97-6.91,26.41-13.35,39.96-19.14,6.6-2.82,14.23.25,17.04,6.84,2.82,6.59-.25,14.22-6.84,17.04-12.86,5.49-25.63,11.61-37.94,18.18-1.69.9-3.48,1.39-5.28,1.5-4.93.31-9.82-2.21-12.29-6.85ZM2803.7,61.4c-13.46-3.71-27.24-6.87-40.97-9.41-7.05-1.31-11.72-8.08-10.41-15.13,1.3-7.06,8.08-11.68,15.13-10.41,14.46,2.67,28.97,6,43.14,9.91,6.91,1.9,10.98,9.05,9.07,15.97-1.51,5.48-6.32,9.17-11.7,9.52-1.4.09-2.84-.05-4.27-.45ZM2527.88,51.97c-1.87-6.92,2.22-14.05,9.15-15.93,14.18-3.83,28.72-7.1,43.2-9.73,7.06-1.31,13.81,3.41,15.1,10.46,1.28,7.06-3.41,13.81-10.46,15.1-13.76,2.5-27.58,5.6-41.06,9.25-.86.23-1.72.37-2.58.42-6.03.38-11.71-3.51-13.35-9.57ZM2694.86,44.32c-13.94-.6-28.09-.61-42.06-.01-7.17.31-13.22-5.26-13.53-12.42-.3-7.07,5.12-13.06,12.15-13.51.09,0,.19-.01.28-.01,14.71-.63,29.6-.62,44.27,0,7.17.31,12.73,6.37,12.42,13.54-.29,6.69-5.6,11.99-12.14,12.4-.46.03-.93.03-1.39.02Z" fill="#91b3fa" stroke-width="0"/>
              <path d="M2359.78,153.19c2.55-.16,5.08-1.07,7.24-2.79,5.24-4.17,10.66-8.29,16.1-12.26,5.79-4.23,7.06-12.35,2.84-18.14-4.23-5.8-12.36-7.07-18.15-2.83-5.73,4.18-11.42,8.51-16.94,12.89-5.62,4.46-6.56,12.63-2.1,18.24,2.75,3.46,6.91,5.15,11.01,4.89Z" fill="#91b3fa" stroke-width="0"/>
            </g>
            <g opacity=".3">
              <path d="M2170.45,500.93c6.26-.4,11.47-5.28,12.09-11.72.64-6.66,1.42-13.43,2.34-20.1.98-7.11-3.99-13.66-11.1-14.64-7.14-.98-13.66,3.99-14.64,11.1-.96,7.02-1.8,14.15-2.47,21.16-.68,7.14,4.55,13.48,11.69,14.17.7.07,1.4.07,2.08.03Z" fill="#91b3fa" stroke-width="0"/>
              <path d="M2679.89,1055.35c-7.17.1-13.07-5.63-13.17-12.8-.1-7.17,5.62-13.05,12.8-13.17,13.65-.2,27.51-.98,41.35-2.32,7.1-.72,13.49,4.53,14.18,11.67.69,7.14-4.53,13.49-11.67,14.19-5.99.58-11.97,1.07-17.94,1.44-8.51.54-17.11.88-25.55,1ZM2777.56,1031.65c-1.65-6.98,2.66-13.97,9.64-15.63,13.4-3.18,26.81-6.95,39.85-11.23,6.8-2.25,14.15,1.48,16.39,8.3,2.23,6.81-1.48,14.15-8.3,16.38-13.74,4.5-27.85,8.48-41.95,11.82-.73.17-1.46.28-2.19.33-6.2.39-11.96-3.72-13.44-9.97ZM2609.22,1051.52c-14.34-1.77-28.8-4.17-42.98-7.16-7.02-1.48-11.51-8.36-10.04-15.38,1.48-7.02,8.36-11.5,15.38-10.03,13.47,2.84,27.2,5.12,40.81,6.8,7.12.88,12.18,7.36,11.3,14.48-.78,6.3-5.94,10.98-12.05,11.37-.79.05-1.61.03-2.43-.07ZM2883.38,996.89c-3.15-6.44-.47-14.22,5.97-17.37,12.36-6.03,24.6-12.66,36.39-19.71,6.16-3.68,14.13-1.67,17.81,4.49,3.68,6.16,1.67,14.13-4.48,17.81-12.42,7.42-25.31,14.41-38.32,20.76-1.57.77-3.22,1.19-4.87,1.3-5.1.32-10.12-2.4-12.5-7.27ZM2498.2,1025.08c-13.59-4.88-27.16-10.4-40.34-16.43-6.52-2.98-9.39-10.68-6.41-17.21,2.98-6.53,10.69-9.4,17.21-6.41,12.52,5.72,25.41,10.97,38.32,15.6,6.75,2.42,10.26,9.86,7.84,16.61-1.81,5.03-6.39,8.26-11.41,8.58-1.72.11-3.48-.12-5.2-.74ZM2395.67,974.94c-12.23-7.75-24.27-16.1-35.79-24.83-5.72-4.33-6.84-12.48-2.51-18.2,4.34-5.72,12.48-6.85,18.19-2.51,10.95,8.29,22.39,16.23,34.01,23.6,6.06,3.84,7.86,11.86,4.02,17.92-2.32,3.65-6.15,5.75-10.16,6.01-2.64.17-5.36-.47-7.76-1.99ZM2306.5,903.64c-10.25-10.23-20.19-21.01-29.53-32.03-4.64-5.48-3.96-13.67,1.51-18.3,5.48-4.64,13.67-3.96,18.3,1.51,8.87,10.48,18.32,20.72,28.06,30.44,5.08,5.07,5.09,13.29.02,18.36-2.33,2.33-5.32,3.6-8.37,3.79-3.59.23-7.26-1.03-10-3.77ZM2235,814.59c-7.77-12.23-15.1-24.92-21.8-37.75-3.32-6.36-.86-14.2,5.5-17.52,6.35-3.32,14.2-.86,17.52,5.5,6.36,12.17,13.32,24.23,20.7,35.84,3.85,6.05,2.06,14.08-4,17.92-1.91,1.21-4.02,1.87-6.13,2-4.57.29-9.16-1.85-11.8-6ZM2184.8,711.95c-4.87-13.6-9.22-27.6-12.94-41.59-1.84-6.93,2.29-14.05,9.22-15.89,6.91-1.83,14.04,2.29,15.88,9.22,3.53,13.3,7.66,26.59,12.29,39.51,2.42,6.75-1.1,14.19-7.85,16.6-1.18.42-2.37.66-3.56.74-5.63.36-11.05-3.01-13.04-8.59ZM2158.38,600.91c-1.32-10.57-2.33-21.3-3.01-31.91-.24-3.84-.44-7.67-.6-11.5-.3-7.16,5.17-13.35,12.43-13.51,7.17-.3,13.22,5.27,13.52,12.43.15,3.63.34,7.28.57,10.93.64,10.09,1.6,20.29,2.86,30.33.89,7.12-4.16,13.61-11.27,14.5-.27.03-.54.06-.8.08-6.8.43-12.84-4.5-13.7-11.35Z" fill="#91b3fa" stroke-width="0"/>
              <path d="M2990.17,944.33c2.58-.16,5.13-1.09,7.29-2.83,5.48-4.4,10.98-9,16.33-13.67,5.41-4.71,5.97-12.92,1.25-18.32-4.72-5.4-12.91-5.97-18.32-1.25-5.09,4.44-10.31,8.8-15.51,12.98-5.59,4.48-6.49,12.66-2.01,18.25,2.75,3.43,6.89,5.09,10.96,4.83Z" fill="#91b3fa" stroke-width="0"/>
            </g>
            <g>
              <path d="M3014.7,723.05c1.51-2.11,1.51-4.94.01-7.05l-42.78-60.23c13.15-31.9,21.3-66.12,23.64-101.55l64.92-35.16c2.28-1.23,3.52-3.78,3.1-6.33l-14.5-87.42c-.42-2.56-2.42-4.56-4.97-4.99l-72.79-12.32c-13.64-32.78-32.41-62.54-55.15-88.48l21.05-70.81c.74-2.48-.18-5.16-2.29-6.67l-72.06-51.56c-2.11-1.51-4.94-1.51-7.05-.01l-60.22,42.78c-31.9-13.15-66.12-21.31-101.55-23.64l-35.16-64.92c-1.23-2.28-3.78-3.52-6.33-3.1l-87.42,14.5c-2.55.42-4.56,2.42-4.99,4.97l-12.32,72.79c-32.78,13.64-62.54,32.41-88.48,55.15l-70.81-21.05c-2.48-.74-5.16.18-6.67,2.29l-51.56,72.06c-1.51,2.11-1.51,4.94-.01,7.05l42.79,60.23c-13.15,31.9-21.3,66.12-23.64,101.55l-64.92,35.16c-2.28,1.23-3.52,3.77-3.1,6.33l14.5,87.42c.42,2.55,2.42,4.56,4.97,4.99l72.79,12.32c13.64,32.78,32.41,62.54,55.15,88.48l-21.05,70.81c-.74,2.48.18,5.16,2.29,6.67l72.07,51.56c2.11,1.51,4.94,1.51,7.05.01l60.23-42.79c31.9,13.15,66.12,21.3,101.55,23.64l35.16,64.92c1.23,2.27,3.77,3.52,6.33,3.1l87.42-14.5c2.55-.42,4.56-2.42,4.99-4.97l12.32-72.79c32.78-13.64,62.54-32.41,88.48-55.15l70.81,21.05c2.48.74,5.16-.18,6.67-2.29l51.56-72.07Z" fill="#91b3fa" stroke-width="0"/>
              <path d="M2665.12,621.45c-48.94-4.07-85.45-47.2-81.39-96.15,1.97-23.71,13.06-45.24,31.22-60.61,18.15-15.37,41.21-22.76,64.93-20.78,48.95,4.07,85.45,47.2,81.39,96.15-3.7,44.53-39.73,78.76-83.06,81.51-4.3.27-8.67.24-13.08-.13ZM2628.38,480.56c-13.92,11.79-22.42,28.29-23.93,46.47-3.12,37.52,24.87,70.6,62.4,73.71,37.54,3.13,70.6-24.87,73.72-62.4,3.12-37.52-24.87-70.6-62.4-73.71-3.4-.28-6.78-.31-10.13-.1-14.53.92-28.34,6.46-39.65,16.03Z" fill="#bdd0fb" stroke-width="0"/>
              <path d="M2684.53,750.08c7.44-.47,14.9-1.32,22.36-2.56h0c2.35-.39,4.69-.82,7.02-1.28,11.51-2.29,22.82-5.49,33.75-9.56.15-.06.3-.11.45-.17.42-.16.84-.32,1.27-.48.82-.31,1.64-.63,2.46-.95,2.15-.85,3.41-2.97,3.28-5.15-.03-.53-.15-1.07-.36-1.59-1.05-2.67-4.07-3.97-6.74-2.92-13.73,5.43-28.13,9.42-42.82,11.85-72.93,12.11-143.44-15.38-189.52-66.68-25.63-28.53-43.71-64.43-50.43-105-1.18-7.11-1.99-14.23-2.44-21.33-3.03-47.77,10.36-94.74,38.59-134.19,32.43-45.32,80.56-75.3,135.53-84.42,113.54-18.82,221.13,58.2,239.95,171.68,1.16,7,1.96,14.03,2.41,21.06,1.93,30.47-2.83,61.03-14.05,89.46-.29.74-.4,1.49-.35,2.23.12,1.94,1.34,3.74,3.28,4.5,2.67,1.05,5.69-.25,6.74-2.93,11.77-29.85,16.77-61.93,14.75-93.92-.47-7.38-1.31-14.76-2.52-22.1-19.76-119.15-132.79-199.98-251.89-180.24-57.71,9.57-108.24,41.04-142.28,88.62-29.64,41.42-43.69,90.73-40.51,140.88.47,7.45,1.33,14.93,2.56,22.39,9.57,57.72,41.05,108.25,88.62,142.29,41.43,29.64,90.75,43.69,140.91,40.5Z" fill="#bdd0fb" stroke-width="0"/>
            </g>
          </g>
          <g>
            <g opacity=".3">
              <path d="M3643.25,884.42c3.46-.22,6.51-2.68,7.31-6.24,1.5-6.64,2.82-13.42,3.92-20.15.72-4.37-2.25-8.49-6.62-9.21-4.38-.73-8.49,2.25-9.21,6.62-1.05,6.41-2.31,12.87-3.74,19.21-.98,4.32,1.74,8.61,6.06,9.59.77.17,1.53.22,2.28.18Z" fill="#91b3fa" stroke-width="0"/>
              <path d="M3650.44,823.25c-4.43-.17-7.88-3.9-7.71-8.33.42-11.17.28-22.5-.42-33.65-.15-2.35-.33-4.71-.53-7.08-.37-4.41,2.9-8.29,7.32-8.67,4.19-.19,8.29,2.9,8.67,7.32.21,2.48.39,4.94.55,7.41.74,11.69.89,23.57.44,35.28-.16,4.15-3.44,7.44-7.5,7.7-.27.02-.54.02-.82.01ZM3635.88,733.89c-2.78-13.27-6.4-26.48-10.77-39.28-1.43-4.19.8-8.75,5-10.18,4.17-1.42,8.75.8,10.18,5,4.58,13.41,8.38,27.26,11.29,41.17.91,4.34-1.87,8.59-6.21,9.5-.38.08-.77.13-1.14.15-3.92.25-7.52-2.41-8.35-6.36ZM3609.56,656.96c-5.93-12.17-12.69-24.08-20.1-35.43-2.42-3.71-1.37-8.68,2.34-11.1,3.72-2.43,8.68-1.38,11.1,2.33,7.76,11.9,14.85,24.41,21.08,37.16,1.94,3.98.29,8.79-3.69,10.73-.97.47-1.99.73-3.01.8-3.15.2-6.25-1.48-7.72-4.49ZM3565.14,588.85c-8.75-10.35-18.22-20.26-28.15-29.43-3.26-3.01-3.46-8.08-.45-11.34,3-3.24,8.08-3.46,11.33-.45,10.41,9.62,20.34,20,29.52,30.86,2.86,3.38,2.43,8.45-.95,11.31-1.37,1.15-3,1.77-4.66,1.87-2.45.16-4.94-.81-6.64-2.83ZM3505.44,533.65c-11-7.91-22.59-15.21-34.45-21.71-3.88-2.12-5.31-7-3.18-10.89,2.13-3.89,7-5.32,10.89-3.18,12.43,6.81,24.58,14.47,36.11,22.75,3.59,2.59,4.41,7.6,1.83,11.19-1.46,2.03-3.7,3.18-6.01,3.32-1.79.11-3.62-.37-5.19-1.49ZM3434.15,494.61c-12.58-4.99-25.59-9.25-38.67-12.64-4.29-1.11-6.86-5.49-5.75-9.78,1.11-4.29,5.48-6.85,9.78-5.75,13.72,3.56,27.37,8.02,40.56,13.26,4.11,1.64,6.13,6.3,4.5,10.41-1.18,2.98-3.95,4.86-6.95,5.05-1.15.07-2.33-.1-3.47-.55ZM3355.5,474.2c-13.38-1.75-27.05-2.68-40.63-2.76-4.43-.03-8-3.64-7.97-8.07.02-4.43,3.63-7.93,8.07-7.98,14.24.09,28.57,1.07,42.6,2.9,4.39.58,7.49,4.6,6.92,9-.5,3.86-3.69,6.72-7.44,6.96-.51.03-1.03.02-1.55-.05ZM3224.42,475.02c-1.05-4.3,1.59-8.64,5.89-9.69,11.91-2.91,24.19-5.21,36.46-6.84,1.86-.26,3.72-.49,5.58-.71,4.36-.64,8.38,2.64,8.89,7.05.51,4.4-2.64,8.38-7.05,8.89-1.75.2-3.49.42-5.27.66-11.74,1.56-23.45,3.76-34.82,6.53-.47.12-.94.18-1.4.21-3.81.24-7.36-2.27-8.29-6.11Z" fill="#91b3fa" stroke-width="0"/>
            </g>
            <g opacity=".3">
              <path d="M3329.68,1147.89c-13.96.71-28.09.56-41.99-.42-4.42-.32-7.75-4.15-7.44-8.57.31-4.42,4.18-7.71,8.57-7.44,13.25.94,26.73,1.07,40.05.4,4.42-.23,8.19,3.18,8.41,7.61.22,4.39-3.13,8.13-7.5,8.41-.04,0-.07,0-.11,0ZM3362.17,1136.71c-.75-4.36,2.18-8.51,6.54-9.26,13.13-2.26,26.26-5.34,39.02-9.16,4.22-1.25,8.71,1.14,9.98,5.39,1.27,4.24-1.14,8.71-5.39,9.98-13.37,4-27.13,7.22-40.89,9.59-.29.05-.57.08-.86.1-4.03.26-7.7-2.56-8.4-6.65ZM3246.04,1141.95c-13.73-2.69-27.4-6.24-40.65-10.56-4.21-1.37-6.52-5.9-5.14-10.11,1.37-4.22,5.88-6.5,10.11-5.15,12.64,4.12,25.68,7.51,38.78,10.08,4.35.85,7.18,5.07,6.33,9.41-.72,3.66-3.81,6.24-7.36,6.46-.67.04-1.36,0-2.06-.14ZM3441.22,1115.05c-1.78-4.06.07-8.79,4.13-10.57,12.2-5.35,24.19-11.5,35.65-18.3,3.81-2.25,8.73-.99,10.99,2.8,2.26,3.81,1.01,8.73-2.81,10.99-12.01,7.13-24.59,13.59-37.39,19.19-.89.39-1.8.6-2.71.66-3.27.21-6.46-1.61-7.85-4.78ZM3166.34,1115.97c-12.65-5.9-25.06-12.64-36.91-20.03-3.76-2.34-4.91-7.29-2.56-11.05,2.34-3.76,7.29-4.91,11.05-2.56,11.3,7.05,23.14,13.48,35.21,19.1,4.01,1.87,5.75,6.64,3.87,10.66-1.28,2.75-3.93,4.43-6.77,4.61-1.29.08-2.63-.15-3.89-.73ZM3095.19,1071.63c-10.89-8.78-21.34-18.29-31.06-28.28-3.09-3.17-3.02-8.25.15-11.34,3.17-3.09,8.25-3.03,11.34.15,9.27,9.52,19.24,18.6,29.63,26.97,3.45,2.78,3.99,7.83,1.21,11.28-1.47,1.82-3.57,2.83-5.74,2.97-1.93.12-3.91-.45-5.54-1.76ZM3036.7,1011.52c-8.48-11.13-16.34-22.89-23.38-34.92-2.24-3.83-.95-8.74,2.88-10.97,3.82-2.24,8.74-.94,10.97,2.87,6.71,11.48,14.21,22.68,22.29,33.29,2.68,3.53,2,8.56-1.52,11.24-1.31,1-2.82,1.53-4.34,1.63-2.59.16-5.21-.92-6.9-3.14Z" fill="#91b3fa" stroke-width="0"/>
              <path d="M3519.85,1077.82c1.54-.1,3.08-.64,4.39-1.66,5.43-4.2,10.76-8.58,15.85-13.01,3.34-2.91,3.68-7.98.77-11.32-2.92-3.32-7.98-3.68-11.32-.77-4.85,4.23-9.94,8.41-15.12,12.42-3.51,2.71-4.15,7.75-1.44,11.25,1.69,2.18,4.29,3.26,6.86,3.1Z" fill="#91b3fa" stroke-width="0"/>
            </g>
            <g>
              <path d="M3541.14,926.61c1.01-1.41,1.01-3.3,0-4.72l-28.63-40.3c8.8-21.34,14.25-44.24,15.82-67.95l43.44-23.53c1.52-.83,2.36-2.53,2.07-4.24l-9.7-58.5c-.28-1.71-1.62-3.05-3.33-3.34l-48.71-8.25c-9.13-21.93-21.69-41.85-36.9-59.21l14.09-47.38c.49-1.66-.12-3.45-1.53-4.46l-48.22-34.5c-1.41-1.01-3.3-1.01-4.72,0l-40.3,28.63c-21.34-8.8-44.24-14.26-67.95-15.82l-23.53-43.44c-.83-1.52-2.53-2.36-4.24-2.07l-58.5,9.7c-1.71.28-3.05,1.62-3.34,3.33l-8.25,48.71c-21.93,9.13-41.85,21.69-59.21,36.9l-47.38-14.09c-1.66-.49-3.45.12-4.46,1.53l-34.5,48.22c-1.01,1.41-1.01,3.3,0,4.71l28.63,40.3c-8.8,21.34-14.26,44.24-15.82,67.95l-43.44,23.53c-1.52.82-2.36,2.53-2.07,4.24l9.7,58.5c.28,1.71,1.62,3.05,3.33,3.34l48.71,8.25c9.13,21.93,21.69,41.85,36.9,59.21l-14.09,47.38c-.49,1.66.12,3.45,1.53,4.46l48.22,34.5c1.41,1.01,3.3,1.01,4.72,0l40.3-28.63c21.34,8.8,44.24,14.26,67.95,15.82l23.53,43.44c.83,1.52,2.53,2.36,4.24,2.07l58.5-9.7c1.71-.28,3.05-1.62,3.34-3.33l8.25-48.71c21.93-9.13,41.85-21.69,59.21-36.9l47.38,14.09c1.66.49,3.45-.12,4.46-1.53l34.5-48.22Z" fill="#91b3fa" stroke-width="0"/>
              <path d="M3307.13,859.69c-16.16-1.34-30.82-8.89-41.29-21.26-10.47-12.36-15.5-28.07-14.15-44.23,2.77-33.34,32.1-58.16,65.49-55.44,33.34,2.78,58.21,32.16,55.43,65.49-1.34,16.15-8.89,30.81-21.26,41.28-10.06,8.51-22.32,13.42-35.23,14.24-2.97.19-5.98.16-8.99-.09ZM3267.68,795.52c-.99,11.88,2.71,23.44,10.41,32.54,7.7,9.09,18.49,14.65,30.37,15.64h0c11.88.97,23.43-2.71,32.54-10.42,9.1-7.7,14.65-18.49,15.64-30.36,2.04-24.52-16.25-46.13-40.78-48.18-2.21-.18-4.4-.2-6.55-.06-21.71,1.38-39.77,18.54-41.62,40.84Z" fill="#bdd0fb" stroke-width="0"/>
              <path d="M3320.65,949.22c5.07-.32,10.15-.9,15.27-1.75,10.15-1.68,20.14-4.39,29.71-8.08.43-.17.86-.34,1.29-.51,3.32-1.31,5.27-4.58,5.06-7.96-.05-.82-.23-1.65-.55-2.45-1.63-4.12-6.29-6.12-10.41-4.5-8.91,3.52-18.23,6.1-27.71,7.67h0c-.52.09-1.04.17-1.56.25-22.48,3.51-44.98,1.28-65.85-6.19-11.33-4.05-22.18-9.66-32.28-16.75-.08-.06-.16-.11-.25-.17-.25-.18-.5-.35-.75-.53-29.34-20.99-48.75-52.15-54.65-87.74-.77-4.61-1.29-9.21-1.58-13.81-1.96-30.93,6.71-61.33,24.98-86.88,20.99-29.34,52.16-48.74,87.74-54.64,35.57-5.88,71.35,2.41,100.69,23.4,29.34,20.99,48.75,52.15,54.65,87.74.75,4.53,1.27,9.08,1.56,13.63,1.25,19.73-1.83,39.51-9.09,57.91-.45,1.14-.62,2.31-.54,3.45.19,3,2.07,5.78,5.06,6.95,4.13,1.61,8.78-.39,10.41-4.52,8.12-20.59,11.57-42.73,10.18-64.79-.32-5.1-.9-10.19-1.74-15.25-6.6-39.82-28.32-74.68-61.15-98.17-32.82-23.48-72.81-32.81-112.64-26.18-39.82,6.6-74.68,28.31-98.16,61.14-20.45,28.57-30.14,62.59-27.95,97.19.33,5.14.91,10.29,1.77,15.44,12.79,77.09,82.15,130.94,158.52,126.09Z" fill="#bdd0fb" stroke-width="0"/>
            </g>
          </g>
        </g>
      </g>
    </g>
  </g>
</svg>