<svg width="20" height="20" viewBox="0 0 20 20" fill="none" xmlns="http://www.w3.org/2000/svg">
<g id="Moon">
<path id="Vector" d="M18.4665 10.8906C18.3463 10.7701 18.1955 10.6846 18.0303 10.6433C17.8651 10.602 17.6918 10.6065 17.529 10.6562C16.3916 10.9996 15.1824 11.028 14.0301 10.7385C12.8778 10.4489 11.8257 9.8522 10.9857 9.01192C10.1457 8.17165 9.54943 7.11926 9.26031 5.96687C8.97118 4.81448 9.00006 3.60524 9.34386 2.46797C9.39402 2.30508 9.39882 2.1316 9.35776 1.96619C9.31669 1.80077 9.23131 1.64968 9.11079 1.52917C8.99027 1.40865 8.83918 1.32327 8.67377 1.2822C8.50836 1.24113 8.33488 1.24594 8.17199 1.29609C6.46136 1.82187 4.96018 2.87387 3.88214 4.30234C2.93941 5.55538 2.36451 7.04635 2.22196 8.60793C2.0794 10.1695 2.37482 11.7399 3.07508 13.143C3.77534 14.546 4.85272 15.7261 6.18634 16.5509C7.51996 17.3757 9.05704 17.8126 10.6251 17.8125C12.4559 17.8179 14.2378 17.2226 15.6978 16.118C17.1255 15.0389 18.1764 13.5368 18.7009 11.8258C18.7502 11.6633 18.7544 11.4905 18.7131 11.3258C18.6718 11.1611 18.5866 11.0107 18.4665 10.8906ZM14.5696 14.6203C13.306 15.5716 11.7412 16.0345 10.1634 15.9238C8.58555 15.8131 7.10078 15.1362 5.98233 14.0178C4.86388 12.8993 4.18702 11.4146 4.07631 9.83672C3.9656 8.25888 4.4285 6.69414 5.3798 5.43047C5.88037 4.76833 6.50074 4.206 7.20871 3.77266C7.19464 3.97266 7.18761 4.17344 7.18761 4.375C7.1901 6.612 8.07984 8.75667 9.66164 10.3385C11.2434 11.9203 13.3881 12.81 15.6251 12.8125C15.8267 12.8125 16.0275 12.8055 16.2275 12.7914C15.7943 13.4995 15.232 14.1199 14.5696 14.6203Z" fill-opacity="0.65"/>
</g>
</svg>
