<?xml version="1.0" encoding="UTF-8"?>
<svg xmlns="http://www.w3.org/2000/svg" viewBox="0 0 500 372.61">
  <g isolation="isolate">
    <g id="a" data-name="Background complete">
      <g>
        <g>
          <rect y="327.45" width="500" height=".25" fill="#e6e6e6" stroke-width="0"/>
          <rect x="91.7" y="342.58" width="33.12" height=".25" fill="#e6e6e6" stroke-width="0"/>
          <rect x="62.03" y="342.58" width="19.19" height=".25" fill="#e6e6e6" stroke-width="0"/>
          <rect x="191.36" y="346.26" width="19.19" height=".25" fill="#e6e6e6" stroke-width="0"/>
          <rect x="267.42" y="351.84" width="43.19" height=".25" fill="#e6e6e6" stroke-width="0"/>
          <rect x="252.19" y="351.84" width="6.33" height=".25" fill="#e6e6e6" stroke-width="0"/>
          <rect x="359.67" y="346.26" width="93.68" height=".25" fill="#e6e6e6" stroke-width="0"/>
          <g>
            <path d="M237.01,282.85H43.91c-3.15,0-5.71-2.56-5.71-5.71V5.71c0-3.15,2.56-5.71,5.71-5.71h193.1c3.15,0,5.71,2.56,5.71,5.71v271.43c0,3.15-2.56,5.71-5.71,5.71ZM43.91.25c-3.01,0-5.46,2.45-5.46,5.46v271.43c0,3.01,2.45,5.46,5.46,5.46h193.1c3.01,0,5.46-2.45,5.46-5.46V5.71c0-3.01-2.45-5.46-5.46-5.46H43.91Z" fill="#e6e6e6" stroke-width="0"/>
            <path d="M453.31,282.85h-193.1c-3.15,0-5.71-2.56-5.71-5.71V5.71c0-3.15,2.56-5.71,5.71-5.71h193.1c3.15,0,5.71,2.56,5.71,5.71v271.43c0,3.15-2.56,5.71-5.71,5.71ZM260.21.25c-3.01,0-5.46,2.45-5.46,5.46v271.43c0,3.01,2.45,5.46,5.46,5.46h193.1c3.01,0,5.46-2.45,5.46-5.46V5.71c0-3.01-2.45-5.46-5.46-5.46h-193.1Z" fill="#e6e6e6" stroke-width="0"/>
          </g>
        </g>
        <g>
          <rect x="245.41" y="242.02" width="21.99" height="87.23" fill="#e0e0e0" stroke-width="0"/>
          <polygon points="263.22 329.26 267.4 329.26 267.4 317.38 258.84 317.38 263.22 329.26" fill="#fafafa" stroke-width="0"/>
          <rect x="149.05" y="242.02" width="21.99" height="87.23" fill="#e0e0e0" stroke-width="0"/>
          <rect x="167.4" y="242.02" width="100" height="79.94" fill="#fafafa" stroke-width="0"/>
          <path d="M263.77,245.95v21.15h-92.75v-21.15h92.75M264.16,245.57h-93.52v21.92h93.52v-21.92h0Z" fill="#e0e0e0" stroke-width="0"/>
          <polygon points="171.58 329.26 167.4 329.26 167.4 317.38 175.95 317.38 171.58 329.26" fill="#fafafa" stroke-width="0"/>
          <path d="M215.19,256.53c0,1.22.99,2.21,2.21,2.21s2.21-.99,2.21-2.21-.99-2.21-2.21-2.21-2.21.99-2.21,2.21Z" fill="#e6e6e6" stroke-width="0"/>
          <path d="M263.77,271.42v21.15h-92.75v-21.15h92.75M264.16,271.04h-93.52v21.92h93.52v-21.92h0Z" fill="#e0e0e0" stroke-width="0"/>
          <path d="M215.19,282c0,1.22.99,2.21,2.21,2.21s2.21-.99,2.21-2.21-.99-2.21-2.21-2.21-2.21.99-2.21,2.21Z" fill="#e6e6e6" stroke-width="0"/>
          <path d="M263.77,296.89v21.15h-92.75v-21.15h92.75M264.16,296.5h-93.52v21.92h93.52v-21.92h0Z" fill="#e0e0e0" stroke-width="0"/>
          <path d="M215.19,307.46c0,1.22.99,2.21,2.21,2.21s2.21-.99,2.21-2.21-.99-2.21-2.21-2.21-2.21.99-2.21,2.21Z" fill="#e6e6e6" stroke-width="0"/>
        </g>
        <g>
          <rect x="135.62" y="191.36" width="21.99" height="137.9" fill="#e0e0e0" stroke-width="0"/>
          <polygon points="153.43 329.26 157.61 329.26 157.61 317.38 149.05 317.38 153.43 329.26" fill="#fafafa" stroke-width="0"/>
          <rect x="53.44" y="191.36" width="21.99" height="137.9" fill="#e0e0e0" stroke-width="0"/>
          <rect x="71.78" y="191.36" width="85.83" height="130.61" fill="#fafafa" stroke-width="0"/>
          <path d="M153.91,195.06v29.57h-78.44v-29.57h78.44M154.37,194.61h-79.35v30.48h79.35v-30.48h0Z" fill="#e0e0e0" stroke-width="0"/>
          <path d="M153.91,228.23v78.44h-37.36v-78.44h37.36M154.37,227.77h-38.27v79.35h38.27v-79.35h0Z" fill="#e0e0e0" stroke-width="0"/>
          <path d="M112.84,228.23v78.44h-37.36v-78.44h37.36M113.29,227.77h-38.27v79.35h38.27v-79.35h0Z" fill="#e0e0e0" stroke-width="0"/>
          <polygon points="75.96 329.26 71.78 329.26 71.78 317.38 80.34 317.38 75.96 329.26" fill="#fafafa" stroke-width="0"/>
          <path d="M112.48,209.85c0,1.22.99,2.21,2.21,2.21s2.21-.99,2.21-2.21-.99-2.21-2.21-2.21-2.21.99-2.21,2.21Z" fill="#e6e6e6" stroke-width="0"/>
          <path d="M120.4,265.57c0,1.22.99,2.21,2.21,2.21s2.21-.99,2.21-2.21-.99-2.21-2.21-2.21-2.21.99-2.21,2.21Z" fill="#e6e6e6" stroke-width="0"/>
          <path d="M104.57,265.57c0,1.22.99,2.21,2.21,2.21s2.21-.99,2.21-2.21-.99-2.21-2.21-2.21-2.21.99-2.21,2.21Z" fill="#e6e6e6" stroke-width="0"/>
        </g>
        <path d="M102.07,152.92h-9.28s1.61,8.57,1.61,13.62-7.06,24.83,3.03,24.83,3.03-19.78,3.03-24.83,1.61-13.62,1.61-13.62Z" fill="#e0e0e0" stroke-width="0"/>
        <path d="M66.8,173.2v6.03c0,6.68,5.46,12.14,12.14,12.14h6.03c6.68,0,12.14-5.46,12.14-12.14v-6.03h-30.31Z" fill="#f5f5f5" stroke-width="0"/>
        <path d="M195.67,229.31c0,6.99,7.83,12.71,17.4,12.71h8.64c9.57,0,17.4-5.72,17.4-12.71h-43.44Z" fill="#e0e0e0" stroke-width="0"/>
        <g>
          <path d="M424.61,219.08c-5.24,4.28-12.47,12.11-19.1,23.13-4.41,7.34-7.07,15.03-8.24,25.19.03-11.5.06-23.85.1-35.51,1.33-3,4.37-9.92,6.55-15.38,7.28-18.23,9.99-22.71,16.53-38.44,8.73-20.97,17.67-45.86,15.11-43.87-5.22,4.05-25.22,41.5-27.38,46.86-7.44,18.44-9.51,31.88-10.79,44.85.04-10.95.08-21.01.12-28.77.13-25.31.56-33.48.77-36,.81-1.28,1.76-2.77,2.32-3.58,4.7-6.79,6.51-12.58,10.94-22.71,6.27-14.36,11.68-39.85,10.1-38.56-6.58,5.35-11.76,16.86-18.58,31.53-6.82,14.66-4.87,23.1-6.22,35.62-.28,2.46-.5,11.73-.66,24.59-1.77-13.7-5.08-22.72-11.13-30.92-7.44-10.09-14.64-16.9-19.92-20.46-5.28-3.56,9.12,21.22,16.01,32.03,6.13,9.63,11.78,18.13,14.97,26.5-.17,17.42-.25,39.48-.25,60.02-1.58-9.35-4.16-19.41-7.6-27.2-4.14-9.36-10.5-23.72-15.56-28.6-1.22-1.17,5.3,26.76,9.48,34.19,4.18,7.43,7.25,14.43,9.88,18.64.61.98,2.65,4.77,3.81,6.95.01,25.07.14,47.19.36,54.72h1.08c-.07-1.94-.09-14.7-.06-31.58,2.61-9.16,8.57-19.62,13.5-29.16,5.37-10.41,19.11-38.36,13.87-34.08Z" fill="#e0e0e0" stroke-width="0"/>
          <g>
            <polygon points="412.44 329.26 381.1 329.26 378.73 298.54 414.81 298.54 412.44 329.26" fill="#f0f0f0" stroke-width="0"/>
            <polygon points="417.14 302.12 376.4 302.12 375.23 291.75 418.31 291.75 417.14 302.12" fill="#f5f5f5" stroke-width="0"/>
          </g>
        </g>
        <g>
          <rect x="68.21" y="20.54" width="56.05" height="61.55" fill="#e0e0e0" stroke-width="0"/>
          <rect x="72.43" y="20.54" width="57.9" height="61.55" fill="#f5f5f5" stroke-width="0"/>
          <rect x="75.46" y="27.22" width="51.85" height="48.2" transform="translate(152.7 -50.06) rotate(90)" fill="#fff" stroke-width="0"/>
          <rect x="88.02" y="38.9" width="26.71" height="24.83" transform="translate(152.7 -50.06) rotate(90)" fill="#f5f5f5" stroke-width="0"/>
        </g>
        <g>
          <g>
            <rect x="357.98" y="27.72" width="52.07" height="57.18" fill="#e0e0e0" stroke-width="0"/>
            <rect x="361.91" y="27.72" width="53.78" height="57.18" fill="#f5f5f5" stroke-width="0"/>
            <rect x="364.72" y="33.92" width="48.16" height="44.77" transform="translate(445.11 -332.49) rotate(90)" fill="#fff" stroke-width="0"/>
          </g>
          <circle cx="388.8" cy="56.31" r="13.97" fill="#f5f5f5" stroke-width="0"/>
        </g>
        <g>
          <rect x="140.91" y="57.24" width="41.58" height="45.66" fill="#e0e0e0" stroke-width="0"/>
          <rect x="144.04" y="57.24" width="42.95" height="45.66" fill="#f5f5f5" stroke-width="0"/>
          <rect x="146.29" y="62.2" width="38.46" height="35.75" transform="translate(245.59 -85.45) rotate(90)" fill="#fff" stroke-width="0"/>
          <polygon points="165.52 70.35 155.74 87.29 175.3 87.29 165.52 70.35" fill="#f5f5f5" stroke-width="0"/>
        </g>
      </g>
    </g>
    <g id="b" data-name="Shadow">
      <ellipse cx="250" cy="361.29" rx="193.89" ry="11.32" fill="#f5f5f5" stroke-width="0"/>
    </g>
    <g id="c" data-name="Character 2">
      <g>
        <path d="M349.25,108.48l-9.92-4.02s-13.09,23.87-16.84,25.08c-5.1,1.64-15.65,6.2-21.92,7.05-.85.99-2.24,4.1-2.11,5.24,8.41,2.8,26.89-.92,30.85-3.86,9.02-6.7,19.94-29.49,19.94-29.49Z" fill="#e58a7b" stroke-width="0"/>
        <g>
          <path d="M352.3,103.06c1.85,6.84-8.17,20.58-8.17,20.58l-13.16-7.38s2.45-5.65,5.46-11.4c4.85-9.29,13.77-9.6,15.88-1.8Z" fill="#407bff" stroke-width="0"/>
          <path d="M352.3,103.06c1.85,6.84-8.17,20.58-8.17,20.58l-13.16-7.38s2.45-5.65,5.46-11.4c4.85-9.29,13.77-9.6,15.88-1.8Z" fill="#000" opacity=".2" stroke-width="0"/>
        </g>
        <path d="M336.21,119.2l5.17,2.9.9-15.87c-3,2.31-5.13,9.27-6.07,12.97Z" fill="#000" opacity=".2" stroke-width="0"/>
        <g>
          <path d="M343.66,97.91s-10.22,22.74-4.26,65.08h40.27c.64-6.18-1.48-36.34,6.19-65.46,0,0-6.82-1.39-13.38-1.7-5.13-.25-12.57-.41-17.12,0-6,.54-11.7,2.09-11.7,2.09Z" fill="#407bff" stroke-width="0"/>
          <path d="M343.66,97.91s-10.22,22.74-4.26,65.08h40.27c.64-6.18-1.48-36.34,6.19-65.46,0,0-6.82-1.39-13.38-1.7-5.13-.25-12.57-.41-17.12,0-6,.54-11.7,2.09-11.7,2.09Z" fill="#000" opacity=".2" stroke-width="0"/>
        </g>
        <path d="M334.32,362.19c-.06,1.07,15.21,1.94,34.1,1.94s34.27-.87,34.33-1.94c.06-1.07-15.2-1.94-34.1-1.94s-34.27.87-34.33,1.94Z" fill="#e8ecf1" mix-blend-mode="multiply" stroke-width="0"/>
        <rect x="357.82" y="336.01" width="7.68" height="17.09" transform="translate(-99.7 153.08) rotate(-21.07)" fill="#e58a7b" stroke-width="0"/>
        <polygon points="393.05 354.5 385.52 354.5 382.76 337.07 390.29 337.07 393.05 354.5" fill="#e58a7b" stroke-width="0"/>
        <path d="M385.04,353.63h8.46c.31,0,.56.21.61.51l1.09,6.69c.11.69-.47,1.35-1.18,1.34-2.95-.05-4.37-.22-8.09-.22-2.29,0-7.02.24-10.18.24s-3.39-3.12-2.08-3.41c5.88-1.27,8.16-3.02,10.12-4.69.35-.3.8-.46,1.25-.46Z" fill="#263238" stroke-width="0"/>
        <path d="M359.97,350.99l8.02-2.33c.3-.09.61.04.74.31l2.97,6c.31.62-.06,1.4-.75,1.59-2.9.79-4.86,1.29-8.5,2.35-2.51.73-5.07,1.92-7.55,2.71-1.72.55-5.76.57-7.85.57-3.09,0-3.78-3.26-2.46-3.41,3.35-.38,3.8-.2,5.65-1.13,3.06-1.53,5.43-2.81,8.08-5.58.46-.48,1-.89,1.64-1.08Z" fill="#263238" stroke-width="0"/>
        <path d="M301.83,136.52l-8.28-3.49-3.41,9.18s4.78.87,10.24,0l1.45-5.69Z" fill="#e58a7b" stroke-width="0"/>
        <polygon points="287.39 132.81 287.17 138.91 290.14 142.21 293.55 133.03 287.39 132.81" fill="#e58a7b" stroke-width="0"/>
        <g>
          <rect x="356.33" y="336.29" width="7.68" height="8.81" transform="translate(-98.52 152.55) rotate(-21.11)" fill="#cf6f64" stroke-width="0"/>
          <polygon points="390.29 337.07 382.76 337.07 384.19 346.06 391.72 346.06 390.29 337.07" fill="#cf6f64" stroke-width="0"/>
        </g>
        <path d="M338.12,151.53c.14,1.81.32,3.66.53,5.56l29.94-9.72c4.68-1.4,8.74-4.34,11.52-8.35.11-2.67.27-5.48.49-8.41.1-1.43.23-2.89.36-4.37.14-1.54.31-3.11.49-4.7l-43.34,29.99Z" fill="#000" opacity=".2" stroke-width="0"/>
        <path d="M347.9,118.74l-1.02-.12c.59-4.99,4.32-8.93,8.25-8.84l-.03,1.03c-3.4-.1-6.67,3.46-7.2,7.93Z" fill="#fff" stroke-width="0"/>
        <path d="M353.23,127.97c-.06,0-.11,0-.17,0l.03-1.03c3.44.13,6.67-3.46,7.2-7.93l1.02.12c-.59,4.92-4.19,8.84-8.09,8.84Z" fill="#fff" stroke-width="0"/>
        <path d="M371.92,76.54c-1.4,5.51-3.07,15.6.57,19.28,0,0-2.54,5.59-12.78,5.59-9.35,0-4.34-5.59-4.34-5.59,6.23-1.47,6.34-6.02,5.52-10.3l11.03-8.97Z" fill="#e58a7b" stroke-width="0"/>
        <path d="M367.42,80.21l-6.53,5.31c.2,1.01.34,2.04.35,3.04,1.91,1.9,5.74-2.91,6.13-5.37.2-1.23.21-2.4.05-2.97Z" fill="#cf6f64" stroke-width="0"/>
        <path d="M349.66,76.48c.96,1.71,2.65,2.78,4.24,3.14,2.4.53,3.61-1.67,2.95-3.9-.6-2-2.56-4.69-4.98-4.23-2.38.45-3.31,3.03-2.21,4.99Z" fill="#cf6f64" stroke-width="0"/>
        <path d="M353.63,58.85c-3.74,1.71-5.06,16.57-.36,18.77,4.7,2.2,7.44-22.01.36-18.77Z" fill="#263238" stroke-width="0"/>
        <path d="M373.06,68.26c-.9,7.46-1.04,11.85-5.03,15.67-6,5.76-15.01,2.34-16.35-5.1-1.21-6.7.46-17.77,7.93-20.74,7.36-2.92,14.35,2.71,13.45,10.17Z" fill="#e58a7b" stroke-width="0"/>
        <path d="M360.77,62.71c5.53-1.42,9.6-2.38,8.15,2.24-1.94,6.15-4.26,12.11-1.14,12.39,1.89.17,10.3-3.4,9.23-7-.93-3.14,2.98-3.99,3.7-5.59,2.59-5.77-4.82-5.02-3.5-8.51,1.28-3.4-5.97-9.14-9.99-6.33-6.51,4.54-17.68,4.48-11.81-2.97,4.21-5.33-3.3-4.24-3.3-4.24,0,0,4.54,2.69-3.1,6.85-8.09,4.41-.68,16.34,11.76,13.16Z" fill="#263238" stroke-width="0"/>
        <path d="M375.95,76.48c-1.16,1.71-2.97,2.78-4.61,3.14-2.46.53-3.41-1.67-2.49-3.9.83-2,3.11-4.69,5.47-4.23,2.32.45,2.95,3.03,1.63,4.99Z" fill="#e58a7b" stroke-width="0"/>
        <path d="M339.4,162.99s-6.76,60.5-7.29,83.46c-.55,23.88,22.91,98.39,22.91,98.39l12.01-5.04s-13.98-68.07-12.04-91.53c2.12-25.57,10.88-85.28,10.88-85.28h-26.47Z" fill="#407bff" stroke-width="0"/>
        <path d="M356.2,179.6c-5.38,11.18-1.76,33.28,1.16,46.39,1.11-9.25,2.43-19.29,3.68-28.58-.12-14.28-1.23-25.31-4.84-17.81Z" fill="#000" opacity=".2" stroke-width="0"/>
        <path d="M366.49,335.87c.06-.02,1.42,3.83,1.42,3.83l-13.84,5.81-2.18-4.06,14.6-5.59Z" fill="#407bff" stroke-width="0"/>
        <path d="M353.69,162.99s5.17,57.54,8.6,79.09c3.75,23.61,18.5,102.24,18.5,102.24h13.79s-8.26-76.72-9.82-100.1c-1.69-25.37-5.07-81.23-5.07-81.23h-25.98Z" fill="#407bff" stroke-width="0"/>
        <path d="M394.78,340.72c.06,0,.46,3.85.46,3.85h-15.16l-1.08-4.42,15.78.57Z" fill="#407bff" stroke-width="0"/>
        <path d="M389.5,336.17c-.07,0-.12-.05-.13-.11-.08-.7-7.53-69.97-8.93-90.96-1.52-22.79-4.58-73.31-4.61-73.82,0-.07.05-.13.12-.14h0c.07,0,.12.05.13.12.03.51,3.09,51.03,4.61,73.82,1.4,20.99,8.85,90.26,8.93,90.95,0,.07-.04.13-.11.14,0,0-.01,0-.01,0Z" fill="#000" opacity=".2" stroke-width="0"/>
        <path d="M361.62,70.34c-.04.61-.39,1.1-.78,1.1s-.69-.49-.65-1.1c.04-.61.39-1.1.78-1.1s.69.49.65,1.1Z" fill="#263238" stroke-width="0"/>
        <path d="M354.76,70.34c-.04.61-.39,1.1-.78,1.1s-.69-.49-.65-1.1c.04-.61.39-1.1.78-1.1s.69.49.65,1.1Z" fill="#263238" stroke-width="0"/>
        <path d="M356.92,70.64s-1.59,3.5-3.21,5.19c1.02,1,2.87.54,2.87.54l.34-5.74Z" fill="#df5753" stroke-width="0"/>
        <path d="M357.1,78.93c-.1,0-.17-.08-.17-.18,0-.1.09-.18.19-.18,2.67,0,4.02-1.86,4.03-1.88.06-.08.17-.11.25-.05.08.05.1.16.04.25-.06.08-1.48,2.04-4.34,2.04Z" fill="#263238" stroke-width="0"/>
        <path d="M362.84,68.49c-.1.04-.22.03-.31-.03-1.31-.83-2.54-.27-2.55-.27-.17.09-.39.01-.47-.17-.07-.18.01-.39.2-.48.06-.03,1.6-.73,3.22.3.16.1.2.32.09.49-.05.07-.11.12-.18.15Z" fill="#263238" stroke-width="0"/>
        <path d="M352.11,66.5s-.1-.04-.14-.08c-.14-.13-.14-.36,0-.5,1.4-1.47,3.01-1.25,3.08-1.24.19.02.32.21.28.41-.04.19-.23.33-.42.3h0c-.05,0-1.32-.17-2.43,1.01-.1.11-.24.14-.37.11Z" fill="#263238" stroke-width="0"/>
        <path d="M389.73,107.36l-10.4-2.77s-10.2,25.11-13.8,26.75c-4.9,2.23-17.32,9.95-22.59,13.67-.29,1.24-.06,4.56.6,5.46,8.97-1.63,26.23-8.27,29.83-11.64,8.21-7.69,16.37-31.47,16.37-31.47Z" fill="#e58a7b" stroke-width="0"/>
        <path d="M382.47,354.94c-.57,0-1.1-.1-1.43-.38-.26-.23-.36-.54-.31-.94.04-.3.2-.44.33-.5.85-.43,3.2,1.06,3.46,1.24.06.04.09.11.07.18-.02.07-.07.13-.14.14-.53.13-1.29.27-1.99.27ZM381.44,353.39c-.09,0-.17.01-.23.04-.05.03-.11.07-.12.21-.03.28.03.5.2.65.39.35,1.37.39,2.66.14-.82-.49-1.93-1.04-2.51-1.04Z" fill="#407bff" stroke-width="0"/>
        <path d="M384.41,354.68s-.06,0-.08-.02c-.75-.42-2.16-2.07-1.96-2.91.04-.15.16-.42.59-.47.28-.03.53.04.75.23.83.71.89,2.89.89,2.98,0,.07-.03.13-.09.16-.03.02-.06.03-.1.03ZM383.07,351.63s-.05,0-.08,0c-.23.03-.26.14-.27.18-.12.5.76,1.74,1.5,2.33-.05-.64-.22-1.9-.75-2.36-.12-.1-.25-.16-.4-.16Z" fill="#407bff" stroke-width="0"/>
        <path d="M355.92,353.7c-.74.18-1.44.23-1.89-.01-.29-.15-.45-.41-.49-.76-.02-.21.05-.39.2-.53.81-.72,4.07.05,4.44.14.07.02.12.08.13.16,0,.08-.04.15-.11.18-.61.28-1.47.63-2.28.83ZM354.29,352.51c-.14.03-.24.08-.32.14-.06.06-.09.12-.08.21.03.24.13.4.32.51.53.29,1.76.06,3.35-.6-1.12-.23-2.57-.43-3.28-.26Z" fill="#407bff" stroke-width="0"/>
        <path d="M358.17,352.89s-.05,0-.07,0c-.97-.18-3.04-1.33-3.06-2.19,0-.2.09-.48.56-.64.34-.13.7-.1,1.03.06,1.09.54,1.65,2.46,1.68,2.54.02.06,0,.13-.04.17-.03.03-.06.05-.1.06ZM355.8,350.36s-.07.02-.1.03c-.31.11-.31.24-.31.28.01.52,1.45,1.47,2.46,1.79-.2-.55-.69-1.67-1.4-2.02-.21-.11-.43-.13-.65-.08Z" fill="#407bff" stroke-width="0"/>
        <path d="M343.78,144.42l-10.43,4.8-1.21,2.94,3.85,2.59s7.19-.78,9.24-5.4l-1.46-4.93Z" fill="#e58a7b" stroke-width="0"/>
        <path d="M344.22,150.64c-.65-3.87-1.93-5.64-1.94-5.66l1.64-1.23c.06.08,1.58,2.13,2.32,6.55l-2.03.34Z" fill="#263238" stroke-width="0"/>
        <path d="M346,145.84c.34.84-.21,1.85-1.21,2.25-1.01.41-2.1.06-2.44-.78-.34-.84.21-1.85,1.21-2.25,1.01-.41,2.1-.06,2.44.78Z" fill="#263238" stroke-width="0"/>
        <polygon points="326.3 153.1 327.69 154.5 337.05 150.5 333.35 149.22 326.3 153.1" fill="#e58a7b" stroke-width="0"/>
        <path d="M366.49,335.87c.06-.02,1.42,3.83,1.42,3.83l-13.84,5.81-2.18-4.06,14.6-5.59Z" fill="#000" opacity=".2" stroke-width="0"/>
        <path d="M394.78,340.72c.06,0,.46,3.85.46,3.85h-15.16l-1.08-4.42,15.78.57Z" fill="#000" opacity=".2" stroke-width="0"/>
        <g>
          <path d="M392.44,104.49c2.75,8.87-7.96,20.98-7.96,20.98l-14.85-6.06s2.09-6.44,6.07-15.07c4.52-9.81,13.96-8.8,16.73.15Z" fill="#407bff" stroke-width="0"/>
          <path d="M392.44,104.49c2.75,8.87-7.96,20.98-7.96,20.98l-14.85-6.06s2.09-6.44,6.07-15.07c4.52-9.81,13.96-8.8,16.73.15Z" fill="#000" opacity=".2" stroke-width="0"/>
        </g>
      </g>
    </g>
    <g id="d" data-name="Screen">
      <g>
        <rect x="238.49" y="15.62" width="6.39" height="1.03" fill="#407bff" stroke-width="0"/>
        <rect x="319.14" y="64.47" width="17.18" height="1.03" transform="translate(248.06 389.46) rotate(-87.42)" fill="#407bff" stroke-width="0"/>
        <polygon points="325.61 20.24 207.61 20.24 196.63 265.96 314.63 265.96 325.61 20.24" fill="#407bff" stroke-width="0"/>
        <polygon points="322.09 23.61 204.09 23.61 193.11 269.33 311.11 269.33 322.09 23.61" fill="#fafafa" opacity=".56" stroke-width="0"/>
        <polygon points="318.57 26.98 200.57 26.98 189.58 272.7 307.58 272.7 318.57 26.98" fill="#407bff" opacity=".07" stroke-width="0"/>
        <polygon points="305.14 134.15 204.42 134.15 203.58 152.96 304.3 152.96 305.14 134.15" fill="#fff" stroke-width="0"/>
        <polygon points="259.81 120.44 205.03 120.44 204.66 128.85 259.44 128.85 259.81 120.44" fill="#407bff" stroke-width="0"/>
        <polygon points="302.87 184.9 202.15 184.9 201.31 203.7 302.03 203.7 302.87 184.9" fill="#fff" stroke-width="0"/>
        <polygon points="284.4 229.08 216.67 229.08 215.66 251.62 283.39 251.62 284.4 229.08" fill="#407bff" opacity=".47" stroke-width="0"/>
        <path d="M279.87,255.11h-67.73s-.06-.01-.09-.04c-.02-.02-.03-.06-.03-.09l1.01-22.54c0-.06.06-.11.12-.11h67.73s.06.01.09.04c.02.02.03.06.03.09l-1.01,22.54c0,.06-.06.11-.12.11ZM212.26,254.88h67.49l1-22.3h-67.49l-1,22.3Z" fill="#fff" stroke-width="0"/>
        <polygon points="247.98 171.18 202.76 171.18 202.39 179.59 247.6 179.59 247.98 171.18" fill="#407bff" stroke-width="0"/>
        <path d="M283.11,73.43c-.25,5.63-2.29,10.83-5.56,15.05-4.94,6.4-12.68,10.56-21.2,10.56s-15.88-4.16-20.24-10.56c-2.89-4.22-4.47-9.42-4.22-15.05.63-14.15,12.61-25.62,26.75-25.62s25.11,11.47,24.47,25.62Z" fill="#fff" stroke-width="0"/>
        <path d="M285.52,53.17c-.07,1.5-.61,2.88-1.48,4-1.31,1.7-3.37,2.81-5.63,2.81s-4.22-1.11-5.38-2.81c-.77-1.12-1.19-2.5-1.12-4,.17-3.76,3.35-6.81,7.11-6.81s6.67,3.05,6.5,6.81Z" fill="#407bff" stroke-width="0"/>
        <path d="M215.27,143.56c-.07,1.66-1.48,3.01-3.15,3.01s-2.95-1.35-2.88-3.01c.07-1.66,1.48-3.01,3.15-3.01s2.95,1.35,2.88,3.01Z" fill="#263238" stroke-width="0"/>
        <path d="M228.75,143.56c-.07,1.66-1.48,3.01-3.15,3.01s-2.95-1.35-2.88-3.01c.07-1.66,1.48-3.01,3.15-3.01s2.95,1.35,2.88,3.01Z" fill="#263238" stroke-width="0"/>
        <path d="M242.24,143.56c-.07,1.66-1.48,3.01-3.15,3.01s-2.95-1.35-2.88-3.01c.07-1.66,1.48-3.01,3.15-3.01s2.95,1.35,2.88,3.01Z" fill="#263238" stroke-width="0"/>
        <path d="M213,194.3c-.07,1.66-1.48,3.01-3.15,3.01s-2.95-1.35-2.88-3.01c.07-1.66,1.48-3.01,3.15-3.01s2.95,1.35,2.88,3.01Z" fill="#263238" stroke-width="0"/>
        <path d="M226.48,194.3c-.07,1.66-1.48,3.01-3.15,3.01s-2.95-1.35-2.88-3.01c.07-1.66,1.48-3.01,3.15-3.01s2.95,1.35,2.88,3.01Z" fill="#263238" stroke-width="0"/>
        <path d="M239.97,194.3c-.07,1.66-1.48,3.01-3.15,3.01s-2.95-1.35-2.88-3.01c.07-1.66,1.48-3.01,3.15-3.01s2.95,1.35,2.88,3.01Z" fill="#263238" stroke-width="0"/>
        <path d="M253.46,194.3c-.07,1.66-1.48,3.01-3.15,3.01s-2.95-1.35-2.88-3.01c.07-1.66,1.48-3.01,3.15-3.01s2.95,1.35,2.88,3.01Z" fill="#263238" stroke-width="0"/>
        <path d="M266.95,194.3c-.07,1.66-1.48,3.01-3.15,3.01s-2.95-1.35-2.88-3.01c.07-1.66,1.48-3.01,3.15-3.01s2.95,1.35,2.88,3.01Z" fill="#263238" stroke-width="0"/>
        <g>
          <path d="M268.24,64.86c-.26,5.72-5.1,10.36-10.82,10.36s-10.15-4.64-9.9-10.36c.26-5.72,5.1-10.36,10.82-10.36s10.15,4.64,9.9,10.36Z" fill="#407bff" stroke-width="0"/>
          <path d="M277.54,88.48c-4.94,6.4-12.68,10.56-21.2,10.56s-15.88-4.16-20.24-10.56c4.86-4.84,12.55-7.98,21.07-7.98s15.94,3.14,20.37,7.98Z" fill="#407bff" stroke-width="0"/>
          <path d="M268.24,64.86c-.26,5.72-5.1,10.36-10.82,10.36s-10.15-4.64-9.9-10.36c.26-5.72,5.1-10.36,10.82-10.36s10.15,4.64,9.9,10.36Z" fill="#fff" opacity=".1" stroke-width="0"/>
          <path d="M277.54,88.48c-4.94,6.4-12.68,10.56-21.2,10.56s-15.88-4.16-20.24-10.56c4.86-4.84,12.55-7.98,21.07-7.98s15.94,3.14,20.37,7.98Z" fill="#fff" opacity=".1" stroke-width="0"/>
        </g>
      </g>
    </g>
    <g id="e" data-name="Character 1">
      <g>
        <g>
          <path d="M130.41,157.49c-.95,2.08-1.94,4.36-2.82,6.59-.88,2.25-1.76,4.5-2.53,6.79-1.49,4.57-2.89,9.18-3.57,13.8l-.23,1.47c-.02.18,0,.43.07.75.15.64.54,1.49,1.1,2.32,1.13,1.69,2.72,3.4,4.44,4.98,1.72,1.61,3.58,3.15,5.52,4.62,1.92,1.48,3.94,2.92,5.92,4.27l-1.86,3.51c-4.76-2.08-9.19-4.57-13.48-7.69-2.11-1.61-4.19-3.34-6.04-5.68-.91-1.18-1.8-2.51-2.39-4.27-.28-.88-.48-1.87-.48-2.94,0-.25.02-.59.04-.76l.05-.5.1-.99c.54-5.3,1.72-10.4,3.27-15.34.78-2.47,1.61-4.91,2.56-7.31.97-2.41,1.93-4.73,3.14-7.16l7.2,3.54Z" fill="#e58a7b" stroke-width="0"/>
          <path d="M136.91,202.48l7.07-3.58-1.83,7.77s-4.85,1.36-7.11-1l1.87-3.18Z" fill="#e58a7b" stroke-width="0"/>
          <polygon points="150.45 200.17 148.57 206.59 142.15 206.66 143.98 198.89 150.45 200.17" fill="#e58a7b" stroke-width="0"/>
          <path d="M160.43,120.05s.61,2.25,1.58,3.95c-.84.78-1.58.51-1.58.51v-4.46Z" fill="#df5753" stroke-width="0"/>
          <ellipse cx="160.22" cy="118.96" rx=".75" ry="1.15" fill="#263238" stroke-width="0"/>
          <path d="M160.04,117.85l1.52-.44s-.78,1.19-1.52.44Z" fill="#263238" stroke-width="0"/>
          <path d="M140.9,127.38c.91,4.66,1.82,13.19-1.43,16.29,0,0,1.27,4.72,9.92,4.72,9.51,0,4.55-4.72,4.55-4.72-5.19-1.24-5.06-5.09-4.15-8.71l-8.88-7.58Z" fill="#e58a7b" stroke-width="0"/>
          <path d="M138.37,116.79c.48,7.77.51,11.07,4.44,15.06,5.9,6,15.35,3.71,17.2-4.04,1.67-6.98.61-18.52-7-21.61-7.49-3.05-15.12,2.82-14.64,10.59Z" fill="#e58a7b" stroke-width="0"/>
          <path d="M139.14,108c-3.9,1.42-9.1.36-7.06,12.39,2.16,12.74-1.16,16.93-1.16,16.93,0,0,14.79,3.15,29.89-.19,0,0-4.61-8.06-3.32-13.94,1.65-7.5.34-10.28.34-10.28,0,0-13.22-6.91-18.7-4.91Z" fill="#263238" stroke-width="0"/>
          <path d="M155.64,120.84c-.02,1.54.52,3.09,1.22,4.17,1.05,1.62,2.3.96,2.62-.72.28-1.51.07-4.18-1.28-5.22-1.33-1.02-2.55,0-2.56,1.77Z" fill="#e58a7b" stroke-width="0"/>
          <path d="M135.75,109.36c-1.12-3.14,4.22-7.98,15.52-5.97,11.3,2.01,11.79,11.41,11.79,11.41l-2.29-2.71.1,2.86-11.61,2.23-13.52-7.81Z" fill="#263238" stroke-width="0"/>
          <g>
            <path d="M136.71,144.2h0c-.16-.96.49-1.87,1.45-2.02,3.52-.58,11.51-1.76,15.54-1.2,2.99.41,3.78,2.16,3.91,3.59.09,1.06-.78,1.95-1.84,1.9l-17.39-.79c-.84-.04-1.53-.66-1.66-1.48Z" fill="#407bff" stroke-width="0"/>
            <path d="M136.71,144.2h0c-.16-.96.49-1.87,1.45-2.02,3.52-.58,11.51-1.76,15.54-1.2,2.99.41,3.78,2.16,3.91,3.59.09,1.06-.78,1.95-1.84,1.9l-17.39-.79c-.84-.04-1.53-.66-1.66-1.48Z" fill="#000" opacity=".6" stroke-width="0"/>
          </g>
          <polygon points="146.76 318.91 153.21 323.38 164 308.76 157.55 304.28 146.76 318.91" fill="#e58a7b" stroke-width="0"/>
          <polygon points="131.72 318.61 138.53 322.5 148.08 307.03 141.27 303.15 131.72 318.61" fill="#e58a7b" stroke-width="0"/>
          <g>
            <polygon points="163.99 308.76 158.43 316.3 151.98 311.82 157.55 304.28 163.99 308.76" fill="#cf6f64" stroke-width="0"/>
            <polygon points="141.26 303.15 148.08 307.03 143.16 315 136.34 311.12 141.26 303.15" fill="#cf6f64" stroke-width="0"/>
          </g>
          <g>
            <path d="M152.2,193.04s25.18,31.74,20.46,62.08c-3.82,24.51-25.91,57.7-25.91,57.7l-10.39-5.16s11.29-22.06,18.7-45.44c3.11-9.81,1.78-20.61-4.03-29.1-12.76-18.63-33.19-7.55-19.44-40.08h20.62Z" fill="#407bff" stroke-width="0"/>
            <path d="M152.2,193.04s25.18,31.74,20.46,62.08c-3.82,24.51-25.91,57.7-25.91,57.7l-10.39-5.16s11.29-22.06,18.7-45.44c3.11-9.81,1.78-20.61-4.03-29.1-12.76-18.63-33.19-7.55-19.44-40.08h20.62Z" fill="#000" opacity=".6" stroke-width="0"/>
          </g>
          <path d="M164.55,213.43l-3.66-3.64c0,.29,7.09,44.05,9.08,56.35,1.2-3.77,2.13-7.49,2.68-11.03,2.31-14.86-2.55-30.06-8.11-41.69Z" fill="#000" opacity=".4" stroke-width="0"/>
          <g>
            <path d="M163.44,193.04s30.32,39.88,31.17,63.8c.71,20.04-33.03,58.75-33.03,58.75l-9.8-6.34s19.73-27.52,24.7-50.01c-1.89-22.27-42.54-66.19-42.54-66.19h29.5Z" fill="#407bff" stroke-width="0"/>
            <path d="M163.44,193.04s30.32,39.88,31.17,63.8c.71,20.04-33.03,58.75-33.03,58.75l-9.8-6.34s19.73-27.52,24.7-50.01c-1.89-22.27-42.54-66.19-42.54-66.19h29.5Z" fill="#000" opacity=".6" stroke-width="0"/>
          </g>
          <path d="M125.93,145.46c-3.25.77-6.35,12.55-6.35,12.55l12.66,8.45s4.22-9.32,2.75-13.4c-1.53-4.25-4.96-8.58-9.06-7.61Z" fill="#407bff" stroke-width="0"/>
          <path d="M128.41,153.04l-.88,10.27,4.71,3.16s2.21-4.88,2.87-9.14l-6.7-4.29Z" fill="#000" opacity=".2" stroke-width="0"/>
          <path d="M167.19,145.68s3.74,1.32-3.75,47.35h-31.86c.53-12.97.55-20.96-5.65-47.58,0,0,6.68-1.45,13.53-1.78,5.36-.26,9.75-.43,14.47,0,6.21.57,13.26,2.01,13.26,2.01Z" fill="#407bff" stroke-width="0"/>
          <path d="M170.43,152.99c.72,2,1.49,4.15,2.28,6.23.76,2.1,1.56,4.2,2.37,6.29l2.45,6.28.62,1.57.31.78.16.39c.03.07.02.06.01.06-.04-.02-.08-.22-.7-.62-.3-.19-.81-.37-1.31-.38-.49-.02-.89.1-1.11.2-.45.22-.46.31-.45.29.03-.01.12-.1.22-.23.44-.52.96-1.43,1.43-2.33.47-.92.92-1.9,1.37-2.89.88-1.99,1.69-4.07,2.51-6.16.81-2.09,1.57-4.21,2.33-6.34l2.28-6.38,3.85.97c-.76,4.56-1.75,9.04-2.92,13.52-.57,2.25-1.24,4.48-2,6.73-.38,1.13-.8,2.25-1.29,3.4-.51,1.16-1.01,2.29-1.9,3.62-.23.34-.5.69-.87,1.08-.39.38-.85.85-1.82,1.29-.49.21-1.16.39-1.94.36-.78-.02-1.56-.3-2.11-.64-1.11-.71-1.49-1.38-1.82-1.89-.15-.25-.28-.52-.37-.7l-.19-.39-.38-.78-.76-1.55c-.99-2.08-1.96-4.17-2.87-6.29-.91-2.12-1.79-4.25-2.65-6.4-.82-2.18-1.63-4.29-2.36-6.61l7.63-2.49Z" fill="#e58a7b" stroke-width="0"/>
          <path d="M167.19,145.68c3.83.91,8.13,12.23,8.13,12.23l-11.38,9.7s-7.38-12.34-5.88-16.41c1.55-4.24,4.13-6.71,9.13-5.51Z" fill="#407bff" stroke-width="0"/>
          <path d="M186.98,146.24l3.99-3.34,2.78,4.33-2.05,3.62s-3.26,2.98-6.15,1.47h0c-.93-2.11-.35-4.59,1.42-6.07Z" fill="#e58a7b" stroke-width="0"/>
          <polygon points="198.22 142.91 197.92 143.99 191.59 145.06 190.97 142.9 198.22 142.91" fill="#e58a7b" stroke-width="0"/>
          <polygon points="162.4 316.1 150.98 308.71 153.03 305.16 165.86 313.05 162.4 316.1" fill="#407bff" stroke-width="0"/>
          <path d="M142.98,321.97c-.91,0-2.1-.58-2.83-.98-.07-.04-.1-.11-.09-.18,0-.07.06-.14.13-.16.31-.1,3.02-.93,3.78-.28.12.1.26.29.21.6-.06.42-.25.71-.56.87-.18.09-.4.13-.64.13ZM140.73,320.88c1.24.63,2.24.87,2.72.63.2-.1.32-.29.36-.58.02-.16-.03-.23-.09-.27-.4-.34-1.9-.08-3,.23Z" fill="#263238" stroke-width="0"/>
          <path d="M140.25,321.02c-.05,0-.1-.02-.13-.06-.05-.05-.06-.12-.05-.18.03-.09.65-2.26,1.68-2.76.27-.13.55-.14.82-.03.43.18.47.5.46.67-.07.9-1.9,2.14-2.74,2.35-.01,0-.03,0-.04,0ZM142.19,318.29c-.09,0-.18.02-.28.07-.61.3-1.13,1.47-1.37,2.18.88-.37,2.08-1.35,2.12-1.9,0-.09-.01-.2-.23-.3-.08-.03-.16-.05-.24-.05Z" fill="#263238" stroke-width="0"/>
          <path d="M157.27,326.29c-1.13,0-2.7-1.45-3.56-2.34-.06-.06-.07-.14-.03-.21.04-.07.13-.11.19-.1.4.05,3.87.52,4.37,1.5.09.19.09.39-.02.59-.18.32-.45.51-.79.55-.05,0-.1,0-.15,0ZM154.37,324.09c1.26,1.23,2.37,1.91,3,1.82.22-.03.39-.15.51-.37.05-.08.05-.16.01-.23-.27-.53-2.12-1-3.53-1.22Z" fill="#263238" stroke-width="0"/>
          <path d="M154.48,324.06c-.26,0-.49-.02-.67-.05-.06-.01-.12-.06-.14-.12-.02-.06-.01-.13.03-.18.06-.07,1.41-1.7,2.69-1.81.4-.03.74.08,1.03.32.39.34.37.64.27.83-.32.67-2.05,1.01-3.21,1.01ZM154.22,323.69c1.12.06,2.9-.31,3.14-.8.02-.04.08-.16-.18-.39-.22-.18-.47-.26-.75-.24-.84.07-1.78.96-2.2,1.42Z" fill="#263238" stroke-width="0"/>
          <path d="M140.52,319.97l-8.48-2.4c-.31-.09-.62.06-.75.35l-2.86,6.44c-.3.67.12,1.5.83,1.68,2.97.78,4.45,1.01,8.18,2.07,2.29.65,5.58,1.83,8.75,2.73,3.1.88,4.22-2.19,2.98-2.85-5.56-2.95-6-4.96-7.52-7.2-.27-.4-.68-.69-1.13-.82Z" fill="#407bff" stroke-width="0"/>
          <path d="M153.94,322.79l-7.24-5.03c-.26-.18-.6-.15-.82.08l-4.8,5.16c-.5.53-.38,1.45.24,1.86,2.55,1.71,3.87,2.41,7.06,4.62,1.96,1.36,5.87,4.38,8.57,6.25,2.65,1.84,4.71-.7,3.75-1.72-4.3-4.59-5.24-7.47-5.95-10.08-.13-.47-.42-.88-.8-1.14Z" fill="#407bff" stroke-width="0"/>
          <polygon points="148.07 313.48 135.02 306.99 136.37 303.46 150.31 310.29 148.07 313.48" fill="#407bff" stroke-width="0"/>
          <g>
            <path d="M131.1,191.17l-1.1,2.85c-.11.22.15.45.52.45h33.08c.29,0,.53-.14.54-.32l.29-2.85c.02-.2-.23-.36-.54-.36h-32.27c-.24,0-.45.1-.52.24Z" fill="#407bff" stroke-width="0"/>
            <path d="M131.1,191.17l-1.1,2.85c-.11.22.15.45.52.45h33.08c.29,0,.53-.14.54-.32l.29-2.85c.02-.2-.23-.36-.54-.36h-32.27c-.24,0-.45.1-.52.24Z" fill="#fff" opacity=".4" stroke-width="0"/>
          </g>
          <g>
            <path d="M136.31,194.77h-.86c-.17,0-.3-.09-.29-.2l.41-3.71c.01-.11.16-.2.33-.2h.86c.17,0,.3.09.29.2l-.41,3.71c-.01.11-.16.2-.33.2Z" fill="#407bff" stroke-width="0"/>
            <path d="M156.71,194.77h-.86c-.17,0-.3-.09-.29-.2l.41-3.71c.01-.11.16-.2.33-.2h.86c.17,0,.3.09.29.2l-.41,3.71c-.01.11-.16.2-.33.2Z" fill="#407bff" stroke-width="0"/>
          </g>
        </g>
        <g>
          <g>
            <ellipse cx="135.55" cy="362.19" rx="26.79" ry="1.94" fill="#f5f5f5" mix-blend-mode="multiply" stroke-width="0"/>
            <path d="M151.87,359.45c-4.74-1.38-9.96-3.15-13.18-5.03-.09-.05-.18-.09-.28-.14v-21.43h9.53c1.58,0,2.85-1.28,2.85-2.85s-1.28-2.85-2.85-2.85h-9.53v-97.82h-5.71v97.82h-9.53c-1.58,0-2.85,1.28-2.85,2.85s1.28,2.85,2.85,2.85h9.53v21.43c-.09.05-.19.09-.28.14-3.23,1.89-8.44,3.66-13.18,5.03-1.56.45-1.23,2.74.39,2.74h31.85c1.62,0,1.95-2.29.39-2.74Z" fill="#e0e0e0" stroke-width="0"/>
          </g>
          <g>
            <rect x="112.6" y="219.36" width="45.92" height="20.93" rx="5.18" ry="5.18" fill="#407bff" stroke-width="0"/>
            <g>
              <path d="M117.45,240.29v1.82c0,1.5,1.63,2.73,3.63,2.73h28.96c2,0,3.63-1.23,3.63-2.73v-1.82h-36.22Z" fill="#407bff" stroke-width="0"/>
              <path d="M117.45,240.29v1.82c0,1.5,1.63,2.73,3.63,2.73h28.96c2,0,3.63-1.23,3.63-2.73v-1.82h-36.22Z" fill="#fff" opacity=".3" stroke-width="0"/>
            </g>
          </g>
        </g>
      </g>
    </g>
  </g>
</svg>