<?xml version="1.0" encoding="UTF-8"?>
<svg xmlns="http://www.w3.org/2000/svg" viewBox="0 0 1135.13 343.71">
  <g>
    <path fill="var(--text-color)" d="M425.57,88.04v167.05c0,5.77-1.83,10.43-5.47,13.97-3.65,3.55-8.34,5.33-14.09,5.33s-10.4-1.78-13.95-5.33c-3.56-3.55-5.33-8.2-5.33-13.97V88.04c0-5.76,1.77-10.42,5.33-13.96,3.55-3.56,8.19-5.34,13.95-5.34s10.44,1.78,14.09,5.34c3.64,3.55,5.47,8.2,5.47,13.96Z"  stroke-width="0"/>
    <path fill="var(--text-color)" d="M514.45,166.54c-9.59,0-17.74,3.39-24.45,10.17-6.72,6.78-10.06,14.95-10.06,24.5s3.35,17.66,10.06,24.34c6.71,6.68,14.86,10.02,24.45,10.02s17.78-3.36,24.59-10.08c6.81-6.73,10.22-14.89,10.22-24.5v-112.94c0-5.57,1.81-10.18,5.47-13.83,3.64-3.65,8.24-5.48,13.8-5.48s10.45,1.78,14.09,5.34c3.65,3.55,5.47,8.2,5.47,13.96v112.9c0,20.55-7.14,37.93-21.42,52.14-14.29,14.21-31.69,21.31-52.21,21.31s-37.87-7.08-52.06-21.24c-14.2-14.16-21.29-31.48-21.29-51.95s7.05-38.08,21.14-52.24c14.1-14.16,31.51-21.25,52.21-21.25,5.76,0,10.45,1.83,14.09,5.47,3.64,3.65,5.47,8.34,5.47,14.1s-1.83,10.4-5.47,13.95-8.33,5.31-14.09,5.31Z"  stroke-width="0"/>
    <path fill="var(--text-color)" d="M727.57,179.36l-36.81,36.07c-4.22,3.84-8.73,5.76-13.52,5.76-5.37,0-10.03-1.99-13.95-5.98-3.93-3.98-5.9-8.63-5.9-13.94,0-4.74,2.13-9.2,6.4-13.38l20.6-20.53c-2.48-.55-4.99-.83-7.47-.83-9.59,0-17.73,3.37-24.44,10.11-6.71,6.74-10.05,14.92-10.05,24.55s3.35,17.86,10.06,24.69c6.71,6.83,14.86,10.25,24.45,10.25h25.6c5.76,0,10.4,1.77,13.95,5.31,3.55,3.56,5.33,8.2,5.33,13.95s-1.78,10.45-5.33,14.09-8.19,5.47-13.95,5.47h-25.6c-20.7,0-38.11-7.1-52.21-21.32-14.09-14.22-21.14-31.69-21.14-52.44s7.05-38.19,21.14-52.31c14.1-14.11,31.51-21.18,52.21-21.18s38.63,7.51,53.22,22.51c3.83,4.05,5.75,8.47,5.75,13.28,0,6.34-2.79,11.63-8.34,15.87Z"  stroke-width="0"/>
    <path fill="var(--text-color)" d="M875.4,212.18c0,17.47-5.95,32.22-17.82,44.22-11.89,12.01-26.57,18-44,18s-32.42-5.93-44.3-17.84c-11.89-11.88-17.84-26.65-17.84-44.29v-2.88c0-5.76,1.77-10.4,5.33-13.95,3.55-3.55,8.19-5.33,13.95-5.33s10.44,1.78,14.09,5.33c3.64,3.55,5.47,8.19,5.47,13.95v2.88c0,6.52,2.25,12.03,6.75,16.54s10.02,6.75,16.55,6.75,11.97-2.25,16.38-6.75,6.62-10.02,6.62-16.54v-27.62c-7.29,3.08-14.96,4.61-23.01,4.61-17.65,0-32.42-5.96-44.3-17.87-11.89-11.93-17.84-26.72-17.84-44.4v-38.93c0-5.77,1.77-10.43,5.33-13.99,3.55-3.56,8.19-5.34,13.95-5.34s10.44,1.78,14.09,5.35c3.64,3.56,5.47,8.23,5.47,14v38.96c0,6.54,2.25,12.08,6.75,16.6,4.51,4.53,10.02,6.79,16.55,6.79s11.97-2.25,16.38-6.76c4.41-4.49,6.62-10.02,6.62-16.54v-39.02c0-5.58,1.86-10.21,5.61-13.87,3.73-3.66,8.38-5.5,13.95-5.5s10.39,1.78,13.95,5.34,5.31,8.2,5.31,13.96v124.14Z"  stroke-width="0"/>
    <path fill="var(--text-color)" d="M964.56,274.97c-20.7,0-38.11-7.1-52.21-21.32-14.09-14.22-21.14-31.69-21.14-52.44s7.05-38.19,21.14-52.31c14.1-14.11,31.51-21.18,52.21-21.18s38.15,7.09,52.35,21.28c14.18,14.17,21.28,31.67,21.28,52.5v54.1c0,5.79-1.81,10.46-5.47,14.03-3.64,3.57-8.33,5.35-14.09,5.35s-10.4-1.78-13.95-5.36c-3.55-3.57-5.31-8.26-5.31-14.06v-54.22c0-9.66-3.41-17.87-10.22-24.65-6.81-6.76-15-10.15-24.59-10.15s-17.74,3.37-24.45,10.11c-6.72,6.74-10.06,14.92-10.06,24.55s3.35,17.86,10.06,24.69c6.71,6.83,14.86,10.25,24.45,10.25,5.76,0,10.45,1.77,14.09,5.31,3.64,3.56,5.47,8.2,5.47,13.95s-1.83,10.45-5.47,14.09c-3.64,3.64-8.33,5.47-14.09,5.47Z"  stroke-width="0"/>
    <path fill="var(--text-color)" d="M1092.56,189.61v65.46c0,5.77-1.83,10.44-5.47,13.99-3.65,3.56-8.34,5.34-14.09,5.34s-10.4-1.78-13.95-5.33c-3.56-3.56-5.33-8.22-5.33-13.97v-65.42c0-17.48,5.99-32.18,17.98-44.1,11.98-11.9,26.7-17.87,44.16-17.87,5.56,0,10.16,1.83,13.8,5.47,3.64,3.65,5.47,8.25,5.47,13.81,0,11.89-6.61,18.41-19.85,19.56-6.52.59-11.94,2.94-16.24,7.07-4.32,4.13-6.47,9.47-6.47,16.01Z"  stroke-width="0"/>
  </g>
  <g>
    <path fill="var(--logo-color)" d="M278.82,202.74c-.23,0-.45,0-.67,0-20.75,0-37.84,17.07-38.09,38.04-.25,21.19,16.83,38.66,38.09,38.94h.53c21.12,0,37.97-16.81,38.35-38.27.37-20.96-16.77-38.32-38.21-38.71ZM289.03,230.69c2.83,2.83,4.38,6.62,4.37,10.68-.01,8.08-6.7,14.68-14.96,14.71-3.87,0-7.71-1.66-10.55-4.55-2.78-2.83-4.27-6.44-4.2-10.15.17-8.64,6.43-14.94,14.89-14.98l.08-3.89h0v3.89c3.92,0,7.6,1.52,10.36,4.29Z"  stroke-width="0"/>
    <path fill="var(--logo-color)" d="M38.3,202.74c-10.21,0-19.81,3.99-27.04,11.22C3.98,221.26-.02,230.97,0,241.32c.03,21.18,17.25,38.41,38.38,38.41h.15c21.22-.08,38.46-17.38,38.42-38.56-.03-21.17-17.35-38.4-38.64-38.42ZM38.72,226.38c3.68,0,7.4,1.61,10.19,4.43,2.84,2.86,4.45,6.67,4.41,10.47-.07,8.1-6.66,14.74-14.7,14.8h-.12c-8.29,0-14.81-6.51-14.86-14.83-.05-8.17,6.46-14.7,14.81-14.87h.26Z"  stroke-width="0"/>
    <path fill="var(--logo-color)" d="M38.37,64.06c-10.3,0-19.95,3.99-27.18,11.23C3.97,82.54,0,92.2,0,102.5c.02,21.22,17.21,38.49,38.31,38.49h.04c21.51-.02,38.47-16.94,38.6-38.52.06-10.15-3.87-19.73-11.08-26.98-7.32-7.36-17.08-11.42-27.5-11.43ZM23.69,103.71c-.36-3.88.8-7.64,3.27-10.59,2.56-3.07,6.26-4.97,10.41-5.35.41-.04.83-.06,1.24-.06,6.81,0,14.14,5.27,14.63,14.08.21,3.86-1.21,7.78-3.89,10.75-2.6,2.87-6.16,4.55-10.02,4.72h-.19c-.4.05-.8.07-1.2.07h0c-7.29,0-13.55-5.98-14.25-13.62Z"  stroke-width="0"/>
    <path fill="var(--logo-color)" d="M278.06,140.99h.5c10.51-.14,20.27-4.23,27.48-11.51,7.23-7.3,11.13-17.03,10.99-27.41-.29-21.32-17.24-38.01-38.59-38.01h-.49c-21.07.26-38.07,17.58-37.88,38.61.18,21.13,17.23,38.32,38,38.32ZM280,87.77c3.83.35,7.48,2.31,10.02,5.37,2.48,2.99,3.66,6.65,3.31,10.31-.75,7.91-6.92,13.87-14.37,13.87-.42,0-.84-.02-1.26-.06h-.13c-3.98-.23-7.6-1.98-10.2-4.94-2.56-2.91-3.87-6.7-3.6-10.4.62-8.37,6.66-14.22,14.7-14.22.5,0,1.01.02,1.52.07Z"  stroke-width="0"/>
    <path fill="var(--logo-color)" d="M158.63,266.84c-.24,0-.49,0-.73,0-21.22.39-38.19,17.7-37.83,38.59.37,21.46,17.17,38.28,38.24,38.28h.51c10.51-.14,20.25-4.3,27.42-11.71,7.11-7.36,10.91-17.13,10.7-27.52-.44-21.11-17.27-37.65-38.3-37.65ZM143.69,305.25c0-3.94,1.53-7.65,4.32-10.45,2.79-2.8,6.5-4.34,10.44-4.35v-3.89h.01v3.89c8.25,0,14.78,6.47,14.86,14.72.04,3.94-1.49,7.67-4.3,10.51-2.8,2.83-6.5,4.38-10.42,4.38h-.11c-8.29-.06-14.79-6.57-14.8-14.82Z"  stroke-width="0"/>
    <path fill="var(--logo-color)" d="M158.54,0c-21.16,0-38.42,17.19-38.48,38.33-.03,10.39,3.93,20.1,11.15,27.35,7.21,7.24,16.9,11.24,27.27,11.25h.05c10.33,0,20-3.98,27.21-11.2,7.24-7.26,11.22-16.99,11.2-27.4C196.89,17.2,179.67,0,158.54,0ZM143.69,38.3c.23-8.09,6.72-14.66,14.48-14.66.14,0,.29,0,.43,0,8.33.26,14.93,7.03,14.71,15.1-.22,8.16-6.67,14.56-14.68,14.56-.18,0-.35,0-.53,0-8.17-.29-14.63-7.02-14.41-14.99Z"  stroke-width="0"/>
    <path fill="var(--logo-color)" d="M290.33,163.76c-.13-6.65-4.76-11.44-11.25-11.65-.15,0-.3,0-.46,0-6.65,0-11.63,4.71-11.85,11.21-.19,5.69-.19,11.46,0,17.13.22,6.51,5.2,11.23,11.84,11.23.16,0,.33,0,.49,0,6.38-.22,11.1-5.15,11.23-11.71.03-1.87.03-3.74.02-5.55,0-.81,0-1.62,0-2.44s0-1.68,0-2.52c0-1.86.02-3.77-.02-5.68Z"  stroke-width="0"/>
    <path fill="var(--logo-color)" d="M26.69,180.19c.13,6.5,4.95,11.33,11.45,11.48h.31c6.48,0,11.53-4.73,11.75-11.01.2-5.77.2-11.68,0-17.55-.21-6.37-5.16-11-11.78-11h-.27c-6.61.13-11.33,4.84-11.47,11.45-.04,1.92-.03,3.85-.02,5.71,0,.83,0,1.67,0,2.5s0,1.72,0,2.58c0,1.9-.02,3.87.02,5.83Z"  stroke-width="0"/>
    <path fill="var(--logo-color)" d="M105.39,52.03c-1.75,0-3.4.4-4.91,1.18-4.77,2.47-9.78,5.34-15.74,9.01-4.11,2.53-6.01,8.47-4.33,13.52,1.48,4.44,5.82,7.71,10.8,8.12l.79.07.76-.25c.37-.12.75-.23,1.13-.33,1.1-.31,2.35-.66,3.59-1.34,4.77-2.63,9.48-5.33,14.01-8.04,5.31-3.17,7.24-10.25,4.29-15.77-2-3.75-6.07-6.17-10.39-6.17Z"  stroke-width="0"/>
    <path fill="var(--logo-color)" d="M112.2,270.38c-4.56-2.77-10.23-6.21-15.92-9.15-1.45-.75-3.05-1.13-4.73-1.13-4.15,0-8.16,2.32-10.21,5.9-3.05,5.34-1.49,12.44,3.4,15.5,4.28,2.68,9.97,6.15,16,9.15,1.53.76,3.15,1.15,4.83,1.15,2.94,0,5.86-1.24,8.01-3.41,2.32-2.33,3.58-5.48,3.56-8.85v-.13c-.16-3.98-1.92-7.18-4.95-9.02Z"  stroke-width="0"/>
    <path fill="var(--logo-color)" d="M225.56,260.2c-2.2,0-4.42.6-6.42,1.73-4.08,2.31-8.39,4.78-13.18,7.57-3.66,2.13-5.98,5.71-6.07,9.34v.12c.04,7.23,5.06,12.69,11.67,12.69,2.05,0,4.16-.55,6.08-1.59,3.38-1.84,6.74-3.8,9.98-5.69,1.1-.64,2.19-1.28,3.29-1.92,5.95-3.45,8.06-10.65,4.82-16.39-2.08-3.67-5.87-5.86-10.16-5.86Z"  stroke-width="0"/>
    <path fill="var(--logo-color)" d="M206.21,74.4c4.12,2.42,8.53,4.98,13.07,7.47,1.23.68,2.48,1.07,3.58,1.41.4.13.81.25,1.2.39l.81.29.85-.08c5.42-.48,9.74-3.88,11.02-8.67,1.49-5.58-.69-10.87-5.68-13.79-4.56-2.67-8.82-5.13-13.01-7.53-2.02-1.15-4.27-1.76-6.52-1.76-4.26,0-8.03,2.12-10.1,5.68-3.34,5.76-1.24,13.04,4.78,16.57Z"  stroke-width="0"/>
  </g>
</svg>