<svg width="20" height="20" viewBox="0 0 20 20" fill="none" xmlns="http://www.w3.org/2000/svg">
<g id="User">
<path id="Vector" d="M18.3109 16.4062C17.2398 14.5263 15.5672 13.0615 13.5624 12.2477C14.5594 11.4999 15.2958 10.4575 15.6674 9.26803C16.0389 8.07853 16.0268 6.80228 15.6328 5.62005C15.2387 4.43783 14.4826 3.40956 13.4717 2.68091C12.4607 1.95225 11.2461 1.56016 9.99994 1.56016C8.75377 1.56016 7.53918 1.95225 6.52823 2.68091C5.51727 3.40956 4.76121 4.43783 4.36714 5.62005C3.97306 6.80228 3.96095 8.07853 4.33252 9.26803C4.70409 10.4575 5.4405 11.4999 6.43744 12.2477C4.43269 13.0615 2.76013 14.5263 1.68901 16.4062C1.62263 16.513 1.5784 16.6319 1.55893 16.7561C1.53946 16.8803 1.54515 17.0071 1.57566 17.129C1.60618 17.2509 1.66089 17.3654 1.73656 17.4658C1.81222 17.5661 1.90729 17.6502 2.01611 17.7131C2.12493 17.776 2.24528 17.8163 2.37 17.8318C2.49473 17.8472 2.62128 17.8374 2.74215 17.8029C2.86301 17.7685 2.9757 17.7101 3.07354 17.6312C3.17138 17.5523 3.25236 17.4546 3.31166 17.3437C4.72729 14.8969 7.22729 13.4375 9.99994 13.4375C12.7726 13.4375 15.2726 14.8977 16.6882 17.3437C16.8168 17.5504 17.0206 17.699 17.2567 17.7581C17.4928 17.8172 17.7426 17.7822 17.9533 17.6604C18.1641 17.5387 18.3192 17.3397 18.3859 17.1057C18.4526 16.8716 18.4257 16.6208 18.3109 16.4062ZM5.93744 7.5C5.93744 6.69651 6.1757 5.91107 6.6221 5.243C7.06849 4.57492 7.70297 4.05422 8.44529 3.74674C9.18762 3.43926 10.0044 3.35881 10.7925 3.51556C11.5805 3.67231 12.3044 4.05923 12.8726 4.62738C13.4407 5.19553 13.8276 5.9194 13.9844 6.70744C14.1411 7.49549 14.0607 8.31233 13.7532 9.05465C13.4457 9.79698 12.925 10.4315 12.2569 10.8778C11.5889 11.3242 10.8034 11.5625 9.99994 11.5625C8.92288 11.5613 7.89029 11.1328 7.12869 10.3713C6.36709 9.60965 5.93868 8.57706 5.93744 7.5Z" fill-opacity="0.65"/>
</g>
</svg>
